<svg width="512" height="512" version="1" xmlns="http://www.w3.org/2000/svg"><path d="M256 0a256 256 0 1 1 0 512 256 256 0 0 1 0-512zm106 213v86h-35v-83c0-19-7-27-21-27-17 0-25 11-25 31v47h-34v-47c0-20-8-31-24-31-15 0-22 8-22 27v83h-34v-86c0-17 4-31 13-42 9-10 22-16 36-16 18 0 31 7 39 21l9 14 8-14c9-14 23-21 39-21s27 6 37 16c8 11 14 25 14 42zm-33 136c40-5 77-31 81-53 7-37 6-89 6-89 0-70-47-92-47-92-22-11-63-15-104-15h-1c-42 0-82 4-106 15 0 0-46 22-46 92v56c1 69 13 138 77 155 30 7 55 10 75 9 38-3 58-14 58-14l-2-27s-25 8-55 8c-29-1-60-4-66-39v-11s28 7 65 9c22 0 44-1 65-4z" fill="#3088D4" fill-rule="evenodd"/></svg>
