<svg width="499" height="508" xmlns="http://www.w3.org/2000/svg"><path d="M439.6 153.34a204.36 204.36 0 0 0-71.93-46.59C382.92 61.9 437 45.55 437 45.55S310.8-19.94 171.46 6.2c-46.45 7.4-91 35.93-123.58 73.57-70.72 81.66-61.36 204.57 20.97 274.71 12.65 10.83 40.9 27.68 41.43 28.54-18.55 47.1-77.83 60-77.83 60S110.8 492 216 504.7c27.91 3.44 57.55 4.3 88.23 1.04 48.7-3.96 97.23-29.74 134.15-66.01 79.9-78.74 80.6-206.98 1.22-286.4zm-36.06 255.1c-29.8 29.23-74.35 47.8-108.67 50.38-24.27 2.4-50.27 2.75-75.23-.35-36.74-4.47-63.26-14.6-89.26-24.4 13.17-12.73 26.35-30.26 31.72-45.39a34.95 34.95 0 0 0-1.04-27.68c-27.9-57.41-15.77-126.18 30.16-170.87 33.28-32.5 79.04-47.8 125.49-42.12 34.14 4.13 65.17 19.08 89.43 43.32 58.94 59.14 56.86 159.19-2.6 217.12z" fill="#1FBF8F" fill-rule="nonzero"/></svg>
