<svg width="512" height="512" xmlns="http://www.w3.org/2000/svg"><path d="M256 0C114.623 0 0 114.623 0 256s114.623 256 256 256 256-114.623 256-256C512 114.59 397.377 0 256 0zm127.39 156.385L338.202 369.8c-3.13 15.146-12.267 18.776-25.034 11.766l-68.844-50.944-33.296 32.169c-3.755 3.755-6.884 7.01-13.768 7.01-9.013 0-7.51-3.38-10.515-11.892l-23.782-77.48-68.218-21.28c-14.77-4.38-14.896-14.52 3.254-21.905l266.113-102.64c12.142-5.382 23.783 3.004 19.151 21.655l.125.125z" fill="#5682A3" fill-rule="evenodd"/></svg>
