<svg width="512" height="512" viewBox="0 0 512 512" xmlns="http://www.w3.org/2000/svg"><title>Twitter</title><path d="M256 0C114.623 0 0 114.623 0 256s114.623 256 256 256 256-114.623 256-256C512 114.59 397.377 0 256 0zm127.36 198.527l.192 8.16c0 83.328-63.39 179.33-179.33 179.33-35.582 0-68.703-10.432-96.607-28.322 4.93.576 9.952.895 15.04.895 29.538 0 56.707-10.08 78.276-26.975-27.583-.514-50.85-18.754-58.88-43.778 3.87.737 7.777 1.09 11.87 1.09 5.764 0 11.33-.738 16.61-2.177-28.83-5.825-50.56-31.264-50.56-61.79v-.8c8.513 4.733 18.21 7.55 28.545 7.902-16.895-11.295-28.032-30.592-28.032-52.45 0-11.55 3.105-22.367 8.512-31.678 31.072 38.144 77.536 63.233 129.918 65.856-1.087-4.61-1.632-9.442-1.632-14.37 0-34.783 28.227-63.007 63.044-63.007 18.11 0 34.495 7.647 46.015 19.903a127.634 127.634 0 0 0 40.03-15.295c-4.704 14.723-14.687 27.074-27.71 34.88a126.352 126.352 0 0 0 36.19-9.92c-8.45 12.61-19.17 23.715-31.487 32.546l-.002.002z" fill="#48ABD9" fill-rule="evenodd"/></svg>
