<svg xmlns="http://www.w3.org/2000/svg" width="512" height="512" viewBox="0 0 512 512"><path d="M256 0C114.615 0 0 114.615 0 256s114.615 256 256 256 256-114.615 256-256S397.385 0 256 0zm-83.26 320.203h-46.266c-2.788 0-4.87-1.247-6.05-3.146-1.218-1.976-1.28-4.533 0-7.08l49.163-86.535c.052-.095.052-.158 0-.263l-31.284-54.02c-1.294-2.57-1.483-5.11-.263-7.08 1.18-1.91 3.522-2.89 6.31-2.89h46.267c7.1 0 10.58 4.563 12.884 8.655 0 0 31.62 55.024 31.81 55.327-1.87 3.295-49.95 88.11-49.95 88.11-2.36 4.258-5.7 8.915-12.62 8.915zM391.526 106.07l-102.44 180.67a.275.275 0 0 0 0 .307l65.228 118.875c1.295 2.56 1.326 5.16.096 7.133-1.18 1.896-3.355 2.945-6.142 2.945H302.05c-7.088 0-10.633-4.7-12.924-8.79 0 0-65.576-119.996-65.744-120.308 3.28-5.79 102.958-182.112 102.958-182.112 2.48-4.448 5.48-8.79 12.387-8.79h46.742c2.783 0 4.973 1.05 6.15 2.947 1.22 1.974 1.19 4.573-.1 7.122z" fill="#2A6365"/></svg>