<svg xmlns="http://www.w3.org/2000/svg" width="1280" height="300"><path d="M619,174L561,159L598,191Z" fill="#639892" stroke="#639892" stroke-width="1.51"/><path d="M619,174L605,108L561,159Z" fill="#6b9f7d" stroke="#6b9f7d" stroke-width="1.51"/><path d="M561,159L552,211L598,191Z" fill="#619797" stroke="#619797" stroke-width="1.51"/><path d="M552,211L579,236L598,191Z" fill="#5b8f95" stroke="#5b8f95" stroke-width="1.51"/><path d="M653,262L687,184L619,174Z" fill="#4e8cab" stroke="#4e8cab" stroke-width="1.51"/><path d="M605,108L527,114L561,159Z" fill="#6fa665" stroke="#6fa665" stroke-width="1.51"/><path d="M561,159L503,195L552,211Z" fill="#649990" stroke="#649990" stroke-width="1.51"/><path d="M605,108L581,81L527,114Z" fill="#73ad53" stroke="#73ad53" stroke-width="1.51"/><path d="M619,174L684,155L605,108Z" fill="#689c87" stroke="#689c87" stroke-width="1.51"/><path d="M605,108L629,71L581,81Z" fill="#7db065" stroke="#7db065" stroke-width="1.51"/><path d="M687,184L684,155L619,174Z" fill="#5b93a1" stroke="#5b93a1" stroke-width="1.51"/><path d="M493,169L503,195L561,159Z" fill="#6a9e80" stroke="#6a9e80" stroke-width="1.51"/><path d="M552,211L534,260L579,236Z" fill="#5b8a82" stroke="#5b8a82" stroke-width="1.51"/><path d="M681,94L629,71L605,108Z" fill="#78ab6c" stroke="#78ab6c" stroke-width="1.51"/><path d="M653,262L619,174L598,191Z" fill="#548da2" stroke="#548da2" stroke-width="1.51"/><path d="M527,114L493,169L561,159Z" fill="#6fa46c" stroke="#6fa46c" stroke-width="1.51"/><path d="M579,236L604,265L598,191Z" fill="#57888f" stroke="#57888f" stroke-width="1.51"/><path d="M562,305L604,265L579,236Z" fill="#537e76" stroke="#537e76" stroke-width="1.51"/><path d="M684,155L681,94L605,108Z" fill="#6ca177" stroke="#6ca177" stroke-width="1.51"/><path d="M701,131L681,94L684,155Z" fill="#689c85" stroke="#689c85" stroke-width="1.51"/><path d="M765,160L701,131L684,155Z" fill="#5e959d" stroke="#5e959d" stroke-width="1.51"/><path d="M503,195L534,260L552,211Z" fill="#5f9084" stroke="#5f9084" stroke-width="1.51"/><path d="M604,265L653,262L598,191Z" fill="#528490" stroke="#528490" stroke-width="1.51"/><path d="M493,169L468,168L503,195Z" fill="#6da07d" stroke="#6da07d" stroke-width="1.51"/><path d="M465,234L529,283L534,260Z" fill="#5b8769" stroke="#5b8769" stroke-width="1.51"/><path d="M527,114L468,168L493,169Z" fill="#6fa666" stroke="#6fa666" stroke-width="1.51"/><path d="M765,160L715,110L701,131Z" fill="#629894" stroke="#629894" stroke-width="1.51"/><path d="M701,131L715,110L681,94Z" fill="#6b9f7c" stroke="#6b9f7c" stroke-width="1.51"/><path d="M653,262L692,252L687,184Z" fill="#4882a2" stroke="#4882a2" stroke-width="1.51"/><path d="M687,184L765,160L684,155Z" fill="#5591aa" stroke="#5591aa" stroke-width="1.51"/><path d="M534,260L562,305L579,236Z" fill="#568071" stroke="#568071" stroke-width="1.51"/><path d="M604,265L637,300L653,262Z" fill="#4d787e" stroke="#4d787e" stroke-width="1.51"/><path d="M465,234L534,260L503,195Z" fill="#609078" stroke="#609078" stroke-width="1.51"/><path d="M581,81L491,54L527,114Z" fill="#81b751" stroke="#81b751" stroke-width="1.51"/><path d="M527,114L441,89L468,168Z" fill="#75af51" stroke="#75af51" stroke-width="1.51"/><path d="M629,71L569,23L581,81Z" fill="#91bc71" stroke="#91bc71" stroke-width="1.51"/><path d="M643,26L569,23L629,71Z" fill="#9ec180" stroke="#9ec180" stroke-width="1.51"/><path d="M643,26L629,71L681,94Z" fill="#8bb57e" stroke="#8bb57e" stroke-width="1.51"/><path d="M734,49L643,26L681,94Z" fill="#8fb58b" stroke="#8fb58b" stroke-width="1.51"/><path d="M468,168L465,234L503,195Z" fill="#6a9c8c" stroke="#6a9c8c" stroke-width="1.51"/><path d="M562,305L637,300L604,265Z" fill="#4f776f" stroke="#4f776f" stroke-width="1.51"/><path d="M653,262L710,302L692,252Z" fill="#45758c" stroke="#45758c" stroke-width="1.51"/><path d="M529,283L562,305L534,260Z" fill="#557d64" stroke="#557d64" stroke-width="1.51"/><path d="M526,16L491,54L581,81Z" fill="#99c463" stroke="#99c463" stroke-width="1.51"/><path d="M577,-2L526,16L569,23Z" fill="#b3d27f" stroke="#b3d27f" stroke-width="1.51"/><path d="M569,23L526,16L581,81Z" fill="#a0c670" stroke="#a0c670" stroke-width="1.51"/><path d="M692,252L740,222L687,184Z" fill="#4083b1" stroke="#4083b1" stroke-width="1.51"/><path d="M760,268L740,222L692,252Z" fill="#3a79a6" stroke="#3a79a6" stroke-width="1.51"/><path d="M468,168L437,210L465,234Z" fill="#6e9d8d" stroke="#6e9d8d" stroke-width="1.51"/><path d="M409,184L437,210L468,168Z" fill="#76a48e" stroke="#76a48e" stroke-width="1.51"/><path d="M604,-10L577,-2L569,23Z" fill="#b5ca81" stroke="#b5ca81" stroke-width="1.51"/><path d="M491,54L441,89L527,114Z" fill="#81bb46" stroke="#81bb46" stroke-width="1.51"/><path d="M459,37L441,89L491,54Z" fill="#9ac758" stroke="#9ac758" stroke-width="1.51"/><path d="M740,222L756,196L687,184Z" fill="#3787c2" stroke="#3787c2" stroke-width="1.51"/><path d="M643,26L604,-10L569,23Z" fill="#b1cd8d" stroke="#b1cd8d" stroke-width="1.51"/><path d="M756,196L765,160L687,184Z" fill="#468cba" stroke="#468cba" stroke-width="1.51"/><path d="M715,110L734,49L681,94Z" fill="#7aa883" stroke="#7aa883" stroke-width="1.51"/><path d="M562,305L585,339L637,300Z" fill="#50776e" stroke="#50776e" stroke-width="1.51"/><path d="M489,332L585,339L562,305Z" fill="#537b62" stroke="#537b62" stroke-width="1.51"/><path d="M489,332L562,305L529,283Z" fill="#557c5d" stroke="#557c5d" stroke-width="1.51"/><path d="M479,312L529,283L465,234Z" fill="#5a835d" stroke="#5a835d" stroke-width="1.51"/><path d="M769,107L734,49L715,110Z" fill="#74a488" stroke="#74a488" stroke-width="1.51"/><path d="M643,26L659,-58L604,-10Z" fill="#b7ba83" stroke="#b7ba83" stroke-width="1.51"/><path d="M457,-20L459,37L526,16Z" fill="#b9d870" stroke="#b9d870" stroke-width="1.51"/><path d="M526,16L459,37L491,54Z" fill="#a4ce61" stroke="#a4ce61" stroke-width="1.51"/><path d="M637,300L673,325L653,262Z" fill="#49727c" stroke="#49727c" stroke-width="1.51"/><path d="M611,358L673,325L637,300Z" fill="#4b7479" stroke="#4b7479" stroke-width="1.51"/><path d="M396,117L409,184L468,168Z" fill="#7fae77" stroke="#7fae77" stroke-width="1.51"/><path d="M673,325L710,302L653,262Z" fill="#457182" stroke="#457182" stroke-width="1.51"/><path d="M740,222L797,213L756,196Z" fill="#2682c4" stroke="#2682c4" stroke-width="1.51"/><path d="M765,160L769,107L715,110Z" fill="#629893" stroke="#629893" stroke-width="1.51"/><path d="M407,241L465,234L437,210Z" fill="#6f9882" stroke="#6f9882" stroke-width="1.51"/><path d="M407,241L479,312L465,234Z" fill="#658c6c" stroke="#658c6c" stroke-width="1.51"/><path d="M734,49L689,-9L643,26Z" fill="#a7c29e" stroke="#a7c29e" stroke-width="1.51"/><path d="M585,339L611,358L637,300Z" fill="#4e7671" stroke="#4e7671" stroke-width="1.51"/><path d="M448,365L611,358L585,339Z" fill="#537a62" stroke="#537a62" stroke-width="1.51"/><path d="M577,-2L559,-35L526,16Z" fill="#b8c671" stroke="#b8c671" stroke-width="1.51"/><path d="M604,-10L559,-35L577,-2Z" fill="#b9be72" stroke="#b9be72" stroke-width="1.51"/><path d="M607,-71L559,-35L604,-10Z" fill="#bbae65" stroke="#bbae65" stroke-width="1.51"/><path d="M479,312L489,332L529,283Z" fill="#567f56" stroke="#567f56" stroke-width="1.51"/><path d="M448,365L489,332L479,312Z" fill="#5c8159" stroke="#5c8159" stroke-width="1.51"/><path d="M710,302L760,268L692,252Z" fill="#3d7294" stroke="#3d7294" stroke-width="1.51"/><path d="M836,154L798,118L765,160Z" fill="#5490a7" stroke="#5490a7" stroke-width="1.51"/><path d="M765,160L798,118L769,107Z" fill="#5e959c" stroke="#5e959c" stroke-width="1.51"/><path d="M441,89L396,117L468,168Z" fill="#80b45a" stroke="#80b45a" stroke-width="1.51"/><path d="M459,37L432,41L441,89Z" fill="#a1cc5f" stroke="#a1cc5f" stroke-width="1.51"/><path d="M424,-18L432,41L459,37Z" fill="#bddb73" stroke="#bddb73" stroke-width="1.51"/><path d="M432,41L396,117L441,89Z" fill="#93c453" stroke="#93c453" stroke-width="1.51"/><path d="M409,184L407,241L437,210Z" fill="#769f8f" stroke="#769f8f" stroke-width="1.51"/><path d="M341,201L407,241L409,184Z" fill="#7da496" stroke="#7da496" stroke-width="1.51"/><path d="M396,117L386,155L409,184Z" fill="#86b378" stroke="#86b378" stroke-width="1.51"/><path d="M710,302L776,315L760,268Z" fill="#366c92" stroke="#366c92" stroke-width="1.51"/><path d="M673,325L680,351L710,302Z" fill="#447084" stroke="#447084" stroke-width="1.51"/><path d="M611,358L680,351L673,325Z" fill="#49727c" stroke="#49727c" stroke-width="1.51"/><path d="M396,117L382,142L386,155Z" fill="#8ab76e" stroke="#8ab76e" stroke-width="1.51"/><path d="M351,274L418,324L407,241Z" fill="#6f8e6b" stroke="#6f8e6b" stroke-width="1.51"/><path d="M348,74L382,142L396,117Z" fill="#8ebf56" stroke="#8ebf56" stroke-width="1.51"/><path d="M797,213L765,160L756,196Z" fill="#2a87ca" stroke="#2a87ca" stroke-width="1.51"/><path d="M769,107L771,23L734,49Z" fill="#87ae9c" stroke="#87ae9c" stroke-width="1.51"/><path d="M771,23L700,-28L689,-9Z" fill="#b1b9a0" stroke="#b1b9a0" stroke-width="1.51"/><path d="M760,268L797,213L740,222Z" fill="#2b7bb6" stroke="#2b7bb6" stroke-width="1.51"/><path d="M689,-9L659,-58L643,26Z" fill="#b6b88b" stroke="#b6b88b" stroke-width="1.51"/><path d="M771,23L689,-9L734,49Z" fill="#a4bfaa" stroke="#a4bfaa" stroke-width="1.51"/><path d="M559,-35L517,-46L526,16Z" fill="#babf60" stroke="#babf60" stroke-width="1.51"/><path d="M607,-71L517,-46L559,-35Z" fill="#bda953" stroke="#bda953" stroke-width="1.51"/><path d="M517,-46L457,-20L526,16Z" fill="#bac45a" stroke="#bac45a" stroke-width="1.51"/><path d="M432,41L348,74L396,117Z" fill="#9eca5b" stroke="#9eca5b" stroke-width="1.51"/><path d="M787,19L771,23L822,57Z" fill="#97b5af" stroke="#97b5af" stroke-width="1.51"/><path d="M700,-28L659,-58L689,-9Z" fill="#b7ab83" stroke="#b7ab83" stroke-width="1.51"/><path d="M730,-73L659,-58L700,-28Z" fill="#bb9b78" stroke="#bb9b78" stroke-width="1.51"/><path d="M659,-58L607,-71L604,-10Z" fill="#bca669" stroke="#bca669" stroke-width="1.51"/><path d="M407,241L418,324L479,312Z" fill="#648660" stroke="#648660" stroke-width="1.51"/><path d="M489,332L448,365L585,339Z" fill="#567e58" stroke="#567e58" stroke-width="1.51"/><path d="M341,201L409,184L386,155Z" fill="#85ad92" stroke="#85ad92" stroke-width="1.51"/><path d="M680,351L701,374L710,302Z" fill="#427086" stroke="#427086" stroke-width="1.51"/><path d="M760,268L831,273L797,213Z" fill="#2673ae" stroke="#2673ae" stroke-width="1.51"/><path d="M611,358L701,374L680,351Z" fill="#48727e" stroke="#48727e" stroke-width="1.51"/><path d="M448,365L701,374L611,358Z" fill="#51786c" stroke="#51786c" stroke-width="1.51"/><path d="M701,374L776,315L710,302Z" fill="#3c6d8d" stroke="#3c6d8d" stroke-width="1.51"/><path d="M768,-56L730,-73L700,-28Z" fill="#b99882" stroke="#b99882" stroke-width="1.51"/><path d="M822,57L771,23L769,107Z" fill="#83aaa0" stroke="#83aaa0" stroke-width="1.51"/><path d="M798,118L822,57L769,107Z" fill="#6c9d8e" stroke="#6c9d8e" stroke-width="1.51"/><path d="M797,213L836,154L765,160Z" fill="#3a88c0" stroke="#3a88c0" stroke-width="1.51"/><path d="M850,203L836,154L797,213Z" fill="#2682c4" stroke="#2682c4" stroke-width="1.51"/><path d="M423,-50L424,-18L457,-20Z" fill="#cac45a" stroke="#cac45a" stroke-width="1.51"/><path d="M457,-20L424,-18L459,37Z" fill="#c4d66d" stroke="#c4d66d" stroke-width="1.51"/><path d="M418,324L448,365L479,312Z" fill="#61845d" stroke="#61845d" stroke-width="1.51"/><path d="M872,127L822,57L798,118Z" fill="#669784" stroke="#669784" stroke-width="1.51"/><path d="M329,195L341,201L386,155Z" fill="#8ab09a" stroke="#8ab09a" stroke-width="1.51"/><path d="M329,195L386,155L382,142Z" fill="#8bb388" stroke="#8bb388" stroke-width="1.51"/><path d="M349,42L348,74L432,41Z" fill="#b4d66c" stroke="#b4d66c" stroke-width="1.51"/><path d="M776,315L813,300L760,268Z" fill="#2b699a" stroke="#2b699a" stroke-width="1.51"/><path d="M782,360L813,300L776,315Z" fill="#2b6999" stroke="#2b6999" stroke-width="1.51"/><path d="M831,273L850,203L797,213Z" fill="#2377b5" stroke="#2377b5" stroke-width="1.51"/><path d="M836,154L872,127L798,118Z" fill="#598e98" stroke="#598e98" stroke-width="1.51"/><path d="M607,-71L471,-73L517,-46Z" fill="#bfa441" stroke="#bfa441" stroke-width="1.51"/><path d="M517,-46L471,-73L457,-20Z" fill="#c0b445" stroke="#c0b445" stroke-width="1.51"/><path d="M813,300L831,273L760,268Z" fill="#2a6a9c" stroke="#2a6a9c" stroke-width="1.51"/><path d="M341,201L351,274L407,241Z" fill="#7c9d88" stroke="#7c9d88" stroke-width="1.51"/><path d="M307,146L329,195L382,142Z" fill="#91b789" stroke="#91b789" stroke-width="1.51"/><path d="M448,365L423,366L701,374Z" fill="#557c5d" stroke="#557c5d" stroke-width="1.51"/><path d="M418,324L423,366L448,365Z" fill="#658660" stroke="#658660" stroke-width="1.51"/><path d="M365,368L423,366L418,324Z" fill="#6b8a65" stroke="#6b8a65" stroke-width="1.51"/><path d="M295,237L351,274L341,201Z" fill="#85a28f" stroke="#85a28f" stroke-width="1.51"/><path d="M348,74L307,146L382,142Z" fill="#94c165" stroke="#94c165" stroke-width="1.51"/><path d="M424,-18L349,42L432,41Z" fill="#c4df79" stroke="#c4df79" stroke-width="1.51"/><path d="M336,18L349,42L424,-18Z" fill="#d1e682" stroke="#d1e682" stroke-width="1.51"/><path d="M471,-73L423,-50L457,-20Z" fill="#c8b649" stroke="#c8b649" stroke-width="1.51"/><path d="M768,-56L771,23L787,19Z" fill="#aeb4af" stroke="#aeb4af" stroke-width="1.51"/><path d="M768,-56L700,-28L771,23Z" fill="#b3ac9c" stroke="#b3ac9c" stroke-width="1.51"/><path d="M659,-58L730,-73L607,-71Z" fill="#be9566" stroke="#be9566" stroke-width="1.51"/><path d="M607,-71L730,-73L471,-73Z" fill="#c09751" stroke="#c09751" stroke-width="1.51"/><path d="M701,374L782,360L776,315Z" fill="#356b93" stroke="#356b93" stroke-width="1.51"/><path d="M884,299L865,260L831,273Z" fill="#2c6592" stroke="#2c6592" stroke-width="1.51"/><path d="M351,274L349,298L418,324Z" fill="#718d6a" stroke="#718d6a" stroke-width="1.51"/><path d="M295,295L349,298L351,274Z" fill="#7a9270" stroke="#7a9270" stroke-width="1.51"/><path d="M813,-55L768,-56L787,19Z" fill="#b2a19d" stroke="#b2a19d" stroke-width="1.51"/><path d="M911,162L872,127L836,154Z" fill="#51889c" stroke="#51889c" stroke-width="1.51"/><path d="M822,57L832,-13L787,19Z" fill="#9eb7b2" stroke="#9eb7b2" stroke-width="1.51"/><path d="M911,162L836,154L850,203Z" fill="#3f82b1" stroke="#3f82b1" stroke-width="1.51"/><path d="M300,79L307,146L348,74Z" fill="#9eca5c" stroke="#9eca5c" stroke-width="1.51"/><path d="M329,195L295,237L341,201Z" fill="#8baba0" stroke="#8baba0" stroke-width="1.51"/><path d="M831,273L865,260L850,203Z" fill="#286fa7" stroke="#286fa7" stroke-width="1.51"/><path d="M884,299L831,273L813,300Z" fill="#2d648f" stroke="#2d648f" stroke-width="1.51"/><path d="M305,51L300,79L348,74Z" fill="#b6d86e" stroke="#b6d86e" stroke-width="1.51"/><path d="M347,-66L336,18L424,-18Z" fill="#d8d16b" stroke="#d8d16b" stroke-width="1.51"/><path d="M871,-8L832,-13L822,57Z" fill="#a3b8b1" stroke="#a3b8b1" stroke-width="1.51"/><path d="M872,127L887,101L822,57Z" fill="#689681" stroke="#689681" stroke-width="1.51"/><path d="M911,162L887,101L872,127Z" fill="#588a8b" stroke="#588a8b" stroke-width="1.51"/><path d="M305,51L348,74L349,42Z" fill="#bbdb72" stroke="#bbdb72" stroke-width="1.51"/><path d="M257,255L295,237L247,215Z" fill="#93aa9b" stroke="#93aa9b" stroke-width="1.51"/><path d="M247,215L295,237L329,195Z" fill="#91aea3" stroke="#91aea3" stroke-width="1.51"/><path d="M349,298L365,368L418,324Z" fill="#708d69" stroke="#708d69" stroke-width="1.51"/><path d="M423,366L255,376L701,374Z" fill="#5f835c" stroke="#5f835c" stroke-width="1.51"/><path d="M325,353L365,368L349,298Z" fill="#77916e" stroke="#77916e" stroke-width="1.51"/><path d="M336,18L305,51L349,42Z" fill="#c9e27d" stroke="#c9e27d" stroke-width="1.51"/><path d="M832,-13L813,-55L787,19Z" fill="#aea9a3" stroke="#aea9a3" stroke-width="1.51"/><path d="M768,-56L813,-55L730,-73Z" fill="#b98f86" stroke="#b98f86" stroke-width="1.51"/><path d="M871,-8L813,-55L832,-13Z" fill="#ada097" stroke="#ada097" stroke-width="1.51"/><path d="M887,101L889,48L822,57Z" fill="#7ba08e" stroke="#7ba08e" stroke-width="1.51"/><path d="M937,195L911,162L850,203Z" fill="#307cb4" stroke="#307cb4" stroke-width="1.51"/><path d="M887,101L941,111L889,48Z" fill="#6c957d" stroke="#6c957d" stroke-width="1.51"/><path d="M933,245L937,195L850,203Z" fill="#2573af" stroke="#2573af" stroke-width="1.51"/><path d="M782,360L835,373L813,300Z" fill="#2c6795" stroke="#2c6795" stroke-width="1.51"/><path d="M701,374L835,373L782,360Z" fill="#2f6a98" stroke="#2f6a98" stroke-width="1.51"/><path d="M871,338L884,299L813,300Z" fill="#2d638d" stroke="#2d638d" stroke-width="1.51"/><path d="M295,237L295,295L351,274Z" fill="#829a7f" stroke="#829a7f" stroke-width="1.51"/><path d="M300,79L241,112L307,146Z" fill="#a4cb69" stroke="#a4cb69" stroke-width="1.51"/><path d="M295,237L257,255L295,295Z" fill="#8aa088" stroke="#8aa088" stroke-width="1.51"/><path d="M305,51L279,66L300,79Z" fill="#bddb73" stroke="#bddb73" stroke-width="1.51"/><path d="M249,-3L279,66L305,51Z" fill="#d5e985" stroke="#d5e985" stroke-width="1.51"/><path d="M889,48L871,-8L822,57Z" fill="#94aea3" stroke="#94aea3" stroke-width="1.51"/><path d="M295,295L325,353L349,298Z" fill="#7c9372" stroke="#7c9372" stroke-width="1.51"/><path d="M835,373L871,338L813,300Z" fill="#2d6490" stroke="#2d6490" stroke-width="1.51"/><path d="M336,18L309,-22L305,51Z" fill="#dcec8b" stroke="#dcec8b" stroke-width="1.51"/><path d="M423,-50L347,-66L424,-18Z" fill="#d3bf55" stroke="#d3bf55" stroke-width="1.51"/><path d="M471,-73L347,-66L423,-50Z" fill="#d2b144" stroke="#d2b144" stroke-width="1.51"/><path d="M347,-66L309,-22L336,18Z" fill="#e1d571" stroke="#e1d571" stroke-width="1.51"/><path d="M916,377L897,323L871,338Z" fill="#2e5f86" stroke="#2e5f86" stroke-width="1.51"/><path d="M871,338L897,323L884,299Z" fill="#2e6088" stroke="#2e6088" stroke-width="1.51"/><path d="M933,245L850,203L865,260Z" fill="#296fa6" stroke="#296fa6" stroke-width="1.51"/><path d="M247,215L329,195L240,172Z" fill="#9ab7b0" stroke="#9ab7b0" stroke-width="1.51"/><path d="M295,295L253,326L325,353Z" fill="#839777" stroke="#839777" stroke-width="1.51"/><path d="M911,162L941,111L887,101Z" fill="#5a8983" stroke="#5a8983" stroke-width="1.51"/><path d="M889,48L925,29L871,-8Z" fill="#98aea0" stroke="#98aea0" stroke-width="1.51"/><path d="M933,245L865,260L884,299Z" fill="#2c6592" stroke="#2c6592" stroke-width="1.51"/><path d="M240,172L329,195L307,146Z" fill="#9aba9a" stroke="#9aba9a" stroke-width="1.51"/><path d="M241,112L300,79L279,66Z" fill="#b3d66c" stroke="#b3d66c" stroke-width="1.51"/><path d="M241,112L240,172L307,146Z" fill="#a6c588" stroke="#a6c588" stroke-width="1.51"/><path d="M949,293L933,245L884,299Z" fill="#2e5f86" stroke="#2e5f86" stroke-width="1.51"/><path d="M955,161L941,111L911,162Z" fill="#51828e" stroke="#51828e" stroke-width="1.51"/><path d="M224,62L241,112L279,66Z" fill="#bedb73" stroke="#bedb73" stroke-width="1.51"/><path d="M941,111L925,29L889,48Z" fill="#7c9d87" stroke="#7c9d87" stroke-width="1.51"/><path d="M871,-8L893,-78L813,-55Z" fill="#af9084" stroke="#af9084" stroke-width="1.51"/><path d="M937,195L955,161L911,162Z" fill="#407ca2" stroke="#407ca2" stroke-width="1.51"/><path d="M933,245L950,209L937,195Z" fill="#2870a7" stroke="#2870a7" stroke-width="1.51"/><path d="M973,238L950,209L933,245Z" fill="#2b6a9c" stroke="#2b6a9c" stroke-width="1.51"/><path d="M941,111L962,45L925,29Z" fill="#7b9b83" stroke="#7b9b83" stroke-width="1.51"/><path d="M950,209L955,161L937,195Z" fill="#3076ac" stroke="#3076ac" stroke-width="1.51"/><path d="M309,-22L249,-3L305,51Z" fill="#e7f090" stroke="#e7f090" stroke-width="1.51"/><path d="M347,-66L302,-64L309,-22Z" fill="#e6c45f" stroke="#e6c45f" stroke-width="1.51"/><path d="M203,-64L302,-64L347,-66Z" fill="#efbf5b" stroke="#efbf5b" stroke-width="1.51"/><path d="M241,112L216,140L240,172Z" fill="#adca8b" stroke="#adca8b" stroke-width="1.51"/><path d="M187,208L203,253L247,215Z" fill="#a1b4aa" stroke="#a1b4aa" stroke-width="1.51"/><path d="M220,314L253,326L257,255Z" fill="#8d9d7f" stroke="#8d9d7f" stroke-width="1.51"/><path d="M206,99L216,140L241,112Z" fill="#b2d278" stroke="#b2d278" stroke-width="1.51"/><path d="M203,253L257,255L247,215Z" fill="#99ac9d" stroke="#99ac9d" stroke-width="1.51"/><path d="M257,255L253,326L295,295Z" fill="#889a7b" stroke="#889a7b" stroke-width="1.51"/><path d="M925,29L913,-38L871,-8Z" fill="#a5a699" stroke="#a5a699" stroke-width="1.51"/><path d="M813,-55L893,-78L730,-73Z" fill="#b7867f" stroke="#b7867f" stroke-width="1.51"/><path d="M941,-28L913,-38L925,29Z" fill="#a59f8f" stroke="#a59f8f" stroke-width="1.51"/><path d="M253,-50L249,-3L309,-22Z" fill="#efdb7a" stroke="#efdb7a" stroke-width="1.51"/><path d="M249,-3L224,62L279,66Z" fill="#d8eb88" stroke="#d8eb88" stroke-width="1.51"/><path d="M897,323L949,293L884,299Z" fill="#2e5d83" stroke="#2e5d83" stroke-width="1.51"/><path d="M1011,178L1000,137L955,161Z" fill="#49798e" stroke="#49798e" stroke-width="1.51"/><path d="M949,333L949,293L897,323Z" fill="#2e5b7f" stroke="#2e5b7f" stroke-width="1.51"/><path d="M913,-38L893,-78L871,-8Z" fill="#ac9082" stroke="#ac9082" stroke-width="1.51"/><path d="M730,-73L893,-78L471,-73Z" fill="#be8d6a" stroke="#be8d6a" stroke-width="1.51"/><path d="M982,105L962,45L941,111Z" fill="#689072" stroke="#689072" stroke-width="1.51"/><path d="M913,-38L962,-60L893,-78Z" fill="#ac8271" stroke="#ac8271" stroke-width="1.51"/><path d="M982,105L941,111L955,161Z" fill="#57847a" stroke="#57847a" stroke-width="1.51"/><path d="M949,293L973,238L933,245Z" fill="#2e628c" stroke="#2e628c" stroke-width="1.51"/><path d="M1026,292L1007,232L973,238Z" fill="#2e5e85" stroke="#2e5e85" stroke-width="1.51"/><path d="M835,373L916,377L871,338Z" fill="#2e6189" stroke="#2e6189" stroke-width="1.51"/><path d="M701,374L916,377L835,373Z" fill="#2c6694" stroke="#2c6694" stroke-width="1.51"/><path d="M224,62L206,99L241,112Z" fill="#bbda72" stroke="#bbda72" stroke-width="1.51"/><path d="M187,208L247,215L240,172Z" fill="#a3bbb9" stroke="#a3bbb9" stroke-width="1.51"/><path d="M163,67L206,99L224,62Z" fill="#cae07a" stroke="#cae07a" stroke-width="1.51"/><path d="M1000,137L982,105L955,161Z" fill="#54807e" stroke="#54807e" stroke-width="1.51"/><path d="M916,377L949,333L897,323Z" fill="#2e5c81" stroke="#2e5c81" stroke-width="1.51"/><path d="M949,-28L925,29L962,45Z" fill="#9aac9b" stroke="#9aac9b" stroke-width="1.51"/><path d="M949,-28L941,-28L925,29Z" fill="#a3a190" stroke="#a3a190" stroke-width="1.51"/><path d="M249,-3L197,-26L224,62Z" fill="#f5fa9e" stroke="#f5fa9e" stroke-width="1.51"/><path d="M302,-64L253,-50L309,-22Z" fill="#eccc69" stroke="#eccc69" stroke-width="1.51"/><path d="M187,208L240,172L167,167Z" fill="#acbfaf" stroke="#acbfaf" stroke-width="1.51"/><path d="M253,326L255,376L325,353Z" fill="#869879" stroke="#869879" stroke-width="1.51"/><path d="M325,353L255,376L365,368Z" fill="#7e9473" stroke="#7e9473" stroke-width="1.51"/><path d="M365,368L255,376L423,366Z" fill="#77906e" stroke="#77906e" stroke-width="1.51"/><path d="M701,374L255,376L916,377Z" fill="#4d7575" stroke="#4d7575" stroke-width="1.51"/><path d="M202,353L255,376L253,326Z" fill="#8e9e80" stroke="#8e9e80" stroke-width="1.51"/><path d="M203,253L220,314L257,255Z" fill="#93a38b" stroke="#93a38b" stroke-width="1.51"/><path d="M941,-28L962,-60L913,-38Z" fill="#a88b79" stroke="#a88b79" stroke-width="1.51"/><path d="M1011,2L949,-28L962,45Z" fill="#9da794" stroke="#9da794" stroke-width="1.51"/><path d="M164,324L202,353L220,314Z" fill="#969e82" stroke="#969e82" stroke-width="1.51"/><path d="M167,167L240,172L216,140Z" fill="#afc79e" stroke="#afc79e" stroke-width="1.51"/><path d="M982,105L1008,75L962,45Z" fill="#6f9274" stroke="#6f9274" stroke-width="1.51"/><path d="M1011,178L955,161L950,209Z" fill="#3776a3" stroke="#3776a3" stroke-width="1.51"/><path d="M1011,178L950,209L1007,232Z" fill="#296ea3" stroke="#296ea3" stroke-width="1.51"/><path d="M1007,232L950,209L973,238Z" fill="#2b699a" stroke="#2b699a" stroke-width="1.51"/><path d="M1026,292L973,238L949,293Z" fill="#2e5b7d" stroke="#2e5b7d" stroke-width="1.51"/><path d="M164,324L220,314L203,253Z" fill="#969e82" stroke="#969e82" stroke-width="1.51"/><path d="M206,99L167,167L216,140Z" fill="#b4cb86" stroke="#b4cb86" stroke-width="1.51"/><path d="M153,77L167,167L206,99Z" fill="#b7cd6f" stroke="#b7cd6f" stroke-width="1.51"/><path d="M1000,137L1008,75L982,105Z" fill="#5a8564" stroke="#5a8564" stroke-width="1.51"/><path d="M1027,46L1008,75L1060,80Z" fill="#729070" stroke="#729070" stroke-width="1.51"/><path d="M949,-28L962,-60L941,-28Z" fill="#a78c79" stroke="#a78c79" stroke-width="1.51"/><path d="M1011,2L962,-60L949,-28Z" fill="#a3907b" stroke="#a3907b" stroke-width="1.51"/><path d="M220,314L202,353L253,326Z" fill="#919f82" stroke="#919f82" stroke-width="1.51"/><path d="M162,229L203,253L187,208Z" fill="#a3aea2" stroke="#a3aea2" stroke-width="1.51"/><path d="M137,216L162,229L187,208Z" fill="#a8ada5" stroke="#a8ada5" stroke-width="1.51"/><path d="M253,-50L197,-26L249,-3Z" fill="#f8df80" stroke="#f8df80" stroke-width="1.51"/><path d="M149,-2L163,67L224,62Z" fill="#e4e988" stroke="#e4e988" stroke-width="1.51"/><path d="M167,167L137,216L187,208Z" fill="#acb4b2" stroke="#acb4b2" stroke-width="1.51"/><path d="M163,67L153,77L206,99Z" fill="#c8d871" stroke="#c8d871" stroke-width="1.51"/><path d="M126,67L153,77L163,67Z" fill="#d2d871" stroke="#d2d871" stroke-width="1.51"/><path d="M1027,46L962,45L1008,75Z" fill="#7c987b" stroke="#7c987b" stroke-width="1.51"/><path d="M1027,46L1011,2L962,45Z" fill="#8ca188" stroke="#8ca188" stroke-width="1.51"/><path d="M197,-26L149,-2L224,62Z" fill="#faf79b" stroke="#faf79b" stroke-width="1.51"/><path d="M253,-50L203,-64L197,-26Z" fill="#fdd374" stroke="#fdd374" stroke-width="1.51"/><path d="M302,-64L203,-64L253,-50Z" fill="#f6c764" stroke="#f6c764" stroke-width="1.51"/><path d="M471,-73L203,-64L347,-66Z" fill="#e3b64e" stroke="#e3b64e" stroke-width="1.51"/><path d="M1060,80L1008,75L1000,137Z" fill="#5e8662" stroke="#5e8662" stroke-width="1.51"/><path d="M1072,156L1000,137L1011,178Z" fill="#487685" stroke="#487685" stroke-width="1.51"/><path d="M1007,232L1062,181L1011,178Z" fill="#296da2" stroke="#296da2" stroke-width="1.51"/><path d="M949,333L1026,292L949,293Z" fill="#2f5777" stroke="#2f5777" stroke-width="1.51"/><path d="M1039,363L1026,292L949,333Z" fill="#2e5571" stroke="#2e5571" stroke-width="1.51"/><path d="M105,272L164,324L162,229Z" fill="#9d977e" stroke="#9d977e" stroke-width="1.51"/><path d="M162,229L164,324L203,253Z" fill="#9ca089" stroke="#9ca089" stroke-width="1.51"/><path d="M93,158L137,216L167,167Z" fill="#b2b29e" stroke="#b2b29e" stroke-width="1.51"/><path d="M1083,251L1062,181L1007,232Z" fill="#2d648f" stroke="#2d648f" stroke-width="1.51"/><path d="M161,-41L149,-2L197,-26Z" fill="#fedc7d" stroke="#fedc7d" stroke-width="1.51"/><path d="M153,77L117,112L167,167Z" fill="#b9c56c" stroke="#b9c56c" stroke-width="1.51"/><path d="M164,324L152,339L202,353Z" fill="#97997d" stroke="#97997d" stroke-width="1.51"/><path d="M202,353L109,364L255,376Z" fill="#969d80" stroke="#969d80" stroke-width="1.51"/><path d="M116,327L152,339L164,324Z" fill="#9a9376" stroke="#9a9376" stroke-width="1.51"/><path d="M126,16L126,67L163,67Z" fill="#e0dd7a" stroke="#e0dd7a" stroke-width="1.51"/><path d="M149,-2L126,16L163,67Z" fill="#f1e889" stroke="#f1e889" stroke-width="1.51"/><path d="M203,-64L161,-41L197,-26Z" fill="#ffd172" stroke="#ffd172" stroke-width="1.51"/><path d="M1078,-15L1027,-42L1011,2Z" fill="#9d9176" stroke="#9d9176" stroke-width="1.51"/><path d="M1072,156L1060,80L1000,137Z" fill="#547c6a" stroke="#547c6a" stroke-width="1.51"/><path d="M126,67L117,112L153,77Z" fill="#c7ce65" stroke="#c7ce65" stroke-width="1.51"/><path d="M137,216L105,272L162,229Z" fill="#a5a091" stroke="#a5a091" stroke-width="1.51"/><path d="M1102,200L1072,156L1062,181Z" fill="#3b6d8e" stroke="#3b6d8e" stroke-width="1.51"/><path d="M1062,181L1072,156L1011,178Z" fill="#40718d" stroke="#40718d" stroke-width="1.51"/><path d="M1011,2L1027,-42L962,-60Z" fill="#a28b73" stroke="#a28b73" stroke-width="1.51"/><path d="M1059,28L1011,2L1027,46Z" fill="#8da085" stroke="#8da085" stroke-width="1.51"/><path d="M1060,80L1059,28L1027,46Z" fill="#7b9474" stroke="#7b9474" stroke-width="1.51"/><path d="M1078,-15L1059,28L1139,45Z" fill="#8f9e81" stroke="#8f9e81" stroke-width="1.51"/><path d="M54,156L93,158L37,102Z" fill="#bbaf6b" stroke="#bbaf6b" stroke-width="1.51"/><path d="M113,-31L126,16L149,-2Z" fill="#ffdf80" stroke="#ffdf80" stroke-width="1.51"/><path d="M916,377L1039,363L949,333Z" fill="#2e5878" stroke="#2e5878" stroke-width="1.51"/><path d="M1026,292L1083,251L1007,232Z" fill="#2e5a7c" stroke="#2e5a7c" stroke-width="1.51"/><path d="M1039,363L1050,350L1026,292Z" fill="#2e526b" stroke="#2e526b" stroke-width="1.51"/><path d="M93,158L117,112L37,102Z" fill="#bbb762" stroke="#bbb762" stroke-width="1.51"/><path d="M117,112L93,158L167,167Z" fill="#b7ba80" stroke="#b7ba80" stroke-width="1.51"/><path d="M92,215L105,272L137,216Z" fill="#a89d8f" stroke="#a89d8f" stroke-width="1.51"/><path d="M1084,301L1083,251L1026,292Z" fill="#2e516b" stroke="#2e516b" stroke-width="1.51"/><path d="M1072,156L1117,113L1060,80Z" fill="#547c5f" stroke="#547c5f" stroke-width="1.51"/><path d="M93,158L92,215L137,216Z" fill="#b0a8a5" stroke="#b0a8a5" stroke-width="1.51"/><path d="M152,339L109,364L202,353Z" fill="#999678" stroke="#999678" stroke-width="1.51"/><path d="M105,272L116,327L164,324Z" fill="#9a9073" stroke="#9a9073" stroke-width="1.51"/><path d="M109,364L116,327L70,318Z" fill="#9b8a6c" stroke="#9b8a6c" stroke-width="1.51"/><path d="M1050,350L1084,301L1026,292Z" fill="#2e5069" stroke="#2e5069" stroke-width="1.51"/><path d="M1105,267L1102,200L1083,251Z" fill="#2e5d81" stroke="#2e5d81" stroke-width="1.51"/><path d="M1083,251L1102,200L1062,181Z" fill="#2d6592" stroke="#2d6592" stroke-width="1.51"/><path d="M161,-41L113,-31L149,-2Z" fill="#ffd475" stroke="#ffd475" stroke-width="1.51"/><path d="M37,102L117,112L126,67Z" fill="#c2c357" stroke="#c2c357" stroke-width="1.51"/><path d="M69,-56L113,-31L161,-41Z" fill="#ffc262" stroke="#ffc262" stroke-width="1.51"/><path d="M1139,45L1059,28L1060,80Z" fill="#7a9270" stroke="#7a9270" stroke-width="1.51"/><path d="M1059,28L1078,-15L1011,2Z" fill="#989f84" stroke="#989f84" stroke-width="1.51"/><path d="M92,215L49,251L105,272Z" fill="#a69482" stroke="#a69482" stroke-width="1.51"/><path d="M93,158L73,214L92,215Z" fill="#b2a4a0" stroke="#b2a4a0" stroke-width="1.51"/><path d="M54,156L73,214L93,158Z" fill="#b6a78d" stroke="#b6a78d" stroke-width="1.51"/><path d="M116,327L109,364L152,339Z" fill="#9a9072" stroke="#9a9072" stroke-width="1.51"/><path d="M70,318L116,327L105,272Z" fill="#9b8a6c" stroke="#9b8a6c" stroke-width="1.51"/><path d="M1084,301L1105,267L1083,251Z" fill="#2e536e" stroke="#2e536e" stroke-width="1.51"/><path d="M1137,129L1072,156L1102,200Z" fill="#457181" stroke="#457181" stroke-width="1.51"/><path d="M1137,129L1117,113L1072,156Z" fill="#51786c" stroke="#51786c" stroke-width="1.51"/><path d="M46,41L126,67L126,16Z" fill="#e8d976" stroke="#e8d976" stroke-width="1.51"/><path d="M49,251L70,318L105,272Z" fill="#9e886c" stroke="#9e886c" stroke-width="1.51"/><path d="M49,251L92,215L73,214Z" fill="#ab978b" stroke="#ab978b" stroke-width="1.51"/><path d="M1117,113L1139,45L1060,80Z" fill="#678862" stroke="#678862" stroke-width="1.51"/><path d="M1194,166L1137,129L1102,200Z" fill="#447083" stroke="#447083" stroke-width="1.51"/><path d="M-4,187L49,251L73,214Z" fill="#af9389" stroke="#af9389" stroke-width="1.51"/><path d="M1078,-15L1089,-75L1027,-42Z" fill="#9e7e60" stroke="#9e7e60" stroke-width="1.51"/><path d="M1027,-42L1089,-75L962,-60Z" fill="#a3785d" stroke="#a3785d" stroke-width="1.51"/><path d="M962,-60L1089,-75L893,-78Z" fill="#a9745d" stroke="#a9745d" stroke-width="1.51"/><path d="M1111,-56L1089,-75L1078,-15Z" fill="#9e7b5c" stroke="#9e7b5c" stroke-width="1.51"/><path d="M113,-31L65,-11L126,16Z" fill="#ffd778" stroke="#ffd778" stroke-width="1.51"/><path d="M46,41L37,102L126,67Z" fill="#d4c75f" stroke="#d4c75f" stroke-width="1.51"/><path d="M54,156L-4,187L73,214Z" fill="#b69d8e" stroke="#b69d8e" stroke-width="1.51"/><path d="M65,-11L46,41L126,16Z" fill="#fbde80" stroke="#fbde80" stroke-width="1.51"/><path d="M1185,98L1139,45L1117,113Z" fill="#63865f" stroke="#63865f" stroke-width="1.51"/><path d="M1105,267L1181,248L1102,200Z" fill="#2e5d82" stroke="#2e5d82" stroke-width="1.51"/><path d="M1084,301L1131,317L1105,267Z" fill="#2e4f66" stroke="#2e4f66" stroke-width="1.51"/><path d="M1123,365L1131,317L1084,301Z" fill="#2e4f66" stroke="#2e4f66" stroke-width="1.51"/><path d="M1123,365L1084,301L1050,350Z" fill="#2e4f66" stroke="#2e4f66" stroke-width="1.51"/><path d="M1137,-9L1111,-56L1078,-15Z" fill="#9b896b" stroke="#9b896b" stroke-width="1.51"/><path d="M113,-31L69,-56L65,-11Z" fill="#ffc262" stroke="#ffc262" stroke-width="1.51"/><path d="M-3,62L11,78L46,41Z" fill="#dcc057" stroke="#dcc057" stroke-width="1.51"/><path d="M203,-64L69,-56L161,-41Z" fill="#ffc161" stroke="#ffc161" stroke-width="1.51"/><path d="M1039,363L1123,365L1050,350Z" fill="#2e4f66" stroke="#2e4f66" stroke-width="1.51"/><path d="M916,377L1123,365L1039,363Z" fill="#2e536e" stroke="#2e536e" stroke-width="1.51"/><path d="M1139,45L1137,-9L1078,-15Z" fill="#969e82" stroke="#969e82" stroke-width="1.51"/><path d="M-3,62L46,41L-14,-6Z" fill="#f1c866" stroke="#f1c866" stroke-width="1.51"/><path d="M46,41L11,78L37,102Z" fill="#d2bd54" stroke="#d2bd54" stroke-width="1.51"/><path d="M37,102L-4,164L54,156Z" fill="#bca766" stroke="#bca766" stroke-width="1.51"/><path d="M49,251L28,331L70,318Z" fill="#9d8062" stroke="#9d8062" stroke-width="1.51"/><path d="M70,318L16,360L109,364Z" fill="#9c8365" stroke="#9c8365" stroke-width="1.51"/><path d="M-13,297L28,331L49,251Z" fill="#9e7b5c" stroke="#9e7b5c" stroke-width="1.51"/><path d="M1131,317L1166,296L1105,267Z" fill="#2e4f66" stroke="#2e4f66" stroke-width="1.51"/><path d="M1137,129L1185,98L1117,113Z" fill="#557c5d" stroke="#557c5d" stroke-width="1.51"/><path d="M1139,45L1169,-21L1137,-9Z" fill="#969d80" stroke="#969d80" stroke-width="1.51"/><path d="M1205,316L1166,296L1199,353Z" fill="#2e4f66" stroke="#2e4f66" stroke-width="1.51"/><path d="M-29,84L-4,164L37,102Z" fill="#bea848" stroke="#bea848" stroke-width="1.51"/><path d="M-4,164L-4,187L54,156Z" fill="#ba9c7a" stroke="#ba9c7a" stroke-width="1.51"/><path d="M1166,296L1181,248L1105,267Z" fill="#2e5470" stroke="#2e5470" stroke-width="1.51"/><path d="M1194,166L1185,98L1137,129Z" fill="#51786a" stroke="#51786a" stroke-width="1.51"/><path d="M1185,98L1182,57L1139,45Z" fill="#6f8c68" stroke="#6f8c68" stroke-width="1.51"/><path d="M1137,-9L1169,-21L1111,-56Z" fill="#9b8769" stroke="#9b8769" stroke-width="1.51"/><path d="M11,78L-29,84L37,102Z" fill="#c9b345" stroke="#c9b345" stroke-width="1.51"/><path d="M-14,-6L46,41L65,-11Z" fill="#ffd373" stroke="#ffd373" stroke-width="1.51"/><path d="M1200,209L1194,166L1102,200Z" fill="#306a97" stroke="#306a97" stroke-width="1.51"/><path d="M1185,98L1211,49L1182,57Z" fill="#6f8c68" stroke="#6f8c68" stroke-width="1.51"/><path d="M1182,57L1169,-21L1139,45Z" fill="#8a9b7d" stroke="#8a9b7d" stroke-width="1.51"/><path d="M1111,-56L1180,-65L1089,-75Z" fill="#a07051" stroke="#a07051" stroke-width="1.51"/><path d="M109,364L-74,375L255,376Z" fill="#9b8a6c" stroke="#9b8a6c" stroke-width="1.51"/><path d="M28,331L16,360L70,318Z" fill="#9d7e5f" stroke="#9d7e5f" stroke-width="1.51"/><path d="M-40,325L16,360L28,331Z" fill="#9e7758" stroke="#9e7758" stroke-width="1.51"/><path d="M1181,248L1200,209L1102,200Z" fill="#2d638d" stroke="#2d638d" stroke-width="1.51"/><path d="M1194,166L1212,164L1185,98Z" fill="#4d7573" stroke="#4d7573" stroke-width="1.51"/><path d="M1208,256L1200,209L1181,248Z" fill="#2e5d82" stroke="#2e5d82" stroke-width="1.51"/><path d="M-4,187L-15,267L49,251Z" fill="#ad8878" stroke="#ad8878" stroke-width="1.51"/><path d="M-29,267L-15,267L-45,204Z" fill="#ac7c69" stroke="#ac7c69" stroke-width="1.51"/><path d="M-45,204L-4,187L-4,164Z" fill="#ba9180" stroke="#ba9180" stroke-width="1.51"/><path d="M69,-56L19,-70L65,-11Z" fill="#ffb251" stroke="#ffb251" stroke-width="1.51"/><path d="M203,-64L19,-70L69,-56Z" fill="#ffb04e" stroke="#ffb04e" stroke-width="1.51"/><path d="M471,-73L19,-70L203,-64Z" fill="#fcc261" stroke="#fcc261" stroke-width="1.51"/><path d="M893,-78L19,-70L471,-73Z" fill="#c8a432" stroke="#c8a432" stroke-width="1.51"/><path d="M-15,267L-13,297L49,251Z" fill="#a37c62" stroke="#a37c62" stroke-width="1.51"/><path d="M1200,209L1212,164L1194,166Z" fill="#3b6d8e" stroke="#3b6d8e" stroke-width="1.51"/><path d="M1182,57L1212,4L1169,-21Z" fill="#93a084" stroke="#93a084" stroke-width="1.51"/><path d="M1200,209L1221,205L1212,164Z" fill="#2f6a98" stroke="#2f6a98" stroke-width="1.51"/><path d="M1166,296L1208,256L1181,248Z" fill="#2e5572" stroke="#2e5572" stroke-width="1.51"/><path d="M1205,316L1208,256L1166,296Z" fill="#2e4f66" stroke="#2e4f66" stroke-width="1.51"/><path d="M-3,62L-29,84L11,78Z" fill="#d3b54a" stroke="#d3b54a" stroke-width="1.51"/><path d="M-15,267L-29,267L-13,297Z" fill="#a27559" stroke="#a27559" stroke-width="1.51"/><path d="M-43,38L-29,84L-3,62Z" fill="#ddb64d" stroke="#ddb64d" stroke-width="1.51"/><path d="M19,-70L-14,-6L65,-11Z" fill="#ffb757" stroke="#ffb757" stroke-width="1.51"/><path d="M-45,204L-15,267L-4,187Z" fill="#b3867b" stroke="#b3867b" stroke-width="1.51"/><path d="M-13,297L-40,325L28,331Z" fill="#9f7455" stroke="#9f7455" stroke-width="1.51"/><path d="M1229,111L1211,49L1185,98Z" fill="#63855f" stroke="#63855f" stroke-width="1.51"/><path d="M1212,4L1180,-65L1169,-21Z" fill="#9b886a" stroke="#9b886a" stroke-width="1.51"/><path d="M1169,-21L1180,-65L1111,-56Z" fill="#9e7c5d" stroke="#9e7c5d" stroke-width="1.51"/><path d="M1212,164L1229,111L1185,98Z" fill="#537965" stroke="#537965" stroke-width="1.51"/><path d="M1208,256L1221,205L1200,209Z" fill="#2d618b" stroke="#2d618b" stroke-width="1.51"/><path d="M1291,230L1272,181L1221,205Z" fill="#2c6695" stroke="#2c6695" stroke-width="1.51"/><path d="M1199,353L1166,296L1131,317Z" fill="#2e4f66" stroke="#2e4f66" stroke-width="1.51"/><path d="M1123,365L1199,353L1131,317Z" fill="#2e4f66" stroke="#2e4f66" stroke-width="1.51"/><path d="M-70,168L-45,204L-4,164Z" fill="#bc8e76" stroke="#bc8e76" stroke-width="1.51"/><path d="M1211,49L1212,4L1182,57Z" fill="#849878" stroke="#849878" stroke-width="1.51"/><path d="M1272,181L1229,111L1212,164Z" fill="#4a737a" stroke="#4a737a" stroke-width="1.51"/><path d="M1242,-57L1212,4L1273,-47Z" fill="#9c8466" stroke="#9c8466" stroke-width="1.51"/><path d="M-29,84L-70,168L-4,164Z" fill="#bf9b56" stroke="#bf9b56" stroke-width="1.51"/><path d="M-14,-6L-43,38L-3,62Z" fill="#f2c25f" stroke="#f2c25f" stroke-width="1.51"/><path d="M-54,-27L-43,38L-14,-6Z" fill="#ffbf5f" stroke="#ffbf5f" stroke-width="1.51"/><path d="M-45,204L-40,325L-29,267Z" fill="#a7755c" stroke="#a7755c" stroke-width="1.51"/><path d="M-29,267L-40,325L-13,297Z" fill="#a07051" stroke="#a07051" stroke-width="1.51"/><path d="M1221,205L1272,181L1212,164Z" fill="#386c91" stroke="#386c91" stroke-width="1.51"/><path d="M1291,230L1221,205L1208,256Z" fill="#2e5f86" stroke="#2e5f86" stroke-width="1.51"/><path d="M1199,353L1220,363L1205,316Z" fill="#2e4f66" stroke="#2e4f66" stroke-width="1.51"/><path d="M1123,365L1220,363L1199,353Z" fill="#2e4f66" stroke="#2e4f66" stroke-width="1.51"/><path d="M1319,379L1220,363L1123,365Z" fill="#2e4f66" stroke="#2e4f66" stroke-width="1.51"/><path d="M-45,204L-74,375L-40,325Z" fill="#a06b4c" stroke="#a06b4c" stroke-width="1.51"/><path d="M-43,38L-70,168L-29,84Z" fill="#c5a532" stroke="#c5a532" stroke-width="1.51"/><path d="M-43,38L-71,-67L-70,168Z" fill="#e9b44d" stroke="#e9b44d" stroke-width="1.51"/><path d="M19,-70L-54,-27L-14,-6Z" fill="#ffaa49" stroke="#ffaa49" stroke-width="1.51"/><path d="M1269,297L1208,256L1205,316Z" fill="#2e4f66" stroke="#2e4f66" stroke-width="1.51"/><path d="M1273,-47L1212,4L1293,20Z" fill="#999577" stroke="#999577" stroke-width="1.51"/><path d="M1291,24L1211,49L1309,89Z" fill="#78916f" stroke="#78916f" stroke-width="1.51"/><path d="M1212,4L1242,-57L1180,-65Z" fill="#9d8162" stroke="#9d8162" stroke-width="1.51"/><path d="M1220,363L1269,297L1205,316Z" fill="#2e4f66" stroke="#2e4f66" stroke-width="1.51"/><path d="M-70,168L-74,375L-45,204Z" fill="#ac7460" stroke="#ac7460" stroke-width="1.51"/><path d="M-40,325L-74,375L16,360Z" fill="#a07050" stroke="#a07050" stroke-width="1.51"/><path d="M16,360L-74,375L109,364Z" fill="#9e7a5b" stroke="#9e7a5b" stroke-width="1.51"/><path d="M1309,126L1290,126L1272,181Z" fill="#4d7574" stroke="#4d7574" stroke-width="1.51"/><path d="M1272,181L1290,126L1229,111Z" fill="#4e7671" stroke="#4e7671" stroke-width="1.51"/><path d="M19,-70L-71,-67L-54,-27Z" fill="#ff9734" stroke="#ff9734" stroke-width="1.51"/><path d="M-54,-27L-71,-67L-43,38Z" fill="#ffad4b" stroke="#ffad4b" stroke-width="1.51"/><path d="M-70,168L-71,-67L-74,375Z" fill="#bf8d5f" stroke="#bf8d5f" stroke-width="1.51"/><path d="M1269,297L1291,230L1208,256Z" fill="#2e5675" stroke="#2e5675" stroke-width="1.51"/><path d="M1290,126L1298,115L1229,111Z" fill="#547b60" stroke="#547b60" stroke-width="1.51"/><path d="M1309,126L1298,115L1290,126Z" fill="#537a64" stroke="#537a64" stroke-width="1.51"/><path d="M1291,24L1212,4L1211,49Z" fill="#8b9c7d" stroke="#8b9c7d" stroke-width="1.51"/><path d="M1309,89L1211,49L1229,111Z" fill="#648660" stroke="#648660" stroke-width="1.51"/><path d="M1333,46L1293,20L1291,24Z" fill="#889a7b" stroke="#889a7b" stroke-width="1.51"/><path d="M1291,24L1293,20L1212,4Z" fill="#919f83" stroke="#919f83" stroke-width="1.51"/><path d="M1298,115L1309,89L1229,111Z" fill="#567e57" stroke="#567e57" stroke-width="1.51"/><path d="M1349,199L1309,126L1272,181Z" fill="#427086" stroke="#427086" stroke-width="1.51"/><path d="M1309,126L1309,89L1298,115Z" fill="#557d5a" stroke="#557d5a" stroke-width="1.51"/><path d="M1291,230L1349,199L1272,181Z" fill="#2c6796" stroke="#2c6796" stroke-width="1.51"/><path d="M1333,46L1291,24L1309,89Z" fill="#799270" stroke="#799270" stroke-width="1.51"/><path d="M1269,297L1311,238L1291,230Z" fill="#2e5878" stroke="#2e5878" stroke-width="1.51"/><path d="M1269,297L1335,322L1311,238Z" fill="#2e4f67" stroke="#2e4f67" stroke-width="1.51"/><path d="M1220,363L1304,354L1269,297Z" fill="#2e4f66" stroke="#2e4f66" stroke-width="1.51"/><path d="M1333,46L1309,89L1309,126Z" fill="#62855e" stroke="#62855e" stroke-width="1.51"/><path d="M1333,46L1315,-8L1293,20Z" fill="#8f9e81" stroke="#8f9e81" stroke-width="1.51"/><path d="M1293,20L1315,-8L1273,-47Z" fill="#9a9275" stroke="#9a9275" stroke-width="1.51"/><path d="M1349,199L1291,230L1311,238Z" fill="#2d628b" stroke="#2d628b" stroke-width="1.51"/><path d="M1349,199L1333,46L1309,126Z" fill="#537a65" stroke="#537a65" stroke-width="1.51"/><path d="M1242,-57L1308,-79L1180,-65Z" fill="#a06f50" stroke="#a06f50" stroke-width="1.51"/><path d="M1180,-65L1308,-79L1089,-75Z" fill="#a16b4c" stroke="#a16b4c" stroke-width="1.51"/><path d="M1089,-75L1308,-79L893,-78Z" fill="#a16849" stroke="#a16849" stroke-width="1.51"/><path d="M1273,-47L1308,-79L1242,-57Z" fill="#9f7354" stroke="#9f7354" stroke-width="1.51"/><path d="M1315,-8L1308,-79L1273,-47Z" fill="#9d7d5e" stroke="#9d7d5e" stroke-width="1.51"/><path d="M1333,46L1308,-79L1315,-8Z" fill="#9a9173" stroke="#9a9173" stroke-width="1.51"/><path d="M1335,322L1349,199L1311,238Z" fill="#2e597a" stroke="#2e597a" stroke-width="1.51"/><path d="M1304,354L1335,322L1269,297Z" fill="#2e4f66" stroke="#2e4f66" stroke-width="1.51"/><path d="M1220,363L1319,379L1304,354Z" fill="#2e4f66" stroke="#2e4f66" stroke-width="1.51"/><path d="M916,377L1319,379L1123,365Z" fill="#2e4f66" stroke="#2e4f66" stroke-width="1.51"/><path d="M255,376L1319,379L916,377Z" fill="#2d6592" stroke="#2d6592" stroke-width="1.51"/><path d="M1319,379L1335,322L1304,354Z" fill="#2e4f66" stroke="#2e4f66" stroke-width="1.51"/></svg>