<svg width="512" height="512" viewBox="0 0 512 512" xmlns="http://www.w3.org/2000/svg"><title>Shape</title><path d="M477.656 130.697c-22.892-40.207-53.944-72.04-93.163-95.502C345.268 11.73 302.446 0 255.995 0 209.552 0 166.717 11.733 127.5 35.195 88.275 58.657 57.225 90.49 34.332 130.697 11.445 170.902 0 214.807 0 262.41c0 57.18 16.275 108.6 48.832 154.27 32.555 45.674 74.61 77.278 126.163 94.817 6 1.14 10.443.338 13.332-2.39 2.89-2.73 4.332-6.15 4.332-10.246 0-.68-.06-6.83-.17-18.45a3052.84 3052.84 0 0 1-.17-30.4l-7.67 1.36c-4.887.917-11.055 1.306-18.5 1.196-7.44-.108-15.166-.906-23.165-2.394-8.003-1.472-15.447-4.89-22.335-10.242-6.885-5.353-11.773-12.36-14.663-21.01l-3.333-7.863c-2.22-5.235-5.72-11.05-10.498-17.425-4.78-6.38-9.61-10.706-14.5-12.98l-2.334-1.715c-1.555-1.14-2.998-2.513-4.33-4.104-1.335-1.59-2.334-3.184-3-4.78-.667-1.6-.115-2.91 1.666-3.94 1.78-1.026 4.996-1.525 9.666-1.525l6.663 1.02c4.443.914 9.94 3.64 16.5 8.198 6.554 4.557 11.942 10.478 16.165 17.764 5.112 9.343 11.273 16.462 18.5 21.36 7.22 4.898 14.5 7.343 21.83 7.343 7.333 0 13.664-.57 19-1.704 5.33-1.137 10.33-2.85 15-5.128 2-15.27 7.443-27 16.33-35.2-12.665-1.364-24.05-3.42-34.165-6.15-10.108-2.735-20.554-7.175-31.33-13.33-10.782-6.15-19.726-13.783-26.835-22.89-7.11-9.113-12.944-21.075-17.496-35.88-4.554-14.807-6.833-31.89-6.833-51.25 0-27.57 8.78-51.028 26.335-70.39-8.224-20.727-7.448-43.96 2.332-69.7 6.442-2.054 16-.514 28.664 4.61 12.667 5.127 21.942 9.52 27.833 13.16 5.89 3.64 10.613 6.722 14.168 9.223 20.672-5.92 42.003-8.88 64.002-8.88 22 0 43.333 2.96 64.004 8.88l12.67-8.198c8.66-5.47 18.89-10.48 30.658-15.036 11.78-4.556 20.785-5.81 27.01-3.76 9.996 25.744 10.887 48.976 2.662 69.7 17.552 19.365 26.335 42.83 26.335 70.393 0 19.36-2.286 36.497-6.833 51.42-4.55 14.924-10.435 26.876-17.656 35.88-7.228 9-16.23 16.574-27.005 22.72-10.78 6.15-21.23 10.59-31.335 13.326-10.113 2.732-21.5 4.79-34.165 6.154 11.55 10.248 17.327 26.423 17.327 48.517v72.09c0 4.096 1.39 7.517 4.17 10.248 2.78 2.726 7.165 3.53 13.166 2.386 51.56-17.536 93.617-49.142 126.17-94.815 32.55-45.67 48.83-97.09 48.83-154.27-.01-47.596-11.46-91.5-34.34-131.705h-.003z" fill="#333" fill-rule="evenodd"/></svg>