<?xml version="1.0" standalone="no"?>
<!DOCTYPE svg PUBLIC "-//W3C//DTD SVG 1.1//EN" "http://www.w3.org/Graphics/SVG/1.1/DTD/svg11.dtd" >
<svg xmlns="http://www.w3.org/2000/svg">
<metadata>
This is a custom SVG webfont generated by Font Squirrel.
Copyright   : 2009 AlbertJan Pool published by FSI FontShop International GmbH
Designer    : AlbertJan Pool
Foundry     : FSI
Foundry URL : httpwwwfontfontcom
</metadata>
<defs>
<font id="webfontmk5ZsYxf" horiz-adv-x="1052" >
<font-face units-per-em="2048" ascent="1565" descent="-483" />
<missing-glyph horiz-adv-x="522" />
<glyph unicode=" "  horiz-adv-x="522" />
<glyph unicode="&#x09;" horiz-adv-x="522" />
<glyph unicode="&#xa0;" horiz-adv-x="522" />
<glyph unicode="!" horiz-adv-x="622" d="M391 393h-100l-6 1065h112zM272 0v137h138v-137h-138z" />
<glyph unicode="&#x22;" horiz-adv-x="835" d="M195 1139v319h129v-319h-129zM512 1139v319h129v-319h-129z" />
<glyph unicode="#" horiz-adv-x="1308" d="M999 895l-51 -313h197v-90h-211l-78 -492h-104l79 492h-360l-76 -492h-104l78 492h-197v90h211l51 313h-203v92h215l74 471h107l-76 -471h358l74 471h102l-73 -471h192v-92h-205zM895 895h-358l-52 -313h359z" />
<glyph unicode="$" horiz-adv-x="1202" d="M1081 391q0 -178 -117.5 -284.5t-328.5 -116.5v-223h-92v221q-143 6 -243.5 52t-195.5 140l78 78q88 -90 170 -126t191 -44v604q-104 10 -178 43t-115 68q-115 98 -115 268q0 174 107.5 279.5t300.5 117.5v183h92v-183q117 -6 202 -44t171 -111l-72 -72q-59 53 -128 89 t-173 44v-594q76 -12 127 -23.5t86 -23.5t59.5 -26.5t46.5 -32.5q59 -49 93 -122t34 -161zM543 1374q-141 -10 -220 -90t-79 -209q0 -127 75 -190q49 -41 106.5 -61.5t117.5 -28.5v579zM971 387q0 137 -80 205q-27 23 -52.5 36t-54 21t-64.5 13.5l-85 13.5v-588 q156 10 246 87t90 212z" />
<glyph unicode="%" horiz-adv-x="1695" d="M590 1194q0 92 -40 146.5t-138 54.5t-139.5 -54.5t-41.5 -146.5v-211q0 -92 41 -145.5t140 -53.5q98 0 138 53.5t40 145.5v211zM680 979q0 -123 -74 -197.5t-194 -74.5q-121 0 -196 74.5t-75 197.5v219q0 123 75 199t196 76t194.5 -76t73.5 -199v-219zM463 0l680 1458h92 l-680 -1458h-92zM1464 473q0 92 -40 146.5t-138 54.5t-139 -54.5t-41 -146.5v-211q0 -92 41 -145.5t139 -53.5t138 53.5t40 145.5v211zM1554 258q0 -123 -73.5 -197.5t-194.5 -74.5t-195.5 74.5t-74.5 197.5v219q0 123 74.5 199t195.5 76t194.5 -76t73.5 -199v-219z" />
<glyph unicode="&#x26;" horiz-adv-x="1527" d="M1214 0l-141 172q-20 -20 -59 -52t-95.5 -60.5t-130 -50t-163.5 -21.5q-100 0 -183.5 29.5t-143.5 85t-93 132t-33 168.5q0 84 26.5 147.5t71.5 116t107 97.5l129 92l-57 72q-29 37 -52.5 76.5t-38 84t-14.5 91.5q0 61 23.5 114.5t63.5 92t94.5 61t115.5 22.5 t115.5 -22.5t94.5 -62t63.5 -93t23.5 -114.5q0 -90 -49 -152.5t-119 -110.5l-108 -73l417 -506q25 37 41.5 71.5t26.5 76.5t14 93.5t4 120.5h109q0 -137 -28.5 -247.5t-98.5 -196.5l209 -254h-142zM569 782l-109 -76q-52 -38 -91 -81t-62.5 -95.5t-23.5 -119.5 q0 -72 24.5 -131.5t69.5 -102.5t107.5 -66.5t138.5 -23.5q88 0 183 32t206 130zM829 1178q0 86 -54 140t-134 54t-133 -53t-53 -135q0 -29 6 -54.5t22.5 -56.5t44 -68.5t70.5 -89.5l93 62q42 29 73 59.5t48 64.5t17 77z" />
<glyph unicode="'" horiz-adv-x="518" d="M195 1139v319h129v-319h-129z" />
<glyph unicode="(" horiz-adv-x="581" d="M199 1296q0 49 7 96.5t32 94.5q12 23 24 41t29 37l36 39l46 47l76 -76l-64 -65q-29 -30 -47 -68q-16 -33 -22.5 -72t-6.5 -86v-1110q0 -47 6.5 -86t22.5 -72q18 -39 47 -68l64 -65l-76 -76q-53 53 -83 86t-52 78q-27 51 -33 94.5t-6 96.5v1134z" />
<glyph unicode=")" horiz-adv-x="581" d="M383 162q0 -53 -6 -96t-33 -95q-23 -45 -52.5 -77.5t-82.5 -86.5l-76 76l64 65q29 30 47 68q16 33 22 72t6 86v1110q0 47 -6 86t-22 72q-18 39 -47 68l-64 65l76 76l82 -86q31 -33 53 -78q25 -47 32 -94t7 -97v-1134z" />
<glyph unicode="*" horiz-adv-x="956" d="M764 897l-246 150l6 -289h-92l6 289l-245 -150l-46 78l252 139l-252 139l46 78l245 -149l-6 288h92l-6 -288l246 149l45 -78l-252 -139l252 -139z" />
<glyph unicode="+" d="M575 492v-371h-96v371h-370v96h370v368h96v-368h369v-96h-369z" />
<glyph unicode="," horiz-adv-x="528" d="M195 -279v418h139v-278z" />
<glyph unicode="-" horiz-adv-x="872" d="M168 492v96h537v-96h-537z" />
<glyph unicode="." horiz-adv-x="540" d="M195 0v152h151v-152h-151z" />
<glyph unicode="/" horiz-adv-x="692" d="M109 -152h-109l584 1762h108z" />
<glyph unicode="0" d="M909 377q0 -86 -28.5 -156.5t-78.5 -123t-121 -81t-155 -28.5t-154.5 28.5t-121.5 81t-79 123t-28 156.5v704q0 86 28 157t79 123t121.5 80.5t154.5 28.5t155 -28.5t121 -80.5t78.5 -123t28.5 -157v-704zM805 1071q0 63 -17.5 119.5t-53.5 98.5t-88 65.5t-120 23.5 t-120 -23.5t-87.5 -65.5t-53 -98t-17.5 -120v-684q0 -66 17.5 -121t53 -97t88 -65.5t119.5 -23.5q68 0 120 23.5t88 65.5t53.5 97.5t17.5 120.5v684z" />
<glyph unicode="1" d="M537 0v1339l-265 -233v125l265 227h104v-1458h-104z" />
<glyph unicode="2" d="M147 0v92l586 768q43 55 62.5 109.5t19.5 117.5q0 131 -72.5 211t-207.5 80q-57 0 -108.5 -16t-89.5 -52t-60.5 -91.5t-22.5 -131.5h-104q0 82 26.5 152t75.5 121t120.5 80.5t162.5 29.5q88 0 158.5 -27.5t120.5 -77.5t78 -120.5t28 -157.5q0 -82 -23 -145t-78 -135 l-547 -715h648v-92h-773z" />
<glyph unicode="3" d="M915 389q0 -98 -31.5 -173t-87 -126t-131 -77.5t-163.5 -26.5q-86 0 -159 22.5t-128 67.5t-89 114.5t-40 163.5h104q6 -74 34 -127t71 -85.5t96 -48t111 -15.5q66 0 122 21.5t98 61.5t65.5 97t23.5 131q0 147 -74.5 229t-242.5 82h-25v93h25q147 0 217.5 75.5t70.5 216.5 q0 72 -21.5 127.5t-60 92t-90 56t-110.5 19.5q-129 0 -203 -71.5t-88 -194.5h-105q8 86 41 152.5t85.5 112.5t121 70t148.5 24q86 0 157.5 -28t121.5 -78t79 -121.5t29 -160.5q0 -117 -48 -200.5t-159 -130.5q123 -41 179 -132.5t56 -232.5z" />
<glyph unicode="4" d="M770 240v-240h-104v240h-578v92l537 1126h110l-536 -1126h467v463h104v-463h195v-92h-195z" />
<glyph unicode="5" d="M924 477q0 -53 -3 -105.5t-14.5 -101.5t-34 -95t-61.5 -85q-104 -104 -281 -104q-186 0 -280 98q-86 86 -98 238h104q16 -117 80.5 -180.5t193.5 -63.5q59 0 112.5 19.5t88.5 54.5q33 33 50.5 71.5t25.5 81.5t10 87t2 85q0 68 -9 137.5t-38 126t-83 91t-142 34.5 q-100 0 -171 -40t-93 -113h-93v745h701v-92h-608v-516q96 109 276 108q158 0 246 -88q39 -39 62.5 -86t35.5 -98t16.5 -104.5t4.5 -104.5z" />
<glyph unicode="6" d="M918 412q0 -88 -26 -165t-75 -134.5t-120.5 -91t-164.5 -33.5q-92 0 -163.5 30.5t-121.5 85t-76 129t-26 164.5q0 72 18.5 142.5t63.5 162.5l375 756h105l-336 -674q76 35 170 35q88 0 158.5 -31.5t118.5 -87t74 -129t26 -159.5zM813 403q0 66 -18.5 124.5t-53 103.5 t-88 70.5t-123.5 25.5q-129 0 -204.5 -88t-75.5 -236q0 -147 75.5 -235t204.5 -88t206 88t77 235z" />
<glyph unicode="7" d="M424 0h-107l517 1366h-553v-229h-105v321h764v-92z" />
<glyph unicode="8" d="M942 393q0 -88 -31.5 -161.5t-88 -128t-132.5 -85t-164 -30.5t-163.5 30.5t-132 85t-88 128t-31.5 161.5q0 129 63.5 219t167.5 146q-201 111 -201 332q0 80 29 149.5t79 120.5t120.5 80.5t156.5 29.5t157 -29.5t121 -80.5t78.5 -121t28.5 -149q0 -225 -198 -332 q104 -55 166.5 -145.5t62.5 -219.5zM838 393q0 68 -23.5 125t-65.5 99t-99.5 67t-123.5 25t-123 -25t-99 -67t-65.5 -99t-23.5 -125t23.5 -125t65.5 -99t99.5 -65.5t122.5 -23.5q66 0 123.5 23.5t99.5 65.5t65.5 99t23.5 125zM807 1090q0 63 -20.5 116.5t-57.5 91t-89 59 t-114 21.5q-61 0 -113.5 -21.5t-89 -59t-57 -91t-20.5 -116.5t20.5 -116.5t57 -91.5t89 -59.5t113.5 -21.5t113.5 21.5t89.5 59.5t57.5 91.5t20.5 116.5z" />
<glyph unicode="9" d="M907 1061q0 -72 -18.5 -142.5t-63.5 -162.5l-374 -756h-105l336 674q-76 -35 -172 -35q-90 0 -159.5 31.5t-118 87t-73 129.5t-24.5 160q0 88 25.5 164.5t75 134t121 91t163.5 33.5t164 -30.5t122 -85t75.5 -130t25.5 -163.5zM803 1055q0 147 -77 235t-206 88t-204.5 -88 t-75.5 -235q0 -66 17 -124.5t53 -103.5t88.5 -70.5t121.5 -25.5q129 0 206 88.5t77 235.5z" />
<glyph unicode=":" horiz-adv-x="598" d="M252 0v152h151v-152h-151zM252 639v152h151v-152h-151z" />
<glyph unicode=";" horiz-adv-x="598" d="M256 -279v418h139v-278zM252 639v152h151v-152h-151z" />
<glyph unicode="&#x3c;" d="M215 489v99l623 330v-113l-521 -266l521 -267v-112z" />
<glyph unicode="=" d="M109 334v96h835v-96h-835zM109 647v96h835v-96h-835z" />
<glyph unicode="&#x3e;" d="M215 160v112l520 267l-520 266v113l623 -330v-99z" />
<glyph unicode="?" horiz-adv-x="999" d="M897 1110q0 -72 -24.5 -128t-65.5 -116l-174 -256q-20 -29 -28.5 -63.5t-8.5 -59.5v-96h-104v92q0 59 14 99.5t45 85.5l172 254q31 47 50.5 88t19.5 100q0 57 -19.5 106.5t-55.5 85t-84 56t-104 20.5q-59 0 -108 -21.5t-83 -58t-52.5 -86t-18.5 -102.5h-104 q0 74 26.5 139.5t74.5 114.5t116 77.5t149 28.5q78 0 145.5 -27.5t117 -75.5t77 -114.5t27.5 -142.5zM475 0v137h137v-137h-137z" />
<glyph unicode="@" horiz-adv-x="1427" d="M1165 0v121q-51 -70 -118.5 -102.5t-165.5 -32.5q-182 0 -285 133q-47 63 -67.5 149t-20.5 226q0 135 18.5 222t61.5 148q45 66 121.5 101.5t169.5 35.5q94 0 163.5 -33.5t122.5 -105.5v182q0 88 -18.5 142.5t-65.5 101.5q-45 45 -100 65.5t-133 20.5h-270 q-78 0 -132.5 -20.5t-99.5 -65.5q-47 -47 -65.5 -100t-18.5 -144v-722q0 -53 5 -90t19.5 -66t39 -54.5t63.5 -54.5l-72 -71q-47 33 -77.5 64.5t-49 69.5t-25.5 86t-7 116v716q0 98 29.5 176t82.5 134q106 111 289 110h307q178 0 289 -110q115 -115 115 -310v-1038h-105z M1165 494q0 76 -8 149.5t-37.5 133t-84 96t-146.5 36.5t-146.5 -36.5t-84 -96t-38 -133.5t-8.5 -149q0 -76 8.5 -150t38 -133t84 -96t146.5 -37t146.5 37t84 96t37.5 133t8 150z" />
<glyph unicode="A" horiz-adv-x="1232" d="M1083 0l-127 354h-680l-126 -354h-119l536 1458h99l536 -1458h-119zM311 453h611l-306 858z" />
<glyph unicode="B" horiz-adv-x="1374" d="M1206 397q0 -98 -30.5 -171.5t-87 -124t-135.5 -76t-175 -25.5h-553v1458h537q90 0 168 -25.5t134 -74.5t88 -120t32 -161q0 -117 -60.5 -205t-167.5 -122q119 -41 184.5 -132.5t65.5 -220.5zM1096 397q0 141 -90.5 220t-239.5 79h-430v-598h430q150 0 240 79t90 220z M1073 1077q0 76 -25.5 129.5t-69.5 87t-103.5 50t-124.5 16.5h-414v-565h414q66 0 125 16t103 50t69.5 87t25.5 129z" />
<glyph unicode="C" horiz-adv-x="1318" d="M1163 414q-18 -98 -61 -177t-107.5 -134.5t-147.5 -85t-179 -29.5q-111 0 -200 36.5t-155 102.5q-51 51 -79.5 101.5t-43 118t-18.5 158.5t-4 224t4 224t18.5 159t43 118t79.5 101q66 66 155 102.5t200 36.5q199 0 328.5 -113.5t166.5 -312.5h-112q-33 154 -134.5 241 t-248.5 87q-164 0 -277 -112q-39 -39 -61.5 -84.5t-33.5 -105.5t-14 -143t-3 -198t3 -197.5t14 -143t33.5 -105.5t61.5 -84q113 -113 277 -113q147 0 250.5 87t136.5 241h108z" />
<glyph unicode="D" horiz-adv-x="1388" d="M1221 729q0 -82 -2 -166t-16.5 -161.5t-43.5 -147.5t-80 -121q-133 -133 -364 -133h-490v1458h490q231 0 364 -133q51 -53 80 -121.5t43.5 -147.5t16.5 -162t2 -165zM1110 729q0 72 -2 145.5t-12.5 142t-32 128t-62.5 102.5q-63 66 -144 89.5t-169 23.5h-352v-1262h352 q88 0 169 23.5t144 89.5q41 43 62.5 102.5t32 128t12.5 142t2 145.5z" />
<glyph unicode="E" horiz-adv-x="1224" d="M225 0v1458h885v-98h-774v-576h659v-98h-659v-588h774v-98h-885z" />
<glyph unicode="F" horiz-adv-x="1179" d="M336 1360v-600h659v-98h-659v-662h-111v1458h885v-98h-774z" />
<glyph unicode="G" horiz-adv-x="1333" d="M1169 508q0 -117 -26.5 -199t-91.5 -153q-72 -78 -172.5 -123t-210.5 -45q-111 0 -200 36.5t-155 102.5q-51 51 -79.5 101.5t-43 118t-18.5 158.5t-4 224t4 224t18.5 159t43 118t79.5 101q66 66 155 102.5t200 36.5q94 0 178 -30.5t149.5 -86t109.5 -134t60 -175.5h-110 q-33 154 -136.5 241t-250.5 87q-164 0 -277 -112q-39 -39 -61.5 -84.5t-33.5 -105.5t-14 -143t-3 -198t3 -197.5t14 -143t33.5 -105.5t61.5 -84q113 -113 277 -113q86 0 165.5 36t137.5 105q47 59 67.5 127t20.5 162v131h-391v98h501v-237z" />
<glyph unicode="H" horiz-adv-x="1431" d="M1096 0v686h-760v-686h-111v1458h111v-674h760v674h110v-1458h-110z" />
<glyph unicode="I" horiz-adv-x="561" d="M225 0v1458h111v-1458h-111z" />
<glyph unicode="J" horiz-adv-x="1019" d="M815 430q0 -100 -30.5 -181t-87 -139.5t-137.5 -90t-179 -31.5q-195 0 -320 125l76 75q41 -41 94.5 -71.5t149.5 -30.5q160 0 242 94t82 273v1005h110v-1028z" />
<glyph unicode="K" horiz-adv-x="1320" d="M1153 0l-469 817l-348 -422v-395h-111v1458h111v-911l739 911h133l-450 -557l526 -901h-131z" />
<glyph unicode="L" horiz-adv-x="1171" d="M225 0v1458h111v-1360h774v-98h-885z" />
<glyph unicode="M" horiz-adv-x="1675" d="M1339 0v1202l-442 -997h-111l-450 997v-1202h-111v1458h111l508 -1124l495 1124h111v-1458h-111z" />
<glyph unicode="N" horiz-adv-x="1513" d="M1178 0l-842 1268v-1268h-111v1458h111l842 -1263v1263h110v-1458h-110z" />
<glyph unicode="O" horiz-adv-x="1335" d="M1167 729q0 -133 -4 -224t-18.5 -158.5t-43 -118t-79.5 -101.5q-66 -66 -155 -102.5t-199 -36.5q-111 0 -200 36.5t-155 102.5q-51 51 -79.5 101.5t-43 118t-18.5 158.5t-4 224t4 224t18.5 159t43 118t79.5 101q66 66 155 102.5t200 36.5t199.5 -36.5t154.5 -102.5 q51 -51 79.5 -101t43 -118t18.5 -159t4 -224zM1057 729q0 115 -3 198t-14.5 143t-34 105.5t-61.5 84.5q-113 113 -276 112q-164 0 -277 -112q-39 -39 -61.5 -84.5t-33.5 -105.5t-14 -143t-3 -198t3 -197.5t14 -143t33.5 -105.5t61.5 -84q113 -113 277 -113t276 113 q39 39 61.5 84t34 105.5t14.5 143t3 197.5z" />
<glyph unicode="P" horiz-adv-x="1292" d="M1200 1038q0 -100 -33.5 -178t-92 -132t-139.5 -82t-175 -28h-424v-618h-111v1458h535q94 0 175 -28.5t139.5 -82t92 -131.5t33.5 -178zM1090 1038q0 164 -95.5 243t-246.5 79h-412v-643h412q152 0 247 78.5t95 242.5z" />
<glyph unicode="Q" horiz-adv-x="1333" d="M1167 729q0 -119 -3 -204t-13 -148.5t-30.5 -111.5t-57.5 -93l172 -172l-74 -74l-172 170q-61 -51 -143 -79.5t-178 -28.5q-111 0 -200 36.5t-155 102.5q-51 51 -79.5 101.5t-43 118t-18.5 158.5t-4 224t4 224t18.5 159t43 118t79.5 101q66 66 155 102.5t200 36.5 t199.5 -36.5t154.5 -102.5q51 -51 79.5 -101t43 -118t18.5 -159t4 -224zM1057 729q0 115 -3 198t-14.5 143t-34 105.5t-61.5 84.5q-113 113 -276 112q-164 0 -277 -112q-39 -39 -61.5 -84.5t-33.5 -105.5t-14 -143t-3 -198t3 -197.5t14 -143t33.5 -105.5t61.5 -84 q113 -113 277 -113q143 0 247 86l-204 205l73 74l201 -203q25 37 39 80t21.5 99t9.5 130t2 172z" />
<glyph unicode="R" horiz-adv-x="1345" d="M1085 0l-348 672h-401v-672h-111v1458h555q88 0 165 -25.5t133.5 -74.5t88 -123t31.5 -168q0 -166 -91 -266.5t-245 -126.5l352 -674h-129zM1087 1065q0 152 -90 223.5t-231 71.5h-430v-590h430q141 0 231 71.5t90 223.5z" />
<glyph unicode="S" horiz-adv-x="1202" d="M1081 391q0 -92 -33.5 -166.5t-97 -127t-154.5 -81t-206 -28.5q-162 0 -273.5 46t-212.5 146l78 78q49 -49 95.5 -82t95.5 -53.5t103 -28.5t120 -8q174 0 274.5 79t100.5 222q0 137 -80 205q-18 16 -37.5 28.5t-43.5 20.5t-55.5 15.5t-74.5 13.5l-170 26 q-168 25 -260 105q-115 96 -115 270q0 92 32 166t90 126t142 79.5t189 27.5q135 0 230 -37.5t190 -119.5l-72 -72q-33 31 -67.5 55.5t-76.5 43t-94.5 27.5t-115.5 9q-160 0 -249 -79.5t-89 -221.5q0 -131 73 -192q39 -33 93.5 -53.5t115.5 -30.5l170 -27q51 -8 88 -16 t67 -19.5t55.5 -28t49.5 -36.5q59 -51 92 -121t33 -160z" />
<glyph unicode="T" horiz-adv-x="1103" d="M606 1360v-1360h-110v1360h-435v98h981v-98h-436z" />
<glyph unicode="U" horiz-adv-x="1409" d="M1204 473q0 -106 -37 -195.5t-103.5 -154t-157.5 -100t-201 -35.5q-111 0 -202 35.5t-157.5 100t-103.5 154t-37 195.5v985h110v-971q0 -90 28 -164.5t79 -127t122.5 -81t160.5 -28.5q88 0 159.5 28.5t122.5 81t79 127t28 164.5v971h110v-985z" />
<glyph unicode="V" horiz-adv-x="1093" d="M594 0h-94l-480 1458h117l410 -1263l409 1263h117z" />
<glyph unicode="W" horiz-adv-x="1724" d="M1319 0h-113l-344 1270l-344 -1270h-112l-365 1458h117l307 -1268l340 1268h115l340 -1268l307 1268h116z" />
<glyph unicode="X" horiz-adv-x="1089" d="M924 0l-381 649l-381 -649h-125l446 748l-417 710h129l348 -612l350 612h127l-418 -710l451 -748h-129z" />
<glyph unicode="Y" horiz-adv-x="1011" d="M561 604v-604h-110v604l-431 854h119l371 -737l362 737h119z" />
<glyph unicode="Z" horiz-adv-x="1144" d="M129 0v117l768 1243h-737v98h856v-98l-774 -1262h774v-98h-887z" />
<glyph unicode="[" horiz-adv-x="593" d="M199 -152v1762h303v-92h-199v-1577h199v-93h-303z" />
<glyph unicode="\" horiz-adv-x="692" d="M584 -152l-584 1762h109l583 -1762h-108z" />
<glyph unicode="]" horiz-adv-x="600" d="M92 -152v86h205v1590h-205v86h309v-1762h-309z" />
<glyph unicode="^" d="M793 864l-267 496l-266 -496h-104l323 606h94l324 -606h-104z" />
<glyph unicode="_" d="M0 -328v78h1053v-78h-1053z" />
<glyph unicode="`" horiz-adv-x="1024" d="M489 1208l-217 301h138l198 -301h-119z" />
<glyph unicode="a" horiz-adv-x="1073" d="M778 0v98q-63 -63 -129.5 -86.5t-171.5 -23.5q-111 0 -177.5 20.5t-113.5 69.5q-35 35 -53 86t-18 106q0 135 91 210t253 75h319v111q0 119 -62.5 180t-215.5 61q-104 0 -165 -28.5t-108 -96.5l-75 66q63 88 144 119.5t204 31.5q199 0 291 -84t92 -239v-676h-105z M778 471h-307q-252 0 -252 -199q0 -98 61.5 -145t196.5 -47q68 0 130.5 12t115.5 64q55 51 55 188v127z" />
<glyph unicode="b" horiz-adv-x="1105" d="M965 494q0 -117 -26 -230.5t-101 -189.5q-39 -39 -101.5 -62.5t-140.5 -23.5q-86 0 -156.5 26.5t-136.5 112.5v-127h-104v1458h104v-598q66 86 136.5 112.5t156.5 26.5q78 0 140.5 -23.5t101.5 -62.5q76 -76 101.5 -189t25.5 -230zM860 494q0 76 -9 150.5t-39 133t-85 94 t-145 35.5t-145.5 -35.5t-85 -94t-39 -133.5t-9.5 -150q0 -78 9.5 -152t39 -132t85 -94t145.5 -36t145 36t85 94t39 132t9 152z" />
<glyph unicode="c" horiz-adv-x="1009" d="M901 139q-78 -88 -151.5 -119.5t-174.5 -31.5q-102 0 -182 34.5t-136 100t-86 160t-30 211.5t30 211t86 159.5t136 100t182 34.5q100 0 174 -31.5t152 -119.5l-72 -66q-63 70 -119.5 97.5t-134.5 27.5q-174 0 -262 -131q-37 -53 -52 -117.5t-15 -164.5t15 -165t52 -118 q88 -131 262 -131q78 0 134.5 27.5t119.5 97.5z" />
<glyph unicode="d" horiz-adv-x="1105" d="M803 0v127q-66 -86 -136.5 -112.5t-156.5 -26.5q-78 0 -140.5 23.5t-101.5 62.5q-76 76 -101.5 189.5t-25.5 230.5t26 230.5t101 188.5q39 39 101.5 62.5t140.5 23.5q86 0 156.5 -26.5t136.5 -112.5v598h104v-1458h-104zM803 494q0 76 -9.5 150.5t-39 133t-85 94 t-145.5 35.5t-145 -35.5t-85 -94t-39 -133.5t-9 -150q0 -78 9 -152t39 -132t85 -94t145 -36t145.5 36t85 94t39 132t9.5 152z" />
<glyph unicode="e" horiz-adv-x="1071" d="M246 471q0 -190 81 -289.5t240 -99.5q88 0 148.5 27.5t124.5 91.5l78 -62q-37 -37 -75 -65.5t-80 -48t-91 -28.5t-111 -9q-205 0 -312.5 129t-107.5 377q0 242 104.5 373.5t291.5 131.5q186 0 290.5 -125.5t104.5 -355.5v-47h-686zM827 555q-2 35 -4 60.5t-5 46t-9 39 t-16 40.5q-33 78 -101.5 122t-154.5 44t-154 -44t-102 -122q-10 -23 -16.5 -41t-9.5 -38.5t-5 -46t-4 -60.5h581z" />
<glyph unicode="f" horiz-adv-x="622" d="M334 909v-909h-105v909h-135v78h135v213q0 113 60.5 185.5t177.5 72.5h90v-92h-72q-78 0 -114.5 -43t-36.5 -121v-215h223v-78h-223z" />
<glyph unicode="g" horiz-adv-x="1105" d="M907 -55q0 -92 -26.5 -171t-78.5 -136.5t-127 -89t-171 -31.5q-55 0 -98.5 7t-81 23.5t-72.5 41t-74 59.5l70 69q29 -27 55.5 -47t55 -33.5t63.5 -20.5t82 -7q78 0 134 25.5t93 71.5t54.5 108.5t17.5 136.5v176q-66 -86 -136.5 -112.5t-156.5 -26.5q-78 0 -140.5 23.5 t-101.5 62.5q-76 76 -101.5 189.5t-25.5 230.5t26 230.5t101 188.5q39 39 101.5 62.5t140.5 23.5q86 0 156.5 -26.5t136.5 -112.5v127h104v-1042zM803 494q0 76 -9.5 150.5t-39 133t-85 94t-145.5 35.5t-145 -35.5t-85 -94t-39 -133.5t-9 -150q0 -78 9 -152t39 -132t85 -94 t145 -36t145.5 36t85 94t39 132t9.5 152z" />
<glyph unicode="h" horiz-adv-x="1144" d="M854 0v612q0 143 -68.5 219t-203.5 76t-207 -75.5t-72 -219.5v-612h-104v1458h104v-588q111 129 291 129q172 0 268 -97t96 -271v-631h-104z" />
<glyph unicode="i" horiz-adv-x="501" d="M199 0v987h104v-987h-104zM186 1329v129h129v-129h-129z" />
<glyph unicode="j" horiz-adv-x="501" d="M303 -215q0 -117 -57.5 -186.5t-179.5 -69.5h-91v92h72q88 0 120 40t32 126v1200h104v-1202zM186 1329v129h129v-129h-129z" />
<glyph unicode="k" horiz-adv-x="1079" d="M868 0l-340 543l-225 -260v-283h-104v1458h104v-1028l490 557h133l-326 -369l397 -618h-129z" />
<glyph unicode="l" horiz-adv-x="587" d="M432 0q-123 0 -180 69.5t-57 186.5v1202h104v-1200q0 -86 31.5 -126t120.5 -40h71v-92h-90z" />
<glyph unicode="m" horiz-adv-x="1798" d="M1509 0v612q0 143 -68.5 219t-203.5 76q-129 0 -204 -73.5t-75 -202.5v-631h-104v612q0 143 -68.5 219t-203.5 76t-207 -76.5t-72 -218.5v-612h-104v987h104v-117q111 129 293 129q111 0 191.5 -46t125.5 -134q55 88 140.5 134t195.5 46q82 0 147.5 -24.5t112.5 -69.5 q104 -100 105 -274v-631h-105z" />
<glyph unicode="n" horiz-adv-x="1144" d="M854 0v612q0 143 -68.5 219t-203.5 76t-207 -76.5t-72 -218.5v-612h-104v987h104v-117q111 129 291 129q166 0 262 -94q102 -98 102 -274v-631h-104z" />
<glyph unicode="o" horiz-adv-x="1077" d="M936 494q0 -106 -22.5 -213t-100.5 -185q-109 -109 -274 -108q-166 0 -275 108q-78 78 -100.5 184.5t-22.5 213.5q0 106 22.5 212.5t100.5 184.5q109 109 275 108q166 0 274 -108q78 -78 100.5 -184.5t22.5 -212.5zM831 494q0 43 -2 88t-11 89t-26.5 83t-48.5 69 q-84 84 -204 84q-121 0 -205 -84q-31 -31 -48.5 -69.5t-26.5 -82.5t-11 -89t-2 -88t2 -88.5t11 -89.5t26.5 -82.5t48.5 -69.5q84 -84 205 -84t204 84q31 31 48.5 69.5t26.5 82.5t11 89.5t2 88.5z" />
<glyph unicode="p" horiz-adv-x="1105" d="M965 494q0 -117 -26 -230.5t-101 -189.5q-39 -39 -101.5 -62.5t-140.5 -23.5q-86 0 -156.5 26.5t-136.5 112.5v-598h-104v1458h104v-127q66 86 136.5 112.5t156.5 26.5q78 0 140.5 -23.5t101.5 -62.5q76 -76 101.5 -189t25.5 -230zM860 494q0 76 -9 150.5t-39 133t-85 94 t-145 35.5t-145.5 -35.5t-85 -94t-39 -133.5t-9.5 -150q0 -78 9.5 -152t39 -132t85 -94t145.5 -36t145 36t85 94t39 132t9 152z" />
<glyph unicode="q" horiz-adv-x="1105" d="M803 -471v598q-66 -86 -136.5 -112.5t-156.5 -26.5q-78 0 -140.5 23.5t-101.5 62.5q-76 76 -101.5 189.5t-25.5 230.5t26 230.5t101 188.5q39 39 101.5 62.5t140.5 23.5q86 0 156.5 -26.5t136.5 -112.5v127h104v-1458h-104zM803 494q0 76 -9.5 150.5t-39 133t-85 94 t-145.5 35.5t-145 -35.5t-85 -94t-39 -133.5t-9 -150q0 -78 9 -152t39 -132t85 -94t145 -36t145.5 36t85 94t39 132t9.5 152z" />
<glyph unicode="r" horiz-adv-x="837" d="M754 829q-45 45 -85 61.5t-102 16.5q-63 0 -112 -24.5t-83 -65.5t-51.5 -95t-17.5 -114v-608h-104v987h104v-131q43 70 122 106.5t167 36.5q72 0 128 -20.5t109 -73.5z" />
<glyph unicode="s" horiz-adv-x="1011" d="M897 281q0 -135 -105.5 -214t-289.5 -79q-129 0 -226.5 34.5t-173.5 106.5l72 72q115 -121 324 -121q297 0 297 201q0 78 -45 116.5t-144 48.5l-164 15q-297 25 -297 258q0 129 96.5 204.5t258.5 75.5q104 0 192 -27.5t154 -76.5l-70 -70q-115 84 -276 84 q-123 0 -187.5 -49t-64.5 -141q0 -78 48 -117t153 -49l159 -14q61 -6 114.5 -20.5t91.5 -43.5t60.5 -75.5t22.5 -118.5z" />
<glyph unicode="t" horiz-adv-x="665" d="M461 0q-117 0 -177.5 72.5t-60.5 185.5v651h-135v78h135v316h105v-316h223v-78h-223v-653q0 -78 36.5 -121t114.5 -43h72v-92h-90z" />
<glyph unicode="u" horiz-adv-x="1144" d="M842 0v117q-111 -129 -291 -129q-166 0 -262 94q-102 98 -103 274v631h105v-612q0 -143 68.5 -219t203.5 -76t207 76.5t72 218.5v612h104v-987h-104z" />
<glyph unicode="v" horiz-adv-x="880" d="M492 0h-103l-360 987h114l297 -864l297 864h115z" />
<glyph unicode="w" horiz-adv-x="1458" d="M1114 0h-106l-279 823l-278 -823h-107l-315 987h114l252 -864l283 864h102l283 -864l252 864h115z" />
<glyph unicode="x" horiz-adv-x="942" d="M733 0l-260 416l-264 -416h-127l334 504l-320 483h127l250 -397l246 397h127l-320 -483l334 -504h-127z" />
<glyph unicode="y" horiz-adv-x="880" d="M393 -268q-29 -82 -67 -115q-37 -35 -87.5 -49t-99.5 -14h-49v92h39q43 0 70.5 7t48 23.5t35 42t26.5 62.5l80 219l-360 987h114l297 -864l297 864h115z" />
<glyph unicode="z" horiz-adv-x="925" d="M111 0v98l594 797h-562v92h672v-98l-596 -797h596v-92h-704z" />
<glyph unicode="{" horiz-adv-x="647" d="M516 -152q-76 0 -122 12.5t-77 43.5q-29 29 -41 69.5t-12 124.5v424q0 86 -37 123q-16 16 -37.5 27.5t-50.5 11.5h-37v90h37q29 0 50.5 11.5t37.5 27.5q37 37 37 123v424q0 84 12.5 125t40.5 69q31 31 77 43.5t122 12.5h29v-92h-27q-55 0 -79.5 -5.5t-41.5 -21.5 q-16 -16 -22 -46t-6 -87v-424q0 -80 -30 -126t-95 -79q66 -33 95.5 -79t29.5 -126v-424q0 -57 6 -86.5t22 -46.5q16 -16 41 -21t80 -5h27v-93h-29z" />
<glyph unicode="|" horiz-adv-x="649" d="M272 -152v1762h105v-1762h-105z" />
<glyph unicode="}" horiz-adv-x="647" d="M508 684q-29 0 -50.5 -11t-37.5 -28q-37 -37 -37 -123v-424q0 -84 -12.5 -125t-40.5 -69q-31 -31 -77 -43.5t-122 -12.5h-29v93h27q55 0 79.5 5t41.5 21q16 16 22.5 46t6.5 87v424q0 80 29.5 126t94.5 79q-66 33 -95 79t-29 126v424q0 57 -6.5 87t-22.5 46t-41 21.5 t-80 5.5h-27v92h29q76 0 122 -12.5t77 -43.5q29 -29 41 -69.5t12 -124.5v-424q0 -86 37 -123q16 -16 37.5 -27.5t50.5 -11.5h37v-90h-37z" />
<glyph unicode="~" d="M944 567q-41 -41 -72.5 -66.5t-58.5 -38.5t-51.5 -17.5t-54.5 -4.5q-51 0 -103 21l-106 43l-79 33q-36 14 -77 14q-23 0 -40 -3t-35.5 -12.5t-41 -28t-53.5 -48.5l-63 63q41 41 72.5 66.5t58 39t51 17.5t55.5 4q51 0 103 -20l106 -43l79 -33q36 -14 77 -14q23 0 40 3 t35.5 12t41 27.5t53.5 49.5z" />
<glyph unicode="&#xa1;" horiz-adv-x="622" d="M225 -471l6 1065h101l6 -1065h-113zM213 850v137h137v-137h-137z" />
<glyph unicode="&#xa2;" horiz-adv-x="1019" d="M901 395q-37 -41 -71.5 -69.5t-70.5 -46t-75 -25.5t-86 -10v-244h-88v248q-174 23 -271.5 153.5t-97.5 348.5q0 217 97.5 348t271.5 153v207h88v-203q94 -4 160.5 -36.5t142.5 -114.5l-72 -66q-59 66 -110 93.5t-121 31.5v-827q70 4 121 31.5t110 93.5zM510 1157 q-125 -20 -197 -125q-37 -53 -52 -117.5t-15 -164.5t15 -165t52 -118q72 -104 197 -125v815z" />
<glyph unicode="&#xa3;" horiz-adv-x="1099" d="M233 0v700h-131v78h131v250q0 100 31 181t87.5 139.5t137 90t179.5 31.5q195 0 319 -124l-76 -76q-41 41 -94 71.5t-149 30.5q-160 0 -242 -94t-82 -272v-228h324v-78h-324v-602h643v-98h-754z" />
<glyph unicode="&#xa4;" horiz-adv-x="1345" d="M1116 543q0 -80 -24.5 -152t-71.5 -129l151 -151l-65 -66l-154 152q-117 -98 -280 -99q-164 0 -281 99l-151 -152l-66 66l152 151q-98 117 -99 281q0 80 26 152.5t73 129.5l-152 150l66 65l151 -149q57 47 129 71.5t152 24.5t151.5 -24.5t128.5 -71.5l154 149l65 -65 l-151 -150q47 -57 71.5 -129.5t24.5 -152.5zM1018 543q0 72 -26.5 135t-74 110.5t-111 74t-134.5 26.5q-72 0 -135.5 -26.5t-110.5 -74t-73.5 -111t-26.5 -134.5q0 -72 26.5 -135.5t73.5 -110.5t110.5 -73.5t135.5 -26.5t135 26.5t110.5 73.5t74 110.5t26.5 135.5z" />
<glyph unicode="&#xa5;" horiz-adv-x="1009" d="M655 791h222v-78h-261l-55 -109v-108h316v-78h-316v-418h-110v418h-318v78h318v108l-56 109h-262v78h223l-336 667h117l371 -739l366 739h115z" />
<glyph unicode="&#xa6;" horiz-adv-x="671" d="M272 -152v717h105v-717h-105zM272 893v717h105v-717h-105z" />
<glyph unicode="&#xa7;" horiz-adv-x="1159" d="M961 506q0 -66 -18.5 -120t-49.5 -98t-72 -77t-86 -53q98 -33 154.5 -111t56.5 -188q0 -74 -26.5 -137.5t-75.5 -108.5t-117 -70.5t-147 -25.5q-78 0 -143.5 21.5t-116 61.5t-81 99t-36.5 135h110q10 -111 80 -165t187 -54t186.5 62.5t69.5 181.5q0 82 -52.5 143 t-140.5 86l-170 47q-131 37 -202.5 136.5t-71.5 234.5q0 63 18.5 118.5t49 99.5t71.5 77t86 53q-98 41 -150.5 108.5t-52.5 180.5q0 76 29 137t77 103t113.5 64.5t139.5 22.5q72 0 136 -20t113.5 -59t80 -97.5t34.5 -132.5h-108q-10 117 -77 165t-179 48q-117 0 -183.5 -57 t-66.5 -174q0 -94 53 -145.5t133 -73.5l170 -47q129 -37 202 -137.5t73 -233.5zM850 506q0 59 -13.5 110.5t-58.5 96.5q-84 84 -198 84q-121 0 -199 -84q-41 -45 -56.5 -93.5t-15.5 -113.5q0 -70 18.5 -120t53.5 -87q78 -84 199 -84t198 84q35 39 53.5 87t18.5 120z" />
<glyph unicode="&#xa8;" horiz-adv-x="1024" d="M240 1229v157h118v-157h-118zM666 1229v157h118v-157h-118z" />
<glyph unicode="&#xa9;" horiz-adv-x="1830" d="M1657 729q0 -154 -58.5 -289t-159 -235.5t-235.5 -158.5t-289 -58t-288.5 58t-235 158.5t-159 235.5t-58.5 289t58.5 289t159 235.5t235.5 158.5t288 58q154 0 289 -58t235.5 -158.5t159 -235.5t58.5 -289zM1559 729q0 131 -51.5 250t-138.5 208t-204.5 141t-249.5 52 q-133 0 -249.5 -52t-203.5 -141t-138.5 -208t-51.5 -250q0 -133 51.5 -251t138.5 -207t203.5 -141t249.5 -52q131 0 249 52t205 141t138.5 207t51.5 251zM1192 414q-59 -53 -120.5 -80t-147.5 -27q-94 0 -163 34t-113 91t-65.5 134t-21.5 163t21.5 163t65.5 135t112.5 92 t163.5 34q86 0 145 -25.5t123 -83.5l-62 -61q-55 49 -100 67.5t-106 18.5q-78 0 -130.5 -27.5t-83 -74.5t-44 -108.5t-13.5 -129.5t13.5 -129t44 -107.5t83 -74t130.5 -27.5q61 0 106 17.5t100 66.5z" />
<glyph unicode="&#xaa;" horiz-adv-x="915" d="M641 670v73q-49 -47 -101.5 -65.5t-131.5 -18.5q-86 0 -138.5 15.5t-91.5 56.5q-29 29 -43 69t-14 85q0 111 71.5 169t200.5 58h248v86q0 92 -49 139t-166 47q-82 0 -129 -21.5t-84 -76.5l-66 55q53 72 119 97.5t160 25.5q154 0 228.5 -67.5t74.5 -190.5v-536h-88z M641 1040h-238q-195 0 -194 -153q0 -76 47 -112t152 -36q53 0 102 9.5t90 48.5q41 41 41 147v96z" />
<glyph unicode="&#xab;" horiz-adv-x="1079" d="M86 543l401 401v-135l-266 -266l266 -267v-135zM510 543l401 401v-135l-266 -266l266 -267v-135z" />
<glyph unicode="&#xac;" d="M848 219v273h-739v96h835v-369h-96z" />
<glyph unicode="&#xad;" horiz-adv-x="872" d="M168 492v96h537v-96h-537z" />
<glyph unicode="&#xae;" horiz-adv-x="1830" d="M1657 729q0 -154 -58.5 -289t-159 -235.5t-235.5 -158.5t-289 -58t-288.5 58t-235 158.5t-159 235.5t-58.5 289t58.5 289t159 235.5t235.5 158.5t288 58q154 0 289 -58t235.5 -158.5t159 -235.5t58.5 -289zM1561 729q0 133 -51.5 252t-138.5 208t-204.5 141t-251.5 52 q-133 0 -250.5 -52t-204.5 -141t-138.5 -208t-51.5 -252t51.5 -252t138.5 -208t204.5 -141t250.5 -52t251 52t205 141t138.5 208t51.5 252zM909 662h-135v-343h-92v822h262q51 0 97 -18.5t81 -50.5t55.5 -77t20.5 -96q0 -92 -52 -149.5t-134 -79.5l207 -351h-107zM1106 899 q0 68 -49 113t-123 45h-160v-314h160q74 0 123 44t49 112z" />
<glyph unicode="&#xaf;" horiz-adv-x="1024" d="M209 1249v94h606v-94h-606z" />
<glyph unicode="&#xb0;" horiz-adv-x="937" d="M791 1151q0 -68 -26 -126t-69 -101t-101 -69t-126 -26t-126 26t-101 69t-69 101t-26 126t26 126t69 101t101 69t126 26t126 -26t101 -69t69 -101t26 -126zM698 1151q0 49 -17 92t-49 75t-74 50t-91 18t-91 -17t-72 -49t-47 -75t-17 -94t17 -94t48 -75t73 -49.5t91 -17.5 t91 17.5t73 49.5t48 75t17 94z" />
<glyph unicode="&#xb1;" d="M575 553v-373h-96v373h-370v96h370v371h96v-371h369v-96h-369zM109 0v96h835v-96h-835z" />
<glyph unicode="&#xb2;" horiz-adv-x="641" d="M90 584v82l344 436q47 63 47 127q0 72 -39 113.5t-110 41.5q-59 0 -105.5 -34.5t-46.5 -120.5h-90q0 104 65.5 170.5t176.5 66.5t176 -63.5t65 -173.5q0 -53 -16 -92t-53 -86l-305 -385h374v-82h-483z" />
<glyph unicode="&#xb3;" horiz-adv-x="641" d="M578 823q0 -61 -19.5 -107t-54.5 -78t-82 -48.5t-100 -16.5t-99.5 14.5t-81.5 43t-56.5 73t-23.5 103.5h93q4 -82 54 -117t114 -35q72 0 118.5 44t46.5 124q0 78 -39.5 122t-132.5 44h-16v80h16q80 0 118 42t38 116q0 78 -44 117.5t-108 39.5q-70 0 -109.5 -38.5 t-45.5 -104.5h-90q8 106 76.5 165.5t168.5 59.5q111 0 176.5 -63.5t65.5 -173.5q0 -143 -117 -195q134 -49 134 -211z" />
<glyph unicode="&#xb4;" horiz-adv-x="1024" d="M535 1208h-119l198 301h138z" />
<glyph unicode="&#xb5;" horiz-adv-x="1138" d="M836 0v117q-111 -129 -291 -129q-162 0 -260 92v-551h-105v1458h105v-612q0 -143 68.5 -219t203.5 -76t207 76.5t72 218.5v612h104v-987h-104z" />
<glyph unicode="&#xb6;" horiz-adv-x="1185" d="M856 -471v1831h-252v-1831h-104v1151q-98 0 -174 34t-128.5 89t-79 124.5t-26.5 141.5q0 76 27.5 145.5t83 124t136.5 87t185 32.5h437v-1929h-105z" />
<glyph unicode="&#xb7;" horiz-adv-x="540" d="M195 465v151h151v-151h-151z" />
<glyph unicode="&#xb8;" horiz-adv-x="1024" d="M500 -451h-129l147 308h113z" />
<glyph unicode="&#xb9;" horiz-adv-x="641" d="M311 584v774l-164 -146v105l164 141h90v-874h-90z" />
<glyph unicode="&#xba;" horiz-adv-x="925" d="M778 1063q0 -86 -17.5 -169t-80.5 -146q-86 -86 -217 -86t-217 86q-63 63 -81 146t-18 169t17.5 169t81.5 146q86 86 217 86t217 -86q63 -63 80.5 -146t17.5 -169zM690 1063q0 66 -10 137.5t-57 118.5q-66 66 -160 65q-94 0 -160 -65q-47 -47 -57 -119t-10 -137 q0 -66 10 -137.5t57 -118.5q31 -31 72 -48.5t88 -17.5t88 17.5t72 48.5q47 47 57 118.5t10 137.5z" />
<glyph unicode="&#xbb;" horiz-adv-x="1079" d="M168 141v135l266 267l-266 266v135l401 -401zM592 141v135l266 267l-266 266v135l401 -401z" />
<glyph unicode="&#xbc;" horiz-adv-x="1644" d="M311 584v774l-164 -146v105l164 141h90v-874h-90zM528 0h-92l680 1458h92zM1491 137v-137h-90v137h-348v82l315 655h96l-313 -655h250v246h90v-246h106v-82h-106z" />
<glyph unicode="&#xbd;" horiz-adv-x="1644" d="M311 584v774l-164 -146v105l164 141h90v-874h-90zM528 0h-92l680 1458h92zM1094 0v82l344 436q47 63 47 127q0 72 -39 114t-111 42q-59 0 -105 -35t-46 -121h-90q0 104 65.5 171t175.5 67q111 0 176.5 -63.5t65.5 -174.5q0 -53 -16.5 -92t-53.5 -86l-305 -385h375v-82 h-483z" />
<glyph unicode="&#xbe;" horiz-adv-x="1644" d="M578 825q0 -61 -19.5 -107t-54.5 -78t-82 -48.5t-100 -16.5t-99.5 14.5t-81.5 43.5t-56.5 73t-23.5 103h93q4 -82 54 -117t114 -35q70 0 117.5 45.5t47.5 122.5q0 78 -42 122t-130 44h-16v80h16q78 0 117 42t39 114q0 78 -46 117.5t-106 39.5q-70 0 -109.5 -38.5 t-45.5 -104.5h-90q8 106 76.5 165.5t168.5 59.5q111 0 176.5 -63.5t65.5 -173.5q0 -141 -117 -193q134 -49 134 -211zM528 0h-92l680 1458h92zM1491 137v-137h-90v137h-348v82l315 655h96l-313 -655h250v246h90v-246h106v-82h-106z" />
<glyph unicode="&#xbf;" horiz-adv-x="999" d="M836 -123q0 -74 -27 -139.5t-75 -114.5t-115.5 -77.5t-149.5 -28.5q-78 0 -145.5 27.5t-116.5 75.5t-77 113.5t-28 143.5q0 72 25 128t66 116l174 256q20 29 28 63.5t8 59.5v96h105v-92q0 -59 -14.5 -99t-44.5 -86l-173 -253q-31 -47 -50 -88t-19 -101q0 -57 19.5 -106.5 t55 -85t84 -56t103.5 -20.5q59 0 108.5 21.5t83 58.5t52 86t18.5 102h105zM387 850v137h137v-137h-137z" />
<glyph unicode="&#xc0;" horiz-adv-x="1232" d="M1083 0l-127 354h-680l-126 -354h-119l536 1458h99l536 -1458h-119zM311 453h611l-306 858zM594 1597l-217 301h137l199 -301h-119z" />
<glyph unicode="&#xc1;" horiz-adv-x="1232" d="M1083 0l-127 354h-680l-126 -354h-119l536 1458h99l536 -1458h-119zM311 453h611l-306 858zM639 1597h-119l199 301h137z" />
<glyph unicode="&#xc2;" horiz-adv-x="1232" d="M1083 0l-127 354h-680l-126 -354h-119l536 1458h99l536 -1458h-119zM311 453h611l-306 858zM807 1597l-191 224l-190 -224h-117l252 301h111l252 -301h-117z" />
<glyph unicode="&#xc3;" horiz-adv-x="1232" d="M1083 0l-127 354h-680l-126 -354h-119l536 1458h99l536 -1458h-119zM311 453h611l-306 858zM922 1726q-35 -35 -63 -55t-50.5 -29.5t-38.5 -11.5t-31 -2q-35 0 -64.5 10.5t-76.5 38.5q-29 16 -56.5 29.5t-58.5 13.5q-25 0 -49 -10t-72 -57l-61 59q35 35 62.5 55.5 t49 29.5t39 11t31.5 2q45 0 75 -13t67 -36q33 -20 58.5 -31.5t55.5 -11.5q23 0 48.5 10.5t72.5 57.5z" />
<glyph unicode="&#xc4;" horiz-adv-x="1232" d="M1083 0l-127 354h-680l-126 -354h-119l536 1458h99l536 -1458h-119zM311 453h611l-306 858zM344 1618v158h119v-158h-119zM770 1618v158h119v-158h-119z" />
<glyph unicode="&#xc5;" horiz-adv-x="1232" d="M1083 0l-127 354h-680l-126 -354h-119l536 1458h99l536 -1458h-119zM311 453h611l-306 858zM850 1763q0 -49 -18.5 -91t-50 -74.5t-73.5 -51t-92 -18.5q-49 0 -91 18.5t-73.5 51t-50 74.5t-18.5 91t18.5 91t50 74t73.5 50.5t91 18.5t91.5 -18.5t74 -50.5t50 -74t18.5 -91 zM766 1763q0 61 -44 104.5t-106 43.5q-61 0 -105 -43t-44 -105q0 -61 44 -105t105 -44t105.5 44t44.5 105z" />
<glyph unicode="&#xc6;" horiz-adv-x="1845" d="M848 0v354h-522l-185 -354h-121l773 1458h938v-98h-775v-582h660v-98h-660v-582h775v-98h-883zM848 1360l-475 -907h475v907z" />
<glyph unicode="&#xc7;" horiz-adv-x="1318" d="M1163 414q-18 -98 -61 -177t-107.5 -134.5t-147.5 -85t-179 -29.5q-111 0 -200 36.5t-155 102.5q-51 51 -79.5 101.5t-43 118t-18.5 158.5t-4 224t4 224t18.5 159t43 118t79.5 101q66 66 155 102.5t200 36.5q199 0 328.5 -113.5t166.5 -312.5h-112q-33 154 -134.5 241 t-248.5 87q-164 0 -277 -112q-39 -39 -61.5 -84.5t-33.5 -105.5t-14 -143t-3 -198t3 -197.5t14 -143t33.5 -105.5t61.5 -84q113 -113 277 -113q147 0 250.5 87t136.5 241h108zM618 -451h-129l148 308h113z" />
<glyph unicode="&#xc8;" horiz-adv-x="1224" d="M225 0v1458h885v-98h-774v-576h659v-98h-659v-588h774v-98h-885zM621 1597l-218 301h138l198 -301h-118z" />
<glyph unicode="&#xc9;" horiz-adv-x="1224" d="M225 0v1458h885v-98h-774v-576h659v-98h-659v-588h774v-98h-885zM666 1597h-119l198 301h138z" />
<glyph unicode="&#xca;" horiz-adv-x="1224" d="M225 0v1458h885v-98h-774v-576h659v-98h-659v-588h774v-98h-885zM834 1597l-191 224l-190 -224h-117l252 301h110l252 -301h-116z" />
<glyph unicode="&#xcb;" horiz-adv-x="1224" d="M225 0v1458h885v-98h-774v-576h659v-98h-659v-588h774v-98h-885zM371 1618v158h118v-158h-118zM797 1618v158h118v-158h-118z" />
<glyph unicode="&#xcc;" horiz-adv-x="561" d="M225 0v1458h111v-1458h-111zM231 1597l-217 301h138l198 -301h-119z" />
<glyph unicode="&#xcd;" horiz-adv-x="561" d="M330 1597h-119l199 301h137zM225 0v1458h111v-1458h-111z" />
<glyph unicode="&#xce;" horiz-adv-x="561" d="M225 0v1458h111v-1458h-111zM475 1597l-190 224l-191 -224h-117l252 301h111l252 -301h-117z" />
<glyph unicode="&#xcf;" horiz-adv-x="561" d="M225 0v1458h111v-1458h-111zM8 1618v158h119v-158h-119zM434 1618v158h119v-158h-119z" />
<glyph unicode="&#xd0;" horiz-adv-x="1411" d="M1243 729q0 -82 -2 -166t-16.5 -161.5t-43 -147.5t-79.5 -121q-133 -133 -365 -133h-489v692h-166v86h166v680h489q231 0 365 -133q51 -53 79.5 -121.5t43 -147.5t16.5 -162t2 -165zM1133 729q0 72 -2.5 145.5t-12.5 142t-31.5 128t-62.5 102.5q-63 66 -144 89.5 t-169 23.5h-353v-582h365v-86h-365v-594h353q88 0 169 23.5t144 89.5q41 43 62.5 102.5t31.5 128t12.5 142t2.5 145.5z" />
<glyph unicode="&#xd1;" horiz-adv-x="1513" d="M1178 0l-842 1268v-1268h-111v1458h111l842 -1263v1263h110v-1458h-110zM1063 1726q-35 -35 -62.5 -55t-50 -29.5t-39 -11.5t-30.5 -2q-35 0 -65 10.5t-77 38.5q-29 16 -56.5 29.5t-57.5 13.5q-25 0 -49.5 -10t-71.5 -57l-62 59q35 35 62.5 55.5t49 29.5t39 11t32.5 2 q45 0 74.5 -13t66.5 -36q33 -20 58.5 -31.5t56.5 -11.5q23 0 48 10.5t72 57.5z" />
<glyph unicode="&#xd2;" horiz-adv-x="1335" d="M1167 729q0 -133 -4 -224t-18.5 -158.5t-43 -118t-79.5 -101.5q-66 -66 -155 -102.5t-199 -36.5q-111 0 -200 36.5t-155 102.5q-51 51 -79.5 101.5t-43 118t-18.5 158.5t-4 224t4 224t18.5 159t43 118t79.5 101q66 66 155 102.5t200 36.5t199.5 -36.5t154.5 -102.5 q51 -51 79.5 -101t43 -118t18.5 -159t4 -224zM1057 729q0 115 -3 198t-14.5 143t-34 105.5t-61.5 84.5q-113 113 -276 112q-164 0 -277 -112q-39 -39 -61.5 -84.5t-33.5 -105.5t-14 -143t-3 -198t3 -197.5t14 -143t33.5 -105.5t61.5 -84q113 -113 277 -113t276 113 q39 39 61.5 84t34 105.5t14.5 143t3 197.5zM645 1597l-217 301h137l199 -301h-119z" />
<glyph unicode="&#xd3;" horiz-adv-x="1335" d="M1167 729q0 -133 -4 -224t-18.5 -158.5t-43 -118t-79.5 -101.5q-66 -66 -155 -102.5t-199 -36.5q-111 0 -200 36.5t-155 102.5q-51 51 -79.5 101.5t-43 118t-18.5 158.5t-4 224t4 224t18.5 159t43 118t79.5 101q66 66 155 102.5t200 36.5t199.5 -36.5t154.5 -102.5 q51 -51 79.5 -101t43 -118t18.5 -159t4 -224zM1057 729q0 115 -3 198t-14.5 143t-34 105.5t-61.5 84.5q-113 113 -276 112q-164 0 -277 -112q-39 -39 -61.5 -84.5t-33.5 -105.5t-14 -143t-3 -198t3 -197.5t14 -143t33.5 -105.5t61.5 -84q113 -113 277 -113t276 113 q39 39 61.5 84t34 105.5t14.5 143t3 197.5zM690 1597h-119l199 301h137z" />
<glyph unicode="&#xd4;" horiz-adv-x="1335" d="M1167 729q0 -133 -4 -224t-18.5 -158.5t-43 -118t-79.5 -101.5q-66 -66 -155 -102.5t-199 -36.5q-111 0 -200 36.5t-155 102.5q-51 51 -79.5 101.5t-43 118t-18.5 158.5t-4 224t4 224t18.5 159t43 118t79.5 101q66 66 155 102.5t200 36.5t199.5 -36.5t154.5 -102.5 q51 -51 79.5 -101t43 -118t18.5 -159t4 -224zM1057 729q0 115 -3 198t-14.5 143t-34 105.5t-61.5 84.5q-113 113 -276 112q-164 0 -277 -112q-39 -39 -61.5 -84.5t-33.5 -105.5t-14 -143t-3 -198t3 -197.5t14 -143t33.5 -105.5t61.5 -84q113 -113 277 -113t276 113 q39 39 61.5 84t34 105.5t14.5 143t3 197.5zM858 1597l-190 224l-191 -224h-117l252 301h111l252 -301h-117z" />
<glyph unicode="&#xd5;" horiz-adv-x="1335" d="M1167 729q0 -133 -4 -224t-18.5 -158.5t-43 -118t-79.5 -101.5q-66 -66 -155 -102.5t-199 -36.5q-111 0 -200 36.5t-155 102.5q-51 51 -79.5 101.5t-43 118t-18.5 158.5t-4 224t4 224t18.5 159t43 118t79.5 101q66 66 155 102.5t200 36.5t199.5 -36.5t154.5 -102.5 q51 -51 79.5 -101t43 -118t18.5 -159t4 -224zM1057 729q0 115 -3 198t-14.5 143t-34 105.5t-61.5 84.5q-113 113 -276 112q-164 0 -277 -112q-39 -39 -61.5 -84.5t-33.5 -105.5t-14 -143t-3 -198t3 -197.5t14 -143t33.5 -105.5t61.5 -84q113 -113 277 -113t276 113 q39 39 61.5 84t34 105.5t14.5 143t3 197.5zM973 1726q-35 -35 -62.5 -55t-50 -29.5t-39 -11.5t-30.5 -2q-35 0 -65 10.5t-77 38.5q-29 16 -56.5 29.5t-57.5 13.5q-25 0 -49.5 -10t-71.5 -57l-62 59q35 35 62.5 55.5t49 29.5t39 11t32.5 2q45 0 74.5 -13t66.5 -36 q33 -20 58.5 -31.5t56.5 -11.5q23 0 48 10.5t72 57.5z" />
<glyph unicode="&#xd6;" horiz-adv-x="1335" d="M1167 729q0 -133 -4 -224t-18.5 -158.5t-43 -118t-79.5 -101.5q-66 -66 -155 -102.5t-199 -36.5q-111 0 -200 36.5t-155 102.5q-51 51 -79.5 101.5t-43 118t-18.5 158.5t-4 224t4 224t18.5 159t43 118t79.5 101q66 66 155 102.5t200 36.5t199.5 -36.5t154.5 -102.5 q51 -51 79.5 -101t43 -118t18.5 -159t4 -224zM1057 729q0 115 -3 198t-14.5 143t-34 105.5t-61.5 84.5q-113 113 -276 112q-164 0 -277 -112q-39 -39 -61.5 -84.5t-33.5 -105.5t-14 -143t-3 -198t3 -197.5t14 -143t33.5 -105.5t61.5 -84q113 -113 277 -113t276 113 q39 39 61.5 84t34 105.5t14.5 143t3 197.5zM395 1618v158h119v-158h-119zM821 1618v158h119v-158h-119z" />
<glyph unicode="&#xd7;" d="M844 160l-318 317l-317 -317l-64 63l318 318l-318 317l64 64l317 -318l318 318l63 -64l-317 -317l317 -318z" />
<glyph unicode="&#xd8;" horiz-adv-x="1335" d="M1167 729q0 -133 -4 -224t-18.5 -158.5t-43 -118t-79.5 -101.5q-66 -66 -155 -102.5t-199 -36.5q-78 0 -143.5 18.5t-123.5 52.5l-71 -149h-109l101 209q-55 53 -86 105t-46.5 120t-18.5 160t-3 225t4 224t18.5 159t43 118t79.5 101q66 66 155 102.5t200 36.5 q76 0 143.5 -18t122.5 -53l72 149h108l-100 -209q55 -53 85.5 -105t46 -119.5t18.5 -160t3 -225.5zM889 1305q-98 68 -221 67q-164 0 -277 -112q-39 -39 -61.5 -84.5t-33.5 -105.5t-14 -143t-3 -198q0 -109 2 -187.5t11 -137t27.5 -102.5t51.5 -81zM1057 729q0 106 -3 185 t-12.5 138.5t-28 103.5t-48.5 81l-519 -1083q98 -68 222 -68q164 0 276 113q39 39 61.5 84t34 105.5t14.5 143t3 197.5z" />
<glyph unicode="&#xd9;" horiz-adv-x="1409" d="M1204 473q0 -106 -37 -195.5t-103.5 -154t-157.5 -100t-201 -35.5q-111 0 -202 35.5t-157.5 100t-103.5 154t-37 195.5v985h110v-971q0 -90 28 -164.5t79 -127t122.5 -81t160.5 -28.5q88 0 159.5 28.5t122.5 81t79 127t28 164.5v971h110v-985zM682 1597l-217 301h137 l199 -301h-119z" />
<glyph unicode="&#xda;" horiz-adv-x="1409" d="M1204 473q0 -106 -37 -195.5t-103.5 -154t-157.5 -100t-201 -35.5q-111 0 -202 35.5t-157.5 100t-103.5 154t-37 195.5v985h110v-971q0 -90 28 -164.5t79 -127t122.5 -81t160.5 -28.5q88 0 159.5 28.5t122.5 81t79 127t28 164.5v971h110v-985zM727 1597h-119l199 301h137 z" />
<glyph unicode="&#xdb;" horiz-adv-x="1409" d="M1204 473q0 -106 -37 -195.5t-103.5 -154t-157.5 -100t-201 -35.5q-111 0 -202 35.5t-157.5 100t-103.5 154t-37 195.5v985h110v-971q0 -90 28 -164.5t79 -127t122.5 -81t160.5 -28.5q88 0 159.5 28.5t122.5 81t79 127t28 164.5v971h110v-985zM895 1597l-190 224 l-191 -224h-117l252 301h111l252 -301h-117z" />
<glyph unicode="&#xdc;" horiz-adv-x="1409" d="M1204 473q0 -106 -37 -195.5t-103.5 -154t-157.5 -100t-201 -35.5q-111 0 -202 35.5t-157.5 100t-103.5 154t-37 195.5v985h110v-971q0 -90 28 -164.5t79 -127t122.5 -81t160.5 -28.5q88 0 159.5 28.5t122.5 81t79 127t28 164.5v971h110v-985zM432 1618v158h119v-158 h-119zM858 1618v158h119v-158h-119z" />
<glyph unicode="&#xdd;" horiz-adv-x="1011" d="M561 604v-604h-110v604l-431 854h119l371 -737l362 737h119zM528 1597h-118l198 301h137z" />
<glyph unicode="&#xde;" horiz-adv-x="1323" d="M1200 735q0 -100 -33.5 -178t-92 -132t-139.5 -82t-175 -28h-424v-315h-111v1458h111v-303h424q94 0 175 -27.5t139.5 -82t92 -132.5t33.5 -178zM1090 735q0 164 -95.5 243t-246.5 79h-412v-643h412q152 0 247 78.5t95 242.5z" />
<glyph unicode="&#xdf;" horiz-adv-x="1126" d="M969 274q0 -66 -21.5 -118t-58.5 -86q-41 -37 -85 -53.5t-110 -16.5h-110v92h90q49 0 76.5 11.5t56.5 33.5q57 45 57 150v364q0 49 -10 82t-37 58q-47 47 -133 47h-100v92h80q92 0 146 57t54 152q0 51 -17.5 95t-53.5 79q-72 66 -213 65q-147 0 -212 -85t-65 -220v-1073 h-104v1073q0 186 103.5 291.5t289.5 105.5q76 0 144.5 -19t119.5 -60t81 -103.5t30 -148.5q0 -164 -129 -250q80 -41 105.5 -98.5t25.5 -155.5v-361z" />
<glyph unicode="&#xe0;" horiz-adv-x="1073" d="M778 0v98q-63 -63 -129.5 -86.5t-171.5 -23.5q-111 0 -177.5 20.5t-113.5 69.5q-35 35 -53 86t-18 106q0 135 91 210t253 75h319v111q0 119 -62.5 180t-215.5 61q-104 0 -165 -28.5t-108 -96.5l-75 66q63 88 144 119.5t204 31.5q199 0 291 -84t92 -239v-676h-105z M778 471h-307q-252 0 -252 -199q0 -98 61.5 -145t196.5 -47q68 0 130.5 12t115.5 64q55 51 55 188v127zM487 1208l-217 301h138l198 -301h-119z" />
<glyph unicode="&#xe1;" horiz-adv-x="1073" d="M778 0v98q-63 -63 -129.5 -86.5t-171.5 -23.5q-111 0 -177.5 20.5t-113.5 69.5q-35 35 -53 86t-18 106q0 135 91 210t253 75h319v111q0 119 -62.5 180t-215.5 61q-104 0 -165 -28.5t-108 -96.5l-75 66q63 88 144 119.5t204 31.5q199 0 291 -84t92 -239v-676h-105z M778 471h-307q-252 0 -252 -199q0 -98 61.5 -145t196.5 -47q68 0 130.5 12t115.5 64q55 51 55 188v127zM532 1208h-118l198 301h138z" />
<glyph unicode="&#xe2;" horiz-adv-x="1073" d="M778 0v98q-63 -63 -129.5 -86.5t-171.5 -23.5q-111 0 -177.5 20.5t-113.5 69.5q-35 35 -53 86t-18 106q0 135 91 210t253 75h319v111q0 119 -62.5 180t-215.5 61q-104 0 -165 -28.5t-108 -96.5l-75 66q63 88 144 119.5t204 31.5q199 0 291 -84t92 -239v-676h-105z M778 471h-307q-252 0 -252 -199q0 -98 61.5 -145t196.5 -47q68 0 130.5 12t115.5 64q55 51 55 188v127zM700 1208l-190 224l-191 -224h-116l252 301h110l252 -301h-117z" />
<glyph unicode="&#xe3;" horiz-adv-x="1073" d="M778 0v98q-63 -63 -129.5 -86.5t-171.5 -23.5q-111 0 -177.5 20.5t-113.5 69.5q-35 35 -53 86t-18 106q0 135 91 210t253 75h319v111q0 119 -62.5 180t-215.5 61q-104 0 -165 -28.5t-108 -96.5l-75 66q63 88 144 119.5t204 31.5q199 0 291 -84t92 -239v-676h-105z M778 471h-307q-252 0 -252 -199q0 -98 61.5 -145t196.5 -47q68 0 130.5 12t115.5 64q55 51 55 188v127zM815 1337q-35 -35 -62.5 -55t-50 -29.5t-39 -11.5t-30.5 -2q-35 0 -64.5 10.5t-76.5 38.5q-29 16 -56.5 29.5t-58.5 13.5q-25 0 -49.5 -10t-71.5 -57l-61 59 q35 35 62.5 55.5t49 29.5t38.5 11t32 2q45 0 74.5 -13t66.5 -36q33 -20 58.5 -31.5t56.5 -11.5q23 0 48.5 10.5t72.5 57.5z" />
<glyph unicode="&#xe4;" horiz-adv-x="1073" d="M778 0v98q-63 -63 -129.5 -86.5t-171.5 -23.5q-111 0 -177.5 20.5t-113.5 69.5q-35 35 -53 86t-18 106q0 135 91 210t253 75h319v111q0 119 -62.5 180t-215.5 61q-104 0 -165 -28.5t-108 -96.5l-75 66q63 88 144 119.5t204 31.5q199 0 291 -84t92 -239v-676h-105z M778 471h-307q-252 0 -252 -199q0 -98 61.5 -145t196.5 -47q68 0 130.5 12t115.5 64q55 51 55 188v127zM238 1229v157h118v-157h-118zM664 1229v157h118v-157h-118z" />
<glyph unicode="&#xe5;" horiz-adv-x="1073" d="M778 0v98q-63 -63 -129.5 -86.5t-171.5 -23.5q-111 0 -177.5 20.5t-113.5 69.5q-35 35 -53 86t-18 106q0 135 91 210t253 75h319v111q0 119 -62.5 180t-215.5 61q-104 0 -165 -28.5t-108 -96.5l-75 66q63 88 144 119.5t204 31.5q199 0 291 -84t92 -239v-676h-105z M778 471h-307q-252 0 -252 -199q0 -98 61.5 -145t196.5 -47q68 0 130.5 12t115.5 64q55 51 55 188v127zM743 1386q0 -49 -18 -91t-50 -74.5t-74 -51t-91 -18.5t-91 18.5t-74 51t-50.5 74.5t-18.5 91t18.5 91.5t50.5 74t74 50t91 18.5t91 -18.5t74 -50t50 -74t18 -91.5z M659 1386q0 61 -44 104.5t-105 43.5t-105.5 -43t-44.5 -105q0 -61 44.5 -105t105.5 -44t105 44t44 105z" />
<glyph unicode="&#xe6;" horiz-adv-x="1708" d="M883 471q0 -190 80.5 -289.5t240.5 -99.5q88 0 148.5 27.5t124.5 91.5l77 -62q-76 -76 -155.5 -113.5t-202.5 -37.5q-252 0 -352 184q-61 -100 -145.5 -142t-221.5 -42q-111 0 -177.5 20.5t-113.5 69.5q-35 35 -53 86t-18 106q0 135 91 210t253 75h319v111 q0 119 -62.5 180t-215.5 61q-104 0 -165 -28.5t-108 -96.5l-75 66q63 88 144 119.5t204 31.5q279 0 354 -174q102 174 320 174q186 0 290.5 -125.5t104.5 -355.5v-47h-686zM471 471q-252 0 -252 -199q0 -98 61.5 -145t196.5 -47q68 0 130.5 12t115.5 64q55 51 55 188v127 h-307zM1464 555q-2 35 -4 60.5t-5 46t-9 39t-16 40.5q-33 78 -101.5 122t-154.5 44t-156 -43t-100 -123q-10 -25 -15.5 -43t-9.5 -37.5t-6 -44t-4 -61.5h581z" />
<glyph unicode="&#xe7;" horiz-adv-x="1009" d="M901 139q-78 -88 -151.5 -119.5t-174.5 -31.5q-102 0 -182 34.5t-136 100t-86 160t-30 211.5t30 211t86 159.5t136 100t182 34.5q100 0 174 -31.5t152 -119.5l-72 -66q-63 70 -119.5 97.5t-134.5 27.5q-174 0 -262 -131q-37 -53 -52 -117.5t-15 -164.5t15 -165t52 -118 q88 -131 262 -131q78 0 134.5 27.5t119.5 97.5zM500 -451h-129l147 308h113z" />
<glyph unicode="&#xe8;" horiz-adv-x="1071" d="M246 471q0 -190 81 -289.5t240 -99.5q88 0 148.5 27.5t124.5 91.5l78 -62q-37 -37 -75 -65.5t-80 -48t-91 -28.5t-111 -9q-205 0 -312.5 129t-107.5 377q0 242 104.5 373.5t291.5 131.5q186 0 290.5 -125.5t104.5 -355.5v-47h-686zM827 555q-2 35 -4 60.5t-5 46t-9 39 t-16 40.5q-33 78 -101.5 122t-154.5 44t-154 -44t-102 -122q-10 -23 -16.5 -41t-9.5 -38.5t-5 -46t-4 -60.5h581zM518 1208l-217 301h137l199 -301h-119z" />
<glyph unicode="&#xe9;" horiz-adv-x="1071" d="M246 471q0 -190 81 -289.5t240 -99.5q88 0 148.5 27.5t124.5 91.5l78 -62q-37 -37 -75 -65.5t-80 -48t-91 -28.5t-111 -9q-205 0 -312.5 129t-107.5 377q0 242 104.5 373.5t291.5 131.5q186 0 290.5 -125.5t104.5 -355.5v-47h-686zM827 555q-2 35 -4 60.5t-5 46t-9 39 t-16 40.5q-33 78 -101.5 122t-154.5 44t-154 -44t-102 -122q-10 -23 -16.5 -41t-9.5 -38.5t-5 -46t-4 -60.5h581zM563 1208h-119l199 301h137z" />
<glyph unicode="&#xea;" horiz-adv-x="1071" d="M246 471q0 -190 81 -289.5t240 -99.5q88 0 148.5 27.5t124.5 91.5l78 -62q-37 -37 -75 -65.5t-80 -48t-91 -28.5t-111 -9q-205 0 -312.5 129t-107.5 377q0 242 104.5 373.5t291.5 131.5q186 0 290.5 -125.5t104.5 -355.5v-47h-686zM827 555q-2 35 -4 60.5t-5 46t-9 39 t-16 40.5q-33 78 -101.5 122t-154.5 44t-154 -44t-102 -122q-10 -23 -16.5 -41t-9.5 -38.5t-5 -46t-4 -60.5h581zM731 1208l-190 224l-191 -224h-117l252 301h111l252 -301h-117z" />
<glyph unicode="&#xeb;" horiz-adv-x="1071" d="M246 471q0 -190 81 -289.5t240 -99.5q88 0 148.5 27.5t124.5 91.5l78 -62q-37 -37 -75 -65.5t-80 -48t-91 -28.5t-111 -9q-205 0 -312.5 129t-107.5 377q0 242 104.5 373.5t291.5 131.5q186 0 290.5 -125.5t104.5 -355.5v-47h-686zM827 555q-2 35 -4 60.5t-5 46t-9 39 t-16 40.5q-33 78 -101.5 122t-154.5 44t-154 -44t-102 -122q-10 -23 -16.5 -41t-9.5 -38.5t-5 -46t-4 -60.5h581zM268 1229v157h119v-157h-119zM694 1229v157h119v-157h-119z" />
<glyph unicode="&#xec;" horiz-adv-x="501" d="M199 0v987h104v-987h-104zM184 1208l-217 301h137l199 -301h-119z" />
<glyph unicode="&#xed;" horiz-adv-x="501" d="M199 0v987h104v-987h-104zM317 1208h-118l198 301h138z" />
<glyph unicode="&#xee;" horiz-adv-x="501" d="M199 0v987h104v-987h-104zM440 1208l-190 224l-191 -224h-116l252 301h110l252 -301h-117z" />
<glyph unicode="&#xef;" horiz-adv-x="501" d="M199 0v987h104v-987h-104zM-23 1229v157h119v-157h-119zM403 1229v157h119v-157h-119z" />
<glyph unicode="&#xf0;" horiz-adv-x="1077" d="M936 494q0 -106 -22.5 -213t-100.5 -185q-109 -109 -274 -108q-166 0 -275 108q-78 78 -100.5 184.5t-22.5 213.5q0 106 22.5 212.5t100.5 184.5q109 109 275 108q39 0 81 -8t72 -26l-137 231h-240v78h195l-109 184h109l106 -184h162v-78h-116l147 -252q41 -72 66.5 -127 t39 -105t17.5 -101t4 -117zM831 494q0 43 -2 88t-11 89t-26.5 83t-48.5 69q-84 84 -204 84q-121 0 -205 -84q-31 -31 -48.5 -69.5t-26.5 -82.5t-11 -89t-2 -88t2 -88.5t11 -89.5t26.5 -82.5t48.5 -69.5q84 -84 205 -84t204 84q31 31 48.5 69.5t26.5 82.5t11 89.5t2 88.5z " />
<glyph unicode="&#xf1;" horiz-adv-x="1144" d="M854 0v612q0 143 -68.5 219t-203.5 76t-207 -76.5t-72 -218.5v-612h-104v987h104v-117q111 129 291 129q166 0 262 -94q102 -98 102 -274v-631h-104zM887 1337q-35 -35 -62.5 -55t-50 -29.5t-39 -11.5t-30.5 -2q-35 0 -65 10.5t-77 38.5q-29 16 -56.5 29.5t-57.5 13.5 q-25 0 -49.5 -10t-71.5 -57l-62 59q35 35 62.5 55.5t49 29.5t39 11t32.5 2q45 0 74.5 -13t66.5 -36q33 -20 58.5 -31.5t56.5 -11.5q23 0 48 10.5t72 57.5z" />
<glyph unicode="&#xf2;" horiz-adv-x="1077" d="M936 494q0 -106 -22.5 -213t-100.5 -185q-109 -109 -274 -108q-166 0 -275 108q-78 78 -100.5 184.5t-22.5 213.5q0 106 22.5 212.5t100.5 184.5q109 109 275 108q166 0 274 -108q78 -78 100.5 -184.5t22.5 -212.5zM831 494q0 43 -2 88t-11 89t-26.5 83t-48.5 69 q-84 84 -204 84q-121 0 -205 -84q-31 -31 -48.5 -69.5t-26.5 -82.5t-11 -89t-2 -88t2 -88.5t11 -89.5t26.5 -82.5t48.5 -69.5q84 -84 205 -84t204 84q31 31 48.5 69.5t26.5 82.5t11 89.5t2 88.5zM526 1208l-217 301h137l199 -301h-119z" />
<glyph unicode="&#xf3;" horiz-adv-x="1077" d="M936 494q0 -106 -22.5 -213t-100.5 -185q-109 -109 -274 -108q-166 0 -275 108q-78 78 -100.5 184.5t-22.5 213.5q0 106 22.5 212.5t100.5 184.5q109 109 275 108q166 0 274 -108q78 -78 100.5 -184.5t22.5 -212.5zM831 494q0 43 -2 88t-11 89t-26.5 83t-48.5 69 q-84 84 -204 84q-121 0 -205 -84q-31 -31 -48.5 -69.5t-26.5 -82.5t-11 -89t-2 -88t2 -88.5t11 -89.5t26.5 -82.5t48.5 -69.5q84 -84 205 -84t204 84q31 31 48.5 69.5t26.5 82.5t11 89.5t2 88.5zM561 1208h-119l199 301h137z" />
<glyph unicode="&#xf4;" horiz-adv-x="1077" d="M936 494q0 -106 -22.5 -213t-100.5 -185q-109 -109 -274 -108q-166 0 -275 108q-78 78 -100.5 184.5t-22.5 213.5q0 106 22.5 212.5t100.5 184.5q109 109 275 108q166 0 274 -108q78 -78 100.5 -184.5t22.5 -212.5zM831 494q0 43 -2 88t-11 89t-26.5 83t-48.5 69 q-84 84 -204 84q-121 0 -205 -84q-31 -31 -48.5 -69.5t-26.5 -82.5t-11 -89t-2 -88t2 -88.5t11 -89.5t26.5 -82.5t48.5 -69.5q84 -84 205 -84t204 84q31 31 48.5 69.5t26.5 82.5t11 89.5t2 88.5zM729 1208l-190 224l-191 -224h-117l252 301h111l252 -301h-117z" />
<glyph unicode="&#xf5;" horiz-adv-x="1077" d="M936 494q0 -106 -22.5 -213t-100.5 -185q-109 -109 -274 -108q-166 0 -275 108q-78 78 -100.5 184.5t-22.5 213.5q0 106 22.5 212.5t100.5 184.5q109 109 275 108q166 0 274 -108q78 -78 100.5 -184.5t22.5 -212.5zM831 494q0 43 -2 88t-11 89t-26.5 83t-48.5 69 q-84 84 -204 84q-121 0 -205 -84q-31 -31 -48.5 -69.5t-26.5 -82.5t-11 -89t-2 -88t2 -88.5t11 -89.5t26.5 -82.5t48.5 -69.5q84 -84 205 -84t204 84q31 31 48.5 69.5t26.5 82.5t11 89.5t2 88.5zM844 1337q-35 -35 -62.5 -55t-50 -29.5t-39 -11.5t-30.5 -2q-35 0 -65 10.5 t-77 38.5q-29 16 -56.5 29.5t-57.5 13.5q-25 0 -49.5 -10t-71.5 -57l-62 59q35 35 62.5 55.5t49 29.5t39 11t32.5 2q45 0 74.5 -13t66.5 -36q33 -20 58.5 -31.5t56.5 -11.5q23 0 48 10.5t72 57.5z" />
<glyph unicode="&#xf6;" horiz-adv-x="1077" d="M936 494q0 -106 -22.5 -213t-100.5 -185q-109 -109 -274 -108q-166 0 -275 108q-78 78 -100.5 184.5t-22.5 213.5q0 106 22.5 212.5t100.5 184.5q109 109 275 108q166 0 274 -108q78 -78 100.5 -184.5t22.5 -212.5zM831 494q0 43 -2 88t-11 89t-26.5 83t-48.5 69 q-84 84 -204 84q-121 0 -205 -84q-31 -31 -48.5 -69.5t-26.5 -82.5t-11 -89t-2 -88t2 -88.5t11 -89.5t26.5 -82.5t48.5 -69.5q84 -84 205 -84t204 84q31 31 48.5 69.5t26.5 82.5t11 89.5t2 88.5zM266 1229v157h119v-157h-119zM692 1229v157h119v-157h-119z" />
<glyph unicode="&#xf7;" d="M455 266h143v-143h-143v143zM109 588h835v-96h-835v96zM455 956h143v-143h-143v143z" />
<glyph unicode="&#xf8;" horiz-adv-x="1077" d="M936 494q0 -106 -22.5 -213t-100.5 -185q-109 -109 -274 -108q-119 0 -215 59l-82 -137h-99l115 192q-74 78 -95.5 182.5t-21.5 209.5q0 106 22.5 212.5t100.5 184.5q109 109 275 108q123 0 215 -61l82 139h98l-115 -192q74 -78 95.5 -182.5t21.5 -208.5zM705 856 q-72 51 -166 51q-121 0 -205 -84q-31 -31 -48.5 -69.5t-26.5 -82.5t-11 -89t-2 -88q0 -78 9 -159t56 -145zM831 494q0 78 -9 158.5t-56 144.5l-393 -666q72 -51 166 -51q121 0 204 84q31 31 48.5 69.5t26.5 82.5t11 89.5t2 88.5z" />
<glyph unicode="&#xf9;" horiz-adv-x="1144" d="M842 0v117q-111 -129 -291 -129q-166 0 -262 94q-102 98 -103 274v631h105v-612q0 -143 68.5 -219t203.5 -76t207 76.5t72 218.5v612h104v-987h-104zM543 1208l-217 301h137l199 -301h-119z" />
<glyph unicode="&#xfa;" horiz-adv-x="1144" d="M842 0v117q-111 -129 -291 -129q-166 0 -262 94q-102 98 -103 274v631h105v-612q0 -143 68.5 -219t203.5 -76t207 76.5t72 218.5v612h104v-987h-104zM588 1208h-119l199 301h137z" />
<glyph unicode="&#xfb;" horiz-adv-x="1144" d="M842 0v117q-111 -129 -291 -129q-166 0 -262 94q-102 98 -103 274v631h105v-612q0 -143 68.5 -219t203.5 -76t207 76.5t72 218.5v612h104v-987h-104zM756 1208l-191 224l-190 -224h-117l252 301h111l251 -301h-116z" />
<glyph unicode="&#xfc;" horiz-adv-x="1144" d="M842 0v117q-111 -129 -291 -129q-166 0 -262 94q-102 98 -103 274v631h105v-612q0 -143 68.5 -219t203.5 -76t207 76.5t72 218.5v612h104v-987h-104zM293 1229v157h119v-157h-119zM719 1229v157h119v-157h-119z" />
<glyph unicode="&#xfd;" horiz-adv-x="880" d="M393 -268q-29 -82 -67 -115q-37 -35 -87.5 -49t-99.5 -14h-49v92h39q43 0 70.5 7t48 23.5t35 42t26.5 62.5l80 219l-360 987h114l297 -864l297 864h115zM463 1208h-119l199 301h137z" />
<glyph unicode="&#xfe;" horiz-adv-x="1105" d="M965 494q0 -117 -26 -230.5t-101 -189.5q-39 -39 -101.5 -62.5t-140.5 -23.5q-86 0 -156.5 26.5t-136.5 112.5v-598h-104v1929h104v-598q66 86 136.5 112.5t156.5 26.5q78 0 140.5 -23.5t101.5 -62.5q76 -76 101.5 -189t25.5 -230zM860 494q0 76 -9 150.5t-39 133t-85 94 t-145 35.5t-145.5 -35.5t-85 -94t-39 -133.5t-9.5 -150q0 -78 9.5 -152t39 -132t85 -94t145.5 -36t145 36t85 94t39 132t9 152z" />
<glyph unicode="&#xff;" horiz-adv-x="880" d="M393 -268q-29 -82 -67 -115q-37 -35 -87.5 -49t-99.5 -14h-49v92h39q43 0 70.5 7t48 23.5t35 42t26.5 62.5l80 219l-360 987h114l297 -864l297 864h115zM168 1229v157h119v-157h-119zM594 1229v157h119v-157h-119z" />
<glyph unicode="&#x152;" horiz-adv-x="2041" d="M1057 0v174q-74 -92 -175.5 -139t-213.5 -47q-111 0 -200 36.5t-155 102.5q-51 51 -79.5 101.5t-43 118t-18.5 158.5t-4 224t4 224t18.5 159t43 118t79.5 101q66 66 155 102.5t200 36.5q240 0 389 -186v174h864v-96h-756q0 -147 1 -291.5t1 -292.5h641v-86h-641 q0 -150 -1 -298t-1 -298h762v-96h-870zM1057 729q0 115 -3 198t-14.5 143t-34 105.5t-61.5 84.5q-113 113 -276 112q-164 0 -277 -112q-39 -39 -61.5 -84.5t-33.5 -105.5t-14 -143t-3 -198t3 -197.5t14 -143t33.5 -105.5t61.5 -84q113 -113 277 -113t276 113q39 39 61.5 84 t34 105.5t14.5 143t3 197.5z" />
<glyph unicode="&#x153;" horiz-adv-x="1761" d="M936 471q0 -190 81 -289.5t240 -99.5q88 0 148.5 27.5t124.5 91.5l78 -62q-37 -37 -75 -65.5t-80 -48t-91 -28.5t-111 -9q-264 0 -364 215q-47 -104 -139.5 -159.5t-208.5 -55.5q-166 0 -275 108q-78 78 -100.5 184.5t-22.5 213.5q0 106 22.5 212.5t100.5 184.5 q109 109 275 108q117 0 209 -55t139 -160q47 104 134 159.5t206 55.5q186 0 290.5 -125.5t104.5 -355.5v-47h-686zM831 494q0 43 -2 88t-11 89t-26.5 83t-48.5 69q-84 84 -204 84q-121 0 -205 -84q-31 -31 -48.5 -69.5t-26.5 -82.5t-11 -89t-2 -88t2 -88.5t11 -89.5 t26.5 -82.5t48.5 -69.5q84 -84 205 -84t204 84q31 31 48.5 69.5t26.5 82.5t11 89.5t2 88.5zM1518 555q-2 35 -4.5 60.5t-5.5 46t-9 39t-16 40.5q-33 78 -101.5 122t-154.5 44t-157 -44t-99 -122q-16 -41 -23.5 -77.5t-11.5 -108.5h582z" />
<glyph unicode="&#x178;" horiz-adv-x="1011" d="M561 604v-604h-110v604l-431 854h119l371 -737l362 737h119zM233 1618v158h119v-158h-119zM659 1618v158h119v-158h-119z" />
<glyph unicode="&#x2c6;" horiz-adv-x="1024" d="M702 1208l-190 224l-190 -224h-117l252 301h110l252 -301h-117z" />
<glyph unicode="&#x2dc;" horiz-adv-x="1024" d="M817 1337q-35 -35 -62.5 -55t-50 -29.5t-39 -11.5t-30.5 -2q-39 0 -68.5 12.5t-72.5 36.5q-29 16 -56.5 29.5t-58.5 13.5q-25 0 -49.5 -10t-71.5 -57l-61 59q35 35 62.5 55.5t49 29.5t39 11t31.5 2q45 0 74.5 -13t66.5 -36q33 -20 58.5 -31.5t56.5 -11.5q23 0 48.5 10.5 t72.5 57.5z" />
<glyph unicode="&#x2000;" horiz-adv-x="997" />
<glyph unicode="&#x2001;" horiz-adv-x="1996" />
<glyph unicode="&#x2002;" horiz-adv-x="997" />
<glyph unicode="&#x2003;" horiz-adv-x="1996" />
<glyph unicode="&#x2004;" horiz-adv-x="665" />
<glyph unicode="&#x2005;" horiz-adv-x="497" />
<glyph unicode="&#x2006;" horiz-adv-x="331" />
<glyph unicode="&#x2007;" horiz-adv-x="331" />
<glyph unicode="&#x2008;" horiz-adv-x="247" />
<glyph unicode="&#x2009;" horiz-adv-x="399" />
<glyph unicode="&#x200a;" horiz-adv-x="110" />
<glyph unicode="&#x2010;" horiz-adv-x="872" d="M168 492v96h537v-96h-537z" />
<glyph unicode="&#x2011;" horiz-adv-x="872" d="M168 492v96h537v-96h-537z" />
<glyph unicode="&#x2012;" horiz-adv-x="872" d="M168 492v96h537v-96h-537z" />
<glyph unicode="&#x2013;" d="M109 492v96h835v-96h-835z" />
<glyph unicode="&#x2014;" horiz-adv-x="1787" d="M168 492v96h1452v-96h-1452z" />
<glyph unicode="&#x2018;" horiz-adv-x="532" d="M195 1315v143l143 144v-287h-143z" />
<glyph unicode="&#x2019;" horiz-adv-x="532" d="M195 1171v287h143v-143z" />
<glyph unicode="&#x201a;" horiz-adv-x="532" d="M195 -143v286h143v-143z" />
<glyph unicode="&#x201c;" horiz-adv-x="851" d="M195 1315v143l143 144v-287h-143zM514 1315v143l143 144v-287h-143z" />
<glyph unicode="&#x201d;" horiz-adv-x="851" d="M195 1171v287h143v-143zM514 1171v287h143v-143z" />
<glyph unicode="&#x201e;" horiz-adv-x="851" d="M195 -143v286h143v-143zM514 -143v286h143v-143z" />
<glyph unicode="&#x2022;" horiz-adv-x="1118" d="M893 684q0 -70 -26.5 -130t-71.5 -105.5t-105.5 -72t-130.5 -26.5t-130 26.5t-105 72t-72 105.5t-27 130t27 130t72 105.5t105 72t130 26.5t130.5 -26.5t105.5 -72t71.5 -105.5t26.5 -130z" />
<glyph unicode="&#x2026;" horiz-adv-x="1482" d="M195 152h151v-152h-151v152zM666 152h151v-152h-151v152zM1137 152h151v-152h-151v152z" />
<glyph unicode="&#x202f;" horiz-adv-x="399" />
<glyph unicode="&#x2039;" horiz-adv-x="655" d="M86 543l401 401v-135l-266 -266l266 -267v-135z" />
<glyph unicode="&#x203a;" horiz-adv-x="655" d="M168 141v135l266 267l-266 266v135l401 -401z" />
<glyph unicode="&#x205f;" horiz-adv-x="497" />
<glyph unicode="&#x20ac;" horiz-adv-x="1384" d="M1229 414q-18 -98 -61.5 -177t-108 -134.5t-147.5 -85t-179 -29.5q-111 0 -200 36.5t-154 102.5q-41 41 -67.5 81t-43 88t-23.5 109.5t-9 143.5h-134v78h131v217h-131v78h134q2 78 10 137t24.5 106t42 86t66.5 80q66 66 155 102.5t199 36.5q199 0 329 -113.5t167 -312.5 h-113q-33 154 -134 241t-249 87q-164 0 -276 -112q-59 -59 -82 -135t-29 -203h500v-78h-502v-217h502v-78h-500q4 -135 26.5 -213t84.5 -137q113 -113 276 -113q147 0 250.5 87t136.5 241h109z" />
<glyph unicode="&#x2122;" horiz-adv-x="1656" d="M1452 584v671l-225 -446h-94l-226 446v-671h-90v874h90l273 -553l272 553h90v-874h-90zM406 1374v-790h-91v790h-249v84h589v-84h-249z" />
<glyph unicode="&#xe000;" horiz-adv-x="985" d="M0 985h985v-985h-985v985z" />
<glyph unicode="&#xfb01;" horiz-adv-x="1120" d="M334 909v-909h-105v909h-135v78h135v213q0 113 60.5 185.5t177.5 72.5h90v-92h-72q-78 0 -114.5 -43t-36.5 -121v-215h223v-78h-223zM817 0v987h105v-987h-105zM805 1329v129h129v-129h-129z" />
<glyph unicode="&#xfb02;" horiz-adv-x="1200" d="M334 909v-909h-105v909h-135v78h135v213q0 113 60.5 185.5t177.5 72.5h90v-92h-72q-78 0 -114.5 -43t-36.5 -121v-215h223v-78h-223zM1044 0q-123 0 -180 69.5t-57 186.5v1202h104v-1200q0 -86 32 -126t120 -40h72v-92h-91z" />
<glyph unicode="&#xfb03;" horiz-adv-x="1746" d="M1444 0v987h104v-987h-104zM1431 1329v129h129v-129h-129zM957 909v-909h-105v909h-135v78h135v213q0 113 60.5 185.5t177.5 72.5h90v-92h-72q-78 0 -114.5 -43t-36.5 -121v-215h223v-78h-223zM334 909v-909h-105v909h-135v78h135v213q0 113 60.5 185.5t177.5 72.5h90 v-92h-72q-78 0 -114.5 -43t-36.5 -121v-215h223v-78h-223z" />
<glyph unicode="&#xfb04;" horiz-adv-x="1832" d="M1677 0q-123 0 -180 69.5t-57 186.5v1202h104v-1200q0 -86 31.5 -126t120.5 -40h71v-92h-90zM957 909v-909h-105v909h-135v78h135v213q0 113 60.5 185.5t177.5 72.5h90v-92h-72q-78 0 -114.5 -43t-36.5 -121v-215h223v-78h-223zM334 909v-909h-105v909h-135v78h135v213 q0 113 60.5 185.5t177.5 72.5h90v-92h-72q-78 0 -114.5 -43t-36.5 -121v-215h223v-78h-223z" />
</font>
</defs>
</svg>
