<svg width="512" height="512" viewBox="0 0 512 512" xmlns="http://www.w3.org/2000/svg" fill="#666"><path d="M367.497 402.687c-9.476-1.494-9.692-27.327-9.692-27.327s27.844-27.328 33.912-64.076c16.326 0 26.407-39.07 10.082-52.814.68-14.47 20.98-113.588-81.8-113.588-102.784 0-82.48 99.118-81.8 113.588-16.328 13.745-6.245 52.814 10.08 52.814 6.067 36.748 33.913 64.076 33.913 64.076s-.216 25.833-9.692 27.327C241.98 407.503 128 457.345 128 512h384c0-54.655-113.98-104.497-144.503-109.313zm-195.47 8.718c22.047-13.575 48.813-26.154 70.77-33.712-7.877-11.216-16.648-26.468-22.166-44.53-7.7-6.284-13.97-15.267-17.996-26.302-4.033-11.05-5.56-23.423-4.304-34.84.9-8.195 3.24-15.832 6.824-22.543-2.175-23.293-3.707-69.017 26.224-102.366 11.607-12.933 26.278-22.23 43.85-27.843C272.09 86.887 255.648 48.88 192 48.88c-102.782 0-82.48 99.12-81.8 113.59-16.326 13.744-6.243 52.813 10.082 52.813 6.067 36.748 33.913 64.076 33.913 64.076s-.216 25.83-9.692 27.324C113.98 311.504 0 361.344 0 416h164.798a325.934 325.934 0 0 1 7.23-4.595z"/></svg>