<svg xmlns="http://www.w3.org/2000/svg" viewBox="0 0 45.113 45.113"><path d="M6.755 29.85c-2.4.1-4.8 2.7-4.5 5.3s.6 4 1.5 5.3 3.8 2.4 6.2 2.4 4.6-1 4.9-3.7.1-4.5-1.3-6.4c-1.3-1.9-3.2-3.1-6.8-2.9zm4.4 9.4c-1.6 1.1-4.1.9-5.9-.1-1.8-1-2.4-3.7-1.7-5.4s2.3-3.2 4.3-3.1c2.2.1 4.1 1.1 4.9 3 .8 1.8-.1 4.5-1.6 5.6zm33.5-6.9c-.2-6.3-1.7-10.9-4.2-15.1-2.6-4.2-5.7-8.6-12.8-12.2-7.1-3.6-13.8-4.8-18.2-5s-7.1.2-8.1 1-.9 3.6-.9 5.3.3 2.1.8 3.1 1.8 1.5 3.9 2.1c1.3.3 9.8 1.3 14.2 2.8 4.4 1.4 7.1 4.3 9.2 7.5 2.1 3.2 3.7 9 4.3 12.3s.3 8.5.7 9.5c.5.9 3.8 1.2 5.5 1.4s2.8-.1 3.6-.7c.9-.7 2.1-5.8 2-12zm-1.2 2.9c-.1-.1-4.2-4.3-4.3-4.1s-.2 1 .1 1.2c.3.3 4 3.5 4.1 3.7s.1 1.4-.1 1.4c-.1-.1-4.3-4.3-4.4-4.2s-.2.8 0 1c.3.2 4.3 4 4.3 4.3s0 1.4-.2 1.4-4.2-4.4-4.3-4.3-.3.7-.1 1 3.9 3.8 3.9 3.8-.7.4-.8.3c-.1-.1-3.4-3.2-3.5-3.2-.1.1-.5.4-.4.6.1.2 3 2.7 2.9 2.7s-1.3.1-1.4 0-2.1-2.1-2.3-2.1c-.1 0-.5.5-.4.6s1.2 1.2 1.1 1.2-1.2-.1-1.3-.2-.1-2.9-1.3-8.6c-1.2-5.7-3.1-11.2-5.4-13.9-2.3-2.7-7.8-6.4-13.6-7.5s-12.5-1.7-13.6-2.1c-.8-.2-.9-.7-1-2s.1-4 .5-4.5 2.7-.7 4.9-.7 6.6.2 10.6 1.3 11.4 3.4 15.6 7.6c4.2 4.2 6.5 8.1 6.5 8.1s-1.2-1.1-1.2-.7c0 .3-.2.9.7 1.5.8.6 1.8 2 2.3 2.8s.5 1.2.5 1.2-2.5-2.6-2.7-2.4c-.2.2-.3.7.1 1 .4.3 3 3 3.1 3.2s.6 1.5.4 1.5-3.4-2.9-3.5-2.9-.2.8 0 1c.2.1 3.6 3 3.7 3.3.1.3.4 2.2.3 2.1-.2-.1-3.7-4-3.9-3.9s-.2.8-.1.9c.1.1 4.1 4 4.2 4.3.1.3.2 1.4 0 1.3-.2-.1-4.2-4.3-4.3-4.1s-.2 1 0 1.1 4.4 4 4.4 4.3c.1.4 0 1.8-.1 1.7zm-20.5-15.7c-2-1.4-7.1-4-10.6-4.9-3.5-1-4.6-1.1-7.9-1-1 0-2.8.5-2.9 1.6-.1 1.1-.5 5.2 0 6.1.6.9 1.8 3.1 2.7 3.4.9.3 8 1.8 11.4 5.5s4 5.7 4.2 7.9-.4 5.5.3 6 3.1.7 5.1.9 3.2-.2 4.3-1.2 1.5-2.4 1.6-4.2-.4-7.6-1.9-11.2-4.4-7.4-6.3-8.9zm6.5 13.4c0 .1-2.6-2.3-2.8-2.4-.1 0-.4.5-.4.7s3.2 2.8 3.4 3c.2.1.2.6.2.8s-3.2-2.8-3.3-2.8-.3.6-.1.9c.2.2 3.4 2.9 3.5 3.1s.1.9 0 1.2-2.9-2.7-3.1-2.7c-.2 0-.3.4-.1.7s3 2.8 3.2 2.9c.2.1.2 1.1.1 1.3-.1.2-2.8-2.8-3-3.1-.3-.3-.4-.2-.6.1s.1.5.3.8 3.2 3 3.2 3-.2.7-.4.7-2.7-2.9-3-3.1c-.2-.2-.6.4-.6.6 0 .2 2.7 2.7 2.8 2.9s-1 .2-1.3.2-2.2-1.9-2.4-2.2-.5.2-.6.5 1.6 1.6 1.6 1.6-.3.1-.8 0-1.2 0-1.7-.4-.7-3.6-1.3-7.5-3.1-6.3-7.4-9c-4.3-2.8-8.4-3.1-10-3.3-1.5-.2-2.2-.7-2.5-1s-.2-4.2.1-4.9c.2-.7 1.3-.9 2.9-1 3.1-.1 6.5.9 9.7 2.1 3.2 1.2 6.7 3 8.1 4.2 1.4 1.2 3.2 4 3.1 4.1 0 .1-.8-.4-1.1-.6s-.1.6-.1.7 2.7 1.8 2.8 1.9.4 1.1.4 1.3-1.7-1.3-2-1.5-.3.4-.3.7 2.9 2.3 3 2.5.1.4.1.6c0 .2-2.6-2.2-2.8-2.2s-.2.7-.1.9c.1.2 3.2 2.6 3.2 2.7 0 .1.1.9.1 1zm-25-30.5c-.9.4-1.3 2.2-1.2 2.9s.7 1.5 1.1 1.3c.3-.1.3-.9.2-1s-.3-.6-.1-1.4c.2-.8 1-.8 1.3-1.1.4-.5-.3-1.2-1.3-.7zm-.2 14.3c-.6 0-1.2.8-1.2 1.3 0 .4.5 1.4.9 1.4.3 0 .4-.4.3-.8s.3-.8.5-1.1c.2-.4.1-.8-.5-.8zm2.1 16.5c-.7.2-1.8 1.7-1.8 2.1-.1 1.6.3 1.7.7 1.7s.3-.6.3-1.3.8-1.6 1.3-2c.5-.3.1-.7-.5-.5z"/></svg>
