<svg xmlns="http://www.w3.org/2000/svg" width="512" height="512" viewBox="0 0 512 512"><path d="M256 0C114.615 0 0 114.615 0 256s114.615 256 256 256 256-114.615 256-256S397.385 0 256 0zm-96 384c-17.673 0-32-14.327-32-32s14.327-32 32-32 32 14.327 32 32-14.327 32-32 32zm88 0c0-66.168-53.832-120-120-120v-48c92.636 0 168 75.364 168 168h-48zm96 0c0-57.695-22.47-111.938-63.266-152.735C239.938 190.468 185.696 168 128 168v-48c70.517 0 136.812 27.46 186.678 77.324C364.538 247.187 392 313.482 392 384h-48z" fill="#F29D33"/></svg>
