<svg xmlns="http://www.w3.org/2000/svg" viewBox="0 0 46.2 46.2"><path d="M16.833 6.7c-.2-.4-4.4-.6-7-.7s-3.3.4-3.4.8c-.3.9 4.4 8.4 4.6 8.9s-2.6 4.3-4.6 7.1c-2 2.8-3.2 4.6-3.2 5.4s1.2 2.9 1.8 3.1c.6.2 5.5.1 6.3.1s.9-.4 1.6-1.4 8.3-13.1 8.4-14.4-4.3-8.6-4.5-8.9zm.1 13.5c-.1-.1-1.3-2.6-1.6-2.6-.3 0-.7.2-.5.3.2.2 2 2.4 1.8 2.9-.2.4-1.2 2.3-1.4 2.2-.2-.1-3.1-3.9-3.3-3.9-.2 0-.6.1-.5.4s3.3 3.9 3.2 4.1c-.1.2-.5 1.4-.8 1.1-.2-.3-2.8-3.8-3.1-3.8-.4 0-.7.5-.6.7.1.1 3.2 3.5 3.1 3.8s-.3.7-.5.7c-.2-.1-2.6-3.2-3-3.2s-.9.1-.7.4c.2.3 3.4 3.6 3.4 3.7 0 .2-.4.6-.6.6s-3-3.4-3.2-3.4-.6.3-.5.5c0 .2 3.4 3.2 3.3 3.5s-.8.9-.9.8-3-3.1-3.3-3.1-.5.4-.3.6 2.7 2.6 2.7 2.6-1.5.2-1.7 0-1.5-1.5-1.8-1.5-.7 0-.5.4 1.2 1.3.9 1.3c-.3 0-1.5-.1-1.7-.3-.2-.3-.4-.9-.2-1.1.2-.2 1-1.6 2.5-3.9 1.4-2.3 5.2-7.5 5.3-8.1.1-.6-1.7-3.6-2.4-4.8s-2.3-3.7-2.1-3.9c0 0 4.1.1 5.4.2s2.4-.1 2.8.3 4.3 7.5 4.3 7.8c-.3.3-3.4 4.8-3.5 4.7zm26-16.7c.2-.8-.5-3-1.2-3.3s-9.1-.2-9.6-.1c-.6.2-2 2.5-3.6 5.5s-11 19.8-11.3 20.2c-.6.8.8 3.4 1.7 5.9.9 2.5 5.5 12.2 6 13.1s.6.9 1.6 1.1 8.6.3 10 .3 1.5-.8 1.6-1.2-.3-1.4-.4-2.5-6.8-15.3-6.9-15.8.6-2.2 1.7-4.3c1.2-2.2 10.2-18.1 10.4-18.9zm-13.4 12.7c.4.4 2.7 2.6 2.5 2.9-.2.3-.2 1.3-.6.9s-2.5-2.9-2.8-2.9c-.2.1-.8.2-.5.5.4.4 2.7 3 2.7 3.3s-.3 1.3-.5 1.1c-.2-.2-2.3-2.4-2.8-2.2-.5.3-.4.5-.2.7.3.2 2.4 2.1 2.3 2.3-.1.1-.3 1-.5.8s-1.5-1.7-1.9-1.5c-.3.2-.6.6-.4.8.2.2 1.9 1.5 1.8 1.8 0 .3 1.5 3.5 1.8 4.3.3.9 1.5 3.3 1.2 3s-4.5-5.1-4.8-4.9-.7.3-.5.6c.1.3 6.1 5.8 6.2 6s1.7 4.2 1.5 3.9c-.2-.2-6-6.3-6.2-6.2-.2.1-.5.5-.2 1 .4.5 6.9 6.3 7.1 6.6.2.3 1.8 3.6 1.8 3.9s.1.8-.1.5c-.3-.3-7.6-8-7.8-7.9-.3.1-.5 1-.2 1.4s7.3 6.5 7.2 6.6-1.9.3-2.2.1c-.2-.2-5.4-5.3-5.6-5.3-.2.1-.6.6-.3.9.3.3 5 4.3 4.6 4.3-.4 0-2-.1-2.1-.2s-2.8-3.4-3.1-3.4c-.3 0-.9.2-.6.6.4.4 3 2.6 2.7 2.6-.2 0-2.6.2-2.9-.1-.3-.3-4.7-10.1-5.9-12.8-1.1-2.7-2.1-4.7-2-5.1.1-.3 5.1-9.4 7.1-12.8 2-3.5 6.2-10.7 6.6-11 .3-.3 8.5-.6 8.8-.1s-7.7 15.5-7.9 15.3c-.2-.2-1.5-1.8-1.8-1.6-.3.3-.6.1-.3.5s1.7 1.9 1.7 2-.1.6-.3.5c-.2-.1-2.2-2.5-2.4-2.4.2.3-.6.3-.2.7zm-18.6-6.6c0-.1.9.1 1-.3s-.1-.6-.4-.6-1.7-.1-2 0 .2.9.7 1.7c.7 1.2 1.8 2.7 2.2 2.7.4 0 .3 0 .5-.3.1-.4-2-3.1-2-3.2zm2.5 8.3c-.2 0-.6.2-.6.5s1.9 2.7 2.3 3 .2.3.5-.1c.4-.5-1.8-3.5-2.2-3.4zm20.7-14.7c.2-.2 1.5 0 1.8.1.3 0 .4-.7.4-1s-2.2-.2-2.8-.2c-.6 0-4.6 6.4-4.6 6.9 0 .4.7.4 1 .2.5-.3 4-5.8 4.2-6z"/></svg>