<svg xmlns='http://www.w3.org/2000/svg' viewBox="0 0 512 512" fill="#666">
<defs>
  <style>
    g { display: none; }
    g:target { display: inline; }
  </style>
</defs>
<g id='context' viewBox='0 0 512 512'><path d="M367.497 402.687c-9.476-1.494-9.692-27.327-9.692-27.327s27.844-27.328 33.912-64.076c16.326 0 26.407-39.07 10.082-52.814.68-14.47 20.98-113.588-81.8-113.588-102.786 0-82.48 99.118-81.8 113.588-16.33 13.745-6.247 52.814 10.08 52.814 6.065 36.748 33.91 64.076 33.91 64.076s-.215 25.833-9.69 27.327C241.98 407.503 128 457.345 128 512h384c0-54.655-113.98-104.497-144.503-109.313zm-195.47 8.718c22.047-13.575 48.813-26.154 70.77-33.712-7.877-11.216-16.648-26.468-22.166-44.53-7.7-6.284-13.97-15.267-17.994-26.302-4.033-11.05-5.56-23.42-4.304-34.84.9-8.193 3.24-15.83 6.825-22.54-2.175-23.294-3.707-69.018 26.224-102.367 11.607-12.933 26.278-22.23 43.85-27.843-3.14-32.383-19.58-70.39-83.23-70.39-102.78 0-82.48 99.12-81.8 113.59-16.325 13.744-6.242 52.813 10.083 52.813 6.067 36.748 33.913 64.076 33.913 64.076s-.216 25.83-9.692 27.322C113.98 311.502 0 361.342 0 416h164.798a325.934 325.934 0 0 1 7.23-4.595z"/></g>
<g id='period' viewBox='0 0 512 512'><path d="M160 192h64v64h-64zm96 0h64v64h-64zm96 0h64v64h-64zM64 384h64v64H64zm96 0h64v64h-64zm96 0h64v64h-64zm-96-96h64v64h-64zm96 0h64v64h-64zm96 0h64v64h-64zm-288 0h64v64H64zM416 0v32h-64V0H128v32H64V0H0v512h480V0h-64zm32 480H32V128h416v352z"/></g>
<g id='task' viewBox='0 0 512 512'><path d="M192 32h320v64H192V32zm0 192h320v64H192v-64zm0 192h320v64H192v-64zM0 64a64 64 2160 1 0 128 0A64 64 2160 1 0 0 64zm0 192a64 64 2160 1 0 128 0 64 64 2160 1 0-128 0zm0 192a64 64 2160 1 0 128 0 64 64 2160 1 0-128 0z"/></g>
</svg>
