<svg class="logo" role="img" width="408" height="121" viewBox="0 0 408 121" xmlns="http://www.w3.org/2000/svg" aria-label="Dennis Reimann – User Interface Engineer"><g fill="none" fill-rule="evenodd"><path d="M59.168 103.684c0 1.248-.216 2.394-.648 3.438-.432 1.044-1.038 1.944-1.818 2.7-.78.756-1.704 1.344-2.772 1.764-1.068.42-2.25.63-3.546.63-1.296 0-2.478-.21-3.546-.63-1.068-.42-1.992-1.008-2.772-1.764-.78-.756-1.386-1.656-1.818-2.7-.432-1.044-.648-2.19-.648-3.438V86.368h1.944v17.064c0 1.056.162 2.022.486 2.898.324.876.786 1.62 1.386 2.232.6.612 1.32 1.086 2.16 1.422.84.336 1.776.504 2.808.504 1.032 0 1.968-.168 2.808-.504.84-.336 1.56-.81 2.16-1.422.6-.612 1.062-1.356 1.386-2.232.324-.876.486-1.842.486-2.898V86.368h1.944v17.316zm18.988 3.384c0 1.584-.618 2.838-1.854 3.762-1.236.924-2.934 1.386-5.094 1.386-1.512 0-2.838-.204-3.978-.612-1.14-.408-2.154-1.032-3.042-1.872l1.26-1.26c1.344 1.416 3.24 2.124 5.688 2.124 3.48 0 5.22-1.176 5.22-3.528 0-.912-.264-1.596-.792-2.052-.528-.456-1.368-.744-2.52-.864l-2.88-.252c-3.48-.288-5.22-1.8-5.22-4.536 0-1.512.564-2.712 1.692-3.6 1.128-.888 2.64-1.332 4.536-1.332 1.224 0 2.352.162 3.384.486 1.032.324 1.932.774 2.7 1.35l-1.224 1.224c-1.344-.984-2.964-1.476-4.86-1.476-1.44 0-2.538.288-3.294.864-.756.576-1.134 1.404-1.134 2.484 0 .912.282 1.596.846 2.052.564.456 1.458.744 2.682.864l2.808.252c.72.072 1.392.192 2.016.36.624.168 1.158.42 1.602.756.444.336.798.78 1.062 1.332s.396 1.248.396 2.088zm5.956-3.348c0 2.232.474 3.93 1.422 5.094.948 1.164 2.358 1.746 4.23 1.746 1.032 0 1.902-.162 2.61-.486.708-.324 1.434-.858 2.178-1.602l1.368 1.08c-.432.432-.87.816-1.314 1.152-.444.336-.912.618-1.404.846-.492.228-1.026.396-1.602.504-.576.108-1.224.162-1.944.162-2.4 0-4.23-.756-5.49-2.268-1.26-1.512-1.89-3.72-1.89-6.624 0-2.832.612-5.022 1.836-6.57 1.224-1.548 2.928-2.322 5.112-2.322s3.888.738 5.112 2.214c1.224 1.476 1.836 3.558 1.836 6.246v.828h-12.06zm10.224-1.476c-.024-.408-.048-.762-.072-1.062-.024-.3-.054-.57-.09-.81-.036-.24-.09-.468-.162-.684-.072-.216-.168-.456-.288-.72-.384-.912-.978-1.626-1.782-2.142s-1.71-.774-2.718-.774-1.908.258-2.7.774c-.792.516-1.392 1.23-1.8 2.142-.12.264-.216.504-.288.72-.072.216-.126.444-.162.684-.036.24-.066.51-.09.81-.024.3-.048.654-.072 1.062h10.224zm17.152-4.824c-.528-.528-1.026-.888-1.494-1.08-.468-.192-1.062-.288-1.782-.288-.744 0-1.404.144-1.98.432-.576.288-1.062.672-1.458 1.152-.396.48-.696 1.038-.9 1.674-.204.636-.306 1.302-.306 1.998V112h-1.836V94.648h1.836v2.304c.504-.816 1.218-1.44 2.142-1.872.924-.432 1.902-.648 2.934-.648.84 0 1.59.12 2.25.36.66.24 1.302.672 1.926 1.296l-1.332 1.332zM125.344 112V86.368h1.944V112h-1.944zm20.536 0v-10.764c0-1.68-.402-2.964-1.206-3.852-.804-.888-1.998-1.332-3.582-1.332-1.584 0-2.796.45-3.636 1.35-.84.9-1.26 2.178-1.26 3.834V112h-1.836V94.648h1.836V96.7c1.296-1.512 3-2.268 5.112-2.268 1.944 0 3.48.552 4.608 1.656 1.2 1.152 1.8 2.76 1.8 4.824V112h-1.836zm12.832 0c-1.368 0-2.406-.426-3.114-1.278-.708-.852-1.062-1.938-1.062-3.258V96.016h-2.376v-1.368h2.376v-5.544h1.836v5.544h3.924v1.368h-3.924V107.5c0 .912.216 1.62.648 2.124.432.504 1.104.756 2.016.756h1.26V112h-1.584zm7.54-8.28c0 2.232.474 3.93 1.422 5.094.948 1.164 2.358 1.746 4.23 1.746 1.032 0 1.902-.162 2.61-.486.708-.324 1.434-.858 2.178-1.602l1.368 1.08c-.432.432-.87.816-1.314 1.152-.444.336-.912.618-1.404.846-.492.228-1.026.396-1.602.504-.576.108-1.224.162-1.944.162-2.4 0-4.23-.756-5.49-2.268-1.26-1.512-1.89-3.72-1.89-6.624 0-2.832.612-5.022 1.836-6.57 1.224-1.548 2.928-2.322 5.112-2.322s3.888.738 5.112 2.214c1.224 1.476 1.836 3.558 1.836 6.246v.828h-12.06zm10.224-1.476c-.024-.408-.048-.762-.072-1.062-.024-.3-.054-.57-.09-.81-.036-.24-.09-.468-.162-.684-.072-.216-.168-.456-.288-.72-.384-.912-.978-1.626-1.782-2.142s-1.71-.774-2.718-.774-1.908.258-2.7.774c-.792.516-1.392 1.23-1.8 2.142-.12.264-.216.504-.288.72-.072.216-.126.444-.162.684-.036.24-.066.51-.09.81-.024.3-.048.654-.072 1.062h10.224zm17.152-4.824c-.528-.528-1.026-.888-1.494-1.08-.468-.192-1.062-.288-1.782-.288-.744 0-1.404.144-1.98.432-.576.288-1.062.672-1.458 1.152-.396.48-.696 1.038-.9 1.674-.204.636-.306 1.302-.306 1.998V112h-1.836V94.648h1.836v2.304c.504-.816 1.218-1.44 2.142-1.872.924-.432 1.902-.648 2.934-.648.84 0 1.59.12 2.25.36.66.24 1.302.672 1.926 1.296l-1.332 1.332zm6.964-1.404V112h-1.836V96.016h-2.376v-1.368h2.376v-3.744c0-1.32.354-2.406 1.062-3.258.708-.852 1.746-1.278 3.114-1.278h1.584v1.62h-1.26c-.912 0-1.584.252-2.016.756-.432.504-.648 1.212-.648 2.124v3.78h3.924v1.368h-3.924zM218.968 112v-1.728c-.744.744-1.506 1.254-2.286 1.53s-1.782.414-3.006.414c-1.296 0-2.334-.12-3.114-.36-.78-.24-1.446-.648-1.998-1.224-.408-.408-.72-.912-.936-1.512-.216-.6-.324-1.224-.324-1.872 0-1.584.534-2.814 1.602-3.69 1.068-.876 2.55-1.314 4.446-1.314h5.616V100.3c0-1.392-.366-2.448-1.098-3.168-.732-.72-1.998-1.08-3.798-1.08-1.224 0-2.19.168-2.898.504-.708.336-1.338.9-1.89 1.692l-1.332-1.152c.744-1.032 1.59-1.734 2.538-2.106.948-.372 2.142-.558 3.582-.558 2.328 0 4.032.492 5.112 1.476s1.62 2.388 1.62 4.212V112h-1.836zm0-8.28h-5.4c-2.952 0-4.428 1.164-4.428 3.492 0 1.152.36 2.004 1.08 2.556.72.552 1.872.828 3.456.828.792 0 1.554-.072 2.286-.216.732-.144 1.41-.516 2.034-1.116.648-.6.972-1.704.972-3.312v-2.232zm20.644 5.832c-.912 1.032-1.8 1.734-2.664 2.106-.864.372-1.884.558-3.06.558-1.2 0-2.268-.204-3.204-.612-.936-.408-1.734-.996-2.394-1.764-.66-.768-1.164-1.704-1.512-2.808-.348-1.104-.522-2.34-.522-3.708 0-1.368.174-2.604.522-3.708.348-1.104.852-2.04 1.512-2.808.66-.768 1.458-1.356 2.394-1.764.936-.408 2.004-.612 3.204-.612 1.176 0 2.196.186 3.06.558.864.372 1.752 1.074 2.664 2.106l-1.26 1.152c-.744-.816-1.446-1.386-2.106-1.71-.66-.324-1.446-.486-2.358-.486-2.04 0-3.576.768-4.608 2.304-.432.624-.738 1.314-.918 2.07-.18.756-.27 1.722-.27 2.898 0 1.176.09 2.142.27 2.898.18.756.486 1.446.918 2.07 1.032 1.536 2.568 2.304 4.608 2.304.912 0 1.698-.162 2.358-.486.66-.324 1.362-.894 2.106-1.71l1.26 1.152zm5.848-5.832c0 2.232.474 3.93 1.422 5.094.948 1.164 2.358 1.746 4.23 1.746 1.032 0 1.902-.162 2.61-.486.708-.324 1.434-.858 2.178-1.602l1.368 1.08c-.432.432-.87.816-1.314 1.152-.444.336-.912.618-1.404.846-.492.228-1.026.396-1.602.504-.576.108-1.224.162-1.944.162-2.4 0-4.23-.756-5.49-2.268-1.26-1.512-1.89-3.72-1.89-6.624 0-2.832.612-5.022 1.836-6.57 1.224-1.548 2.928-2.322 5.112-2.322s3.888.738 5.112 2.214c1.224 1.476 1.836 3.558 1.836 6.246v.828h-12.06zm10.224-1.476c-.024-.408-.048-.762-.072-1.062-.024-.3-.054-.57-.09-.81-.036-.24-.09-.468-.162-.684-.072-.216-.168-.456-.288-.72-.384-.912-.978-1.626-1.782-2.142s-1.71-.774-2.718-.774-1.908.258-2.7.774c-.792.516-1.392 1.23-1.8 2.142-.12.264-.216.504-.288.72-.072.216-.126.444-.162.684-.036.24-.066.51-.09.81-.024.3-.048.654-.072 1.062h10.224zM272.348 112V86.368H287.9v1.728h-13.608v10.116h11.592v1.728h-11.592v10.332H287.9V112h-15.552zm32.2 0v-10.764c0-1.68-.402-2.964-1.206-3.852-.804-.888-1.998-1.332-3.582-1.332-1.584 0-2.796.45-3.636 1.35-.84.9-1.26 2.178-1.26 3.834V112h-1.836V94.648h1.836V96.7c1.296-1.512 3-2.268 5.112-2.268 1.944 0 3.48.552 4.608 1.656 1.2 1.152 1.8 2.76 1.8 4.824V112h-1.836zm20.68.972c0 1.08-.156 2.082-.468 3.006-.312.924-.774 1.722-1.386 2.394-.612.672-1.356 1.194-2.232 1.566-.876.372-1.878.558-3.006.558-.648 0-1.224-.042-1.728-.126-.504-.084-.978-.222-1.422-.414-.444-.192-.87-.432-1.278-.72-.408-.288-.84-.636-1.296-1.044l1.224-1.224c.336.312.66.588.972.828.312.24.636.438.972.594.336.156.708.276 1.116.36.408.084.888.126 1.44.126.912 0 1.698-.15 2.358-.45.66-.3 1.206-.72 1.638-1.26.432-.54.75-1.176.954-1.908.204-.732.306-1.53.306-2.394v-3.096c-.768 1.008-1.566 1.668-2.394 1.98-.828.312-1.746.468-2.754.468-.912 0-1.734-.138-2.466-.414-.732-.276-1.326-.642-1.782-1.098-.888-.888-1.482-1.998-1.782-3.33-.3-1.332-.45-2.682-.45-4.05 0-1.368.15-2.718.45-4.05.3-1.332.894-2.442 1.782-3.33.456-.456 1.05-.822 1.782-1.098.732-.276 1.554-.414 2.466-.414 1.008 0 1.926.156 2.754.468.828.312 1.626.972 2.394 1.98v-2.232h1.836v18.324zm-1.836-9.648c0-.888-.054-1.77-.162-2.646-.108-.876-.336-1.656-.684-2.34-.348-.684-.846-1.236-1.494-1.656-.648-.42-1.5-.63-2.556-.63s-1.908.21-2.556.63c-.648.42-1.146.972-1.494 1.656-.348.684-.576 1.464-.684 2.34-.108.876-.162 1.758-.162 2.646 0 .912.054 1.8.162 2.664.108.864.336 1.638.684 2.322.348.684.846 1.236 1.494 1.656.648.42 1.5.63 2.556.63s1.908-.21 2.556-.63c.648-.42 1.146-.972 1.494-1.656.348-.684.576-1.458.684-2.322.108-.864.162-1.752.162-2.664zm8.44 8.676V94.648h1.836V112h-1.836zm-.216-23.364v-2.268h2.268v2.268h-2.268zM351.792 112v-10.764c0-1.68-.402-2.964-1.206-3.852-.804-.888-1.998-1.332-3.582-1.332-1.584 0-2.796.45-3.636 1.35-.84.9-1.26 2.178-1.26 3.834V112h-1.836V94.648h1.836V96.7c1.296-1.512 3-2.268 5.112-2.268 1.944 0 3.48.552 4.608 1.656 1.2 1.152 1.8 2.76 1.8 4.824V112h-1.836zm9.052-8.28c0 2.232.474 3.93 1.422 5.094.948 1.164 2.358 1.746 4.23 1.746 1.032 0 1.902-.162 2.61-.486.708-.324 1.434-.858 2.178-1.602l1.368 1.08c-.432.432-.87.816-1.314 1.152-.444.336-.912.618-1.404.846-.492.228-1.026.396-1.602.504-.576.108-1.224.162-1.944.162-2.4 0-4.23-.756-5.49-2.268-1.26-1.512-1.89-3.72-1.89-6.624 0-2.832.612-5.022 1.836-6.57 1.224-1.548 2.928-2.322 5.112-2.322s3.888.738 5.112 2.214c1.224 1.476 1.836 3.558 1.836 6.246v.828h-12.06zm10.224-1.476c-.024-.408-.048-.762-.072-1.062-.024-.3-.054-.57-.09-.81-.036-.24-.09-.468-.162-.684-.072-.216-.168-.456-.288-.72-.384-.912-.978-1.626-1.782-2.142s-1.71-.774-2.718-.774-1.908.258-2.7.774c-.792.516-1.392 1.23-1.8 2.142-.12.264-.216.504-.288.72-.072.216-.126.444-.162.684-.036.24-.066.51-.09.81-.024.3-.048.654-.072 1.062h10.224zm8.224 1.476c0 2.232.474 3.93 1.422 5.094.948 1.164 2.358 1.746 4.23 1.746 1.032 0 1.902-.162 2.61-.486.708-.324 1.434-.858 2.178-1.602l1.368 1.08c-.432.432-.87.816-1.314 1.152-.444.336-.912.618-1.404.846-.492.228-1.026.396-1.602.504-.576.108-1.224.162-1.944.162-2.4 0-4.23-.756-5.49-2.268-1.26-1.512-1.89-3.72-1.89-6.624 0-2.832.612-5.022 1.836-6.57 1.224-1.548 2.928-2.322 5.112-2.322s3.888.738 5.112 2.214c1.224 1.476 1.836 3.558 1.836 6.246v.828h-12.06zm10.224-1.476c-.024-.408-.048-.762-.072-1.062-.024-.3-.054-.57-.09-.81-.036-.24-.09-.468-.162-.684-.072-.216-.168-.456-.288-.72-.384-.912-.978-1.626-1.782-2.142s-1.71-.774-2.718-.774-1.908.258-2.7.774c-.792.516-1.392 1.23-1.8 2.142-.12.264-.216.504-.288.72-.072.216-.126.444-.162.684-.036.24-.066.51-.09.81-.024.3-.048.654-.072 1.062h10.224zm17.152-4.824c-.528-.528-1.026-.888-1.494-1.08-.468-.192-1.062-.288-1.782-.288-.744 0-1.404.144-1.98.432-.576.288-1.062.672-1.458 1.152-.396.48-.696 1.038-.9 1.674-.204.636-.306 1.302-.306 1.998V112h-1.836V94.648h1.836v2.304c.504-.816 1.218-1.44 2.142-1.872.924-.432 1.902-.648 2.934-.648.84 0 1.59.12 2.25.36.66.24 1.302.672 1.926 1.296l-1.332 1.332z" fill="#666"/><path d="M49.04 44.8c0 1.653.32 2.987.96 4 .64 1.013 1.653 1.52 3.04 1.52 1.227 0 2.213-.467 2.96-1.4.747-.933 1.12-2.147 1.12-3.64V29.52c0-1.28-.387-2.333-1.16-3.16-.773-.827-1.747-1.24-2.92-1.24-1.547 0-2.6.48-3.16 1.44s-.84 2.08-.84 3.36V44.8zm8.08 9.52c-.533.587-1.04 1.133-1.52 1.64-.48.507-1.013.947-1.6 1.32-.587.373-1.253.667-2 .88-.747.213-1.627.32-2.64.32-3.36 0-5.733-1.28-7.12-3.84-.48-.907-.827-2.027-1.04-3.36-.213-1.333-.32-3.12-.32-5.36V30.48c0-2.933.08-5.093.24-6.48.16-1.387.507-2.507 1.04-3.36.693-1.067 1.587-1.947 2.68-2.64 1.093-.693 2.627-1.04 4.6-1.04 1.6 0 3.027.36 4.28 1.08 1.253.72 2.333 1.747 3.24 3.08h.16V1.04h8.16V58h-8.16v-3.68zM79.44 40.8v5.52c0 1.28.36 2.267 1.08 2.96.72.693 1.693 1.04 2.92 1.04 1.547 0 2.573-.453 3.08-1.36.507-.907.813-1.813.92-2.72h8.16c0 1.707-.28 3.307-.84 4.8-.56 1.493-1.373 2.773-2.44 3.84-1.067 1.12-2.347 2-3.84 2.64-1.493.64-3.173.96-5.04.96-2.507 0-4.667-.533-6.48-1.6-1.813-1.067-3.2-2.48-4.16-4.24-.587-1.067-.987-2.293-1.2-3.68-.213-1.387-.32-2.907-.32-4.56V31.04c0-1.653.107-3.173.32-4.56.213-1.387.613-2.613 1.2-3.68.96-1.76 2.347-3.173 4.16-4.24 1.813-1.067 3.973-1.6 6.48-1.6 1.867 0 3.56.32 5.08.96 1.52.64 2.8 1.533 3.84 2.68 1.04 1.147 1.84 2.493 2.4 4.04.56 1.547.84 3.2.84 4.96v11.2H79.44zm0-6.4h8v-4.64c0-1.547-.36-2.707-1.08-3.48-.72-.773-1.693-1.16-2.92-1.16-1.227 0-2.2.387-2.92 1.16-.72.773-1.08 1.933-1.08 3.48v4.64zm22.16-16.96h8.16v3.92h.16c.853-1.28 1.88-2.333 3.08-3.16 1.2-.827 2.733-1.24 4.6-1.24 1.013 0 2.027.173 3.04.52 1.013.347 1.92.92 2.72 1.72.8.8 1.44 1.827 1.92 3.08.48 1.253.72 2.787.72 4.6V58h-8.16V29.92c0-1.493-.347-2.667-1.04-3.52-.693-.853-1.68-1.28-2.96-1.28-1.547 0-2.613.48-3.2 1.44-.587.96-.88 2.347-.88 4.16V58h-8.16V17.44zm31.12 0h8.16v3.92h.16c.853-1.28 1.88-2.333 3.08-3.16 1.2-.827 2.733-1.24 4.6-1.24 1.013 0 2.027.173 3.04.52 1.013.347 1.92.92 2.72 1.72.8.8 1.44 1.827 1.92 3.08.48 1.253.72 2.787.72 4.6V58h-8.16V29.92c0-1.493-.347-2.667-1.04-3.52-.693-.853-1.68-1.28-2.96-1.28-1.547 0-2.613.48-3.2 1.44-.587.96-.88 2.347-.88 4.16V58h-8.16V17.44zm31.12 0H172V58h-8.16V17.44zm0-16.4H172V9.2h-8.16V1.04zm29.68 27.76c-.053-1.387-.493-2.427-1.32-3.12-.827-.693-1.773-1.04-2.84-1.04-1.28 0-2.267.413-2.96 1.24-.693.827-1.04 1.773-1.04 2.84 0 .747.187 1.48.56 2.2.373.72 1.333 1.373 2.88 1.96l4.8 1.92c3.04 1.173 5.133 2.773 6.28 4.8 1.147 2.027 1.72 4.24 1.72 6.64 0 1.707-.307 3.293-.92 4.76-.613 1.467-1.453 2.76-2.52 3.88s-2.347 2-3.84 2.64c-1.493.64-3.12.96-4.88.96-1.6 0-3.12-.267-4.56-.8-1.44-.533-2.707-1.307-3.8-2.32s-1.987-2.28-2.68-3.8c-.693-1.52-1.067-3.293-1.12-5.32h7.68c.16 1.12.547 2.16 1.16 3.12.613.96 1.693 1.44 3.24 1.44 1.173 0 2.227-.387 3.16-1.16.933-.773 1.4-1.853 1.4-3.24 0-1.12-.293-2.08-.88-2.88-.587-.8-1.653-1.493-3.2-2.08L185.92 40c-2.56-.96-4.573-2.387-6.04-4.28-1.467-1.893-2.2-4.2-2.2-6.92 0-1.707.32-3.293.96-4.76.64-1.467 1.507-2.72 2.6-3.76 1.093-1.04 2.36-1.853 3.8-2.44s2.987-.88 4.64-.88c1.653 0 3.187.307 4.6.92 1.413.613 2.627 1.44 3.64 2.48 1.013 1.04 1.813 2.293 2.4 3.76.587 1.467.88 3.027.88 4.68h-7.68zm13.36-11.36h8.16v4.32c1.653-1.493 3.28-2.667 4.88-3.52 1.6-.853 3.573-1.28 5.92-1.28v8.64c-.8-.32-1.627-.48-2.48-.48s-1.773.147-2.76.44c-.987.293-1.893.787-2.72 1.48-.827.693-1.507 1.6-2.04 2.72-.533 1.12-.8 2.507-.8 4.16V58h-8.16V17.44zm29.68 23.36v5.52c0 1.28.36 2.267 1.08 2.96.72.693 1.693 1.04 2.92 1.04 1.547 0 2.573-.453 3.08-1.36.507-.907.813-1.813.92-2.72h8.16c0 1.707-.28 3.307-.84 4.8-.56 1.493-1.373 2.773-2.44 3.84-1.067 1.12-2.347 2-3.84 2.64-1.493.64-3.173.96-5.04.96-2.507 0-4.667-.533-6.48-1.6-1.813-1.067-3.2-2.48-4.16-4.24-.587-1.067-.987-2.293-1.2-3.68-.213-1.387-.32-2.907-.32-4.56V31.04c0-1.653.107-3.173.32-4.56.213-1.387.613-2.613 1.2-3.68.96-1.76 2.347-3.173 4.16-4.24 1.813-1.067 3.973-1.6 6.48-1.6 1.867 0 3.56.32 5.08.96 1.52.64 2.8 1.533 3.84 2.68 1.04 1.147 1.84 2.493 2.4 4.04.56 1.547.84 3.2.84 4.96v11.2h-16.16zm0-6.4h8v-4.64c0-1.547-.36-2.707-1.08-3.48-.72-.773-1.693-1.16-2.92-1.16-1.227 0-2.2.387-2.92 1.16-.72.773-1.08 1.933-1.08 3.48v4.64zm22.16-16.96h8.16V58h-8.16V17.44zm0-16.4h8.16V9.2h-8.16V1.04zm14.88 16.4h8.16v3.92h.16c.853-1.28 1.88-2.333 3.08-3.16 1.2-.827 2.733-1.24 4.6-1.24 1.76 0 3.227.427 4.4 1.28 1.173.853 2.133 1.787 2.88 2.8 1.013-1.12 2.133-2.08 3.36-2.88 1.227-.8 2.933-1.2 5.12-1.2 1.013 0 2.053.173 3.12.52 1.067.347 2.027.92 2.88 1.72.853.8 1.547 1.827 2.08 3.08.533 1.253.8 2.787.8 4.6V58h-8.16V29.92c0-1.493-.347-2.667-1.04-3.52-.693-.853-1.68-1.28-2.96-1.28-1.547 0-2.613.48-3.2 1.44-.587.96-.88 2.347-.88 4.16V58h-8.16V29.92c0-1.493-.347-2.667-1.04-3.52-.693-.853-1.68-1.28-2.96-1.28-1.547 0-2.613.48-3.2 1.44-.587.96-.88 2.347-.88 4.16V58h-8.16V17.44zm62.8 36.4h-.16c-1.067 1.493-2.147 2.64-3.24 3.44-1.093.8-2.627 1.2-4.6 1.2-.96 0-1.947-.147-2.96-.44-1.013-.293-1.96-.827-2.84-1.6-.88-.773-1.6-1.867-2.16-3.28-.56-1.413-.84-3.24-.84-5.48 0-2.293.187-4.307.56-6.04.373-1.733 1.053-3.173 2.04-4.32.987-1.147 2.307-2 3.96-2.56s3.76-.84 6.32-.84c.587 0 1.173.027 1.76.08.587.053 1.307.107 2.16.16v-4.24c0-1.387-.293-2.533-.88-3.44s-1.653-1.36-3.2-1.36c-1.067 0-2.04.347-2.92 1.04-.88.693-1.453 1.707-1.72 3.04h-7.92c.267-3.68 1.493-6.613 3.68-8.8 1.067-1.067 2.347-1.907 3.84-2.52 1.493-.613 3.173-.92 5.04-.92 1.707 0 3.307.267 4.8.8 1.493.533 2.787 1.333 3.88 2.4s1.96 2.4 2.6 4c.64 1.6.96 3.467.96 5.6V58h-8.16v-4.16zm0-13.28c-.907-.16-1.653-.24-2.24-.24-1.76 0-3.267.413-4.52 1.24-1.253.827-1.88 2.333-1.88 4.52 0 1.547.373 2.8 1.12 3.76.747.96 1.787 1.44 3.12 1.44 1.387 0 2.467-.453 3.24-1.36.773-.907 1.16-2.187 1.16-3.84v-5.52zm14.16-23.12h8.16v3.92h.16c.853-1.28 1.88-2.333 3.08-3.16 1.2-.827 2.733-1.24 4.6-1.24 1.013 0 2.027.173 3.04.52 1.013.347 1.92.92 2.72 1.72.8.8 1.44 1.827 1.92 3.08.48 1.253.72 2.787.72 4.6V58h-8.16V29.92c0-1.493-.347-2.667-1.04-3.52-.693-.853-1.68-1.28-2.96-1.28-1.547 0-2.613.48-3.2 1.44-.587.96-.88 2.347-.88 4.16V58h-8.16V17.44zm31.12 0h8.16v3.92h.16c.853-1.28 1.88-2.333 3.08-3.16 1.2-.827 2.733-1.24 4.6-1.24 1.013 0 2.027.173 3.04.52 1.013.347 1.92.92 2.72 1.72.8.8 1.44 1.827 1.92 3.08.48 1.253.72 2.787.72 4.6V58h-8.16V29.92c0-1.493-.347-2.667-1.04-3.52-.693-.853-1.68-1.28-2.96-1.28-1.547 0-2.613.48-3.2 1.44-.587.96-.88 2.347-.88 4.16V58h-8.16V17.44z" fill="#222"/><g fill="#71B239"><path d="M10.96.56h6.4L6.8 58.48H.4M28.72.56h6.4L24.56 58.48h-6.4"/></g></g></svg>
