<svg xmlns='http://www.w3.org/2000/svg' viewBox='0 0 512 512' style='display: none;'>
<symbol id='feed'><path d="M256 0C114.615 0 0 114.615 0 256s114.615 256 256 256 256-114.615 256-256S397.385 0 256 0zm-96 384c-17.673 0-32-14.327-32-32s14.327-32 32-32 32 14.327 32 32-14.327 32-32 32zm88 0c0-66.168-53.832-120-120-120v-48c92.636 0 168 75.364 168 168h-48zm96 0c0-57.695-22.47-111.938-63.266-152.735C239.938 190.468 185.696 168 128 168v-48c70.517 0 136.812 27.46 186.678 77.324C364.538 247.187 392 313.482 392 384h-48z" fill="#F29D33"/></symbol>
<symbol id='github'><path d="M477.656 130.697c-22.892-40.207-53.944-72.04-93.163-95.502C345.268 11.73 302.446 0 255.995 0 209.552 0 166.717 11.733 127.5 35.195 88.275 58.657 57.225 90.49 34.332 130.697 11.445 170.902 0 214.807 0 262.41c0 57.18 16.275 108.6 48.832 154.27 32.555 45.674 74.61 77.278 126.163 94.817 6 1.14 10.443.338 13.332-2.39 2.89-2.73 4.332-6.15 4.332-10.246 0-.68-.06-6.83-.17-18.45a3052.84 3052.84 0 0 1-.17-30.4l-7.67 1.36c-4.887.917-11.055 1.306-18.5 1.196-7.44-.108-15.166-.906-23.165-2.394-8.003-1.472-15.447-4.89-22.335-10.242-6.885-5.353-11.773-12.36-14.663-21.01l-3.333-7.863c-2.22-5.235-5.72-11.05-10.498-17.425-4.78-6.38-9.61-10.706-14.5-12.98l-2.334-1.715c-1.555-1.14-2.998-2.513-4.33-4.104-1.335-1.59-2.334-3.184-3-4.78-.667-1.6-.115-2.91 1.666-3.94 1.78-1.026 4.996-1.525 9.666-1.525l6.663 1.02c4.443.914 9.94 3.64 16.5 8.198 6.554 4.557 11.942 10.478 16.165 17.764 5.112 9.343 11.273 16.462 18.5 21.36 7.22 4.898 14.5 7.343 21.83 7.343 7.333 0 13.664-.57 19-1.704 5.33-1.137 10.33-2.85 15-5.128 2-15.27 7.443-27 16.33-35.2-12.665-1.364-24.05-3.42-34.165-6.15-10.108-2.735-20.554-7.175-31.33-13.33-10.782-6.15-19.726-13.783-26.835-22.89-7.11-9.113-12.944-21.075-17.496-35.88-4.554-14.807-6.833-31.89-6.833-51.25 0-27.57 8.78-51.028 26.335-70.39-8.224-20.727-7.448-43.96 2.332-69.7 6.442-2.054 16-.514 28.664 4.61 12.667 5.127 21.942 9.52 27.833 13.16 5.89 3.64 10.613 6.722 14.168 9.223 20.672-5.92 42.003-8.88 64.002-8.88 22 0 43.333 2.96 64.004 8.88l12.67-8.198c8.66-5.47 18.89-10.48 30.658-15.036 11.78-4.556 20.785-5.81 27.01-3.76 9.996 25.744 10.887 48.976 2.662 69.7 17.552 19.365 26.335 42.83 26.335 70.393 0 19.36-2.286 36.497-6.833 51.42-4.55 14.924-10.435 26.876-17.656 35.88-7.228 9-16.23 16.574-27.005 22.72-10.78 6.15-21.23 10.59-31.335 13.326-10.113 2.732-21.5 4.79-34.165 6.154 11.55 10.248 17.327 26.423 17.327 48.517v72.09c0 4.096 1.39 7.517 4.17 10.248 2.78 2.726 7.165 3.53 13.166 2.386 51.56-17.536 93.617-49.142 126.17-94.815 32.55-45.67 48.83-97.09 48.83-154.27-.01-47.596-11.46-91.5-34.34-131.705h-.003z" fill="#333" fill-rule="evenodd"/></symbol>
<symbol id='twitter'><path d="M256 0C114.623 0 0 114.623 0 256s114.623 256 256 256 256-114.623 256-256C512 114.59 397.377 0 256 0zm127.36 198.527l.192 8.16c0 83.328-63.39 179.33-179.33 179.33-35.582 0-68.703-10.432-96.607-28.322 4.93.576 9.952.895 15.04.895 29.538 0 56.707-10.08 78.276-26.975-27.583-.514-50.85-18.754-58.88-43.778 3.87.737 7.777 1.09 11.87 1.09 5.764 0 11.33-.738 16.61-2.177-28.83-5.825-50.56-31.264-50.56-61.79v-.8c8.513 4.733 18.21 7.55 28.545 7.902-16.895-11.295-28.032-30.592-28.032-52.45 0-11.55 3.105-22.367 8.512-31.678 31.072 38.144 77.536 63.233 129.918 65.856-1.087-4.61-1.632-9.442-1.632-14.37 0-34.783 28.227-63.007 63.044-63.007 18.11 0 34.495 7.647 46.015 19.903a127.634 127.634 0 0 0 40.03-15.295c-4.704 14.723-14.687 27.074-27.71 34.88a126.352 126.352 0 0 0 36.19-9.92c-8.45 12.61-19.17 23.715-31.487 32.546l-.002.002z" fill="#48ABD9" fill-rule="evenodd"/></symbol>
<symbol id='xing'><path d="M256 0C114.615 0 0 114.615 0 256s114.615 256 256 256 256-114.615 256-256S397.385 0 256 0zm-83.26 320.203h-46.266c-2.788 0-4.87-1.247-6.05-3.146-1.218-1.976-1.28-4.533 0-7.08l49.163-86.535c.052-.095.052-.158 0-.263l-31.284-54.02c-1.294-2.57-1.483-5.11-.263-7.08 1.18-1.91 3.522-2.89 6.31-2.89h46.267c7.1 0 10.58 4.563 12.884 8.655 0 0 31.62 55.024 31.81 55.327-1.87 3.295-49.95 88.11-49.95 88.11-2.36 4.258-5.7 8.915-12.62 8.915zM391.526 106.07l-102.44 180.67a.275.275 0 0 0 0 .307l65.228 118.875c1.295 2.56 1.326 5.16.096 7.133-1.18 1.896-3.355 2.945-6.142 2.945H302.05c-7.088 0-10.633-4.7-12.924-8.79 0 0-65.576-119.996-65.744-120.308 3.28-5.79 102.958-182.112 102.958-182.112 2.48-4.448 5.48-8.79 12.387-8.79h46.742c2.783 0 4.973 1.05 6.15 2.947 1.22 1.974 1.19 4.573-.1 7.122z" fill="#2A6365"/></symbol>
</svg>
